<svg id="Layer_1" data-name="Layer 1" xmlns="http://www.w3.org/2000/svg" xmlns:xlink="http://www.w3.org/1999/xlink" viewBox="0 0 263.59 299.17">
  <defs>
    <style>
      .cls-1 {
        fill: none;
        clip-rule: evenodd;
      }

      .cls-2 {
        clip-path: url(#clip-path);
      }

      .cls-3 {
        fill: #080808;
      }

      .cls-10, .cls-11, .cls-12, .cls-13, .cls-14, .cls-15, .cls-16, .cls-3, .cls-4, .cls-5, .cls-6, .cls-7, .cls-8, .cls-9 {
        fill-rule: evenodd;
      }

      .cls-4 {
        fill: #fbfcfc;
      }

      .cls-5 {
        fill: #f6f6f6;
      }

      .cls-6 {
        fill: #f6f7f8;
      }

      .cls-7 {
        fill: #f7f8f8;
      }

      .cls-8 {
        fill: #f5f5f5;
      }

      .cls-9 {
        fill: #c3bdb7;
      }

      .cls-10 {
        fill: #c2bdb6;
      }

      .cls-11 {
        fill: #e8e8e8;
      }

      .cls-12 {
        fill: #ececeb;
      }

      .cls-13 {
        fill: #0e0d0d;
      }

      .cls-14 {
        fill: #101010;
      }

      .cls-15 {
        fill: #bd242c;
      }

      .cls-16 {
        fill: #efefef;
      }
    </style>
    <clipPath id="clip-path" transform="translate(-19.9 0)">
      <polygon class="cls-1" points="19.9 0 19.9 299.17 283.48 299.17 283.48 0 19.9 0 19.9 0"/>
    </clipPath>
  </defs>
  <title>mokey</title>
  <g class="cls-2">
    <path class="cls-3" d="M102.34,30.22c0,.08-.14.18-.12.23.13.33.3.34.45,0,0-.05,0-.18-.11-.23s-.15,0-.22,0ZM61.46,180.06c-4.53,2.14-6.22,5.41-7.81,8.78-.22.46-.19.93.24,1.12s1-.13,1.33-.63c1.88-2.82,3.78-5.62,6.24-9.27Zm202.47-21.65c-1.58-3.09-2.19-5.58-3.71-7.63-2-2.68-8-2.61-9.29.42-.93,2.16-2.39,5,0,7,4.13,3.44,8.57,6.52,13,9.84,4.79-8.87,8.72-17.83,8.18-28.11-.2-3.85-1.13-7.46-3.94-10.31a9.44,9.44,0,0,0-10.34-2.55c-3.8,1.23-6.81,2.74-7.38,7.61a58.32,58.32,0,0,1-4.15,16.36c-.46,1.06-1.69,2.75.3,4.09.34-1.35.59-2.54.94-3.7,1.86-6.27,5.11-11.54,11-14.8,2.65-1.47,5.43-2.06,8.15-.14,2.2,1.56,3,4.51,2.23,8.09-1.89-3.38-8.4-5.32-11.89-3.43-1.26.68-2.66,1.54-.23,2.87,5.23,2.86,7.13,7.6,7.09,14.37ZM32.34,144.67c-.06-3.86.09-7.18,3.39-9,3.54-2,6.7-.28,9.52,1.82a22.76,22.76,0,0,1,8.33,11.74c.57,1.8,1.08,3.62,1.65,5.54,1.47-1,.81-2,.5-2.83-2.54-6.66-3.83-13.62-5.18-20.57a3.38,3.38,0,0,0-1.25-2.22c-8-6.24-17.3-2.92-19.19,7.07-2.27,12,2.8,22.22,8.23,32.4,3.3-2.75,6.34-5.34,9.43-7.87,5-4.06,5.12-4.5,3.06-10.58-.14-.42-.35-.82-.52-1.23-1.4-3.45-2.45-3.78-5.63-1.72a12.6,12.6,0,0,0-4.26,5c-.73,1.43-1.3,2.93-2.32,5.27-.38-6.66,1.93-10.91,6.73-13.9.55-.34,1.52-.55,1.36-1.24a2.92,2.92,0,0,0-1.48-1.62c-3.54-1.72-10,.12-12.37,3.94ZM191.28,90.45a6.61,6.61,0,0,0,3.87-.07c10.14-2.13,20.33-3.64,30.62-1,8.61,2.23,14.1,7.53,15.84,16.44,2.6,13.41,1,26.57-3.09,39.38-2.05,6.49-.62,11.7,3.11,16.76,3,4,7,6.75,11.59,9.18-2.64,1.71-1.8,2.91,0,4.68,6.61,6.48,11.44,14.24,15.67,22.62-3.75.08-3.77.08-2.84,3.24a59.11,59.11,0,0,1,1.54,25.68c-.61,4.25-2,8.31-2.94,12.52a1.33,1.33,0,0,0,1.43-.94c5.58-11.09,8.36-22.62,5.35-35-.6-2.5-.58-2.51,2.32-2.43-4.55-9.46-8.47-19.05-15.73-26.73,1.38-1,2.86-.22,4.58-.68-4.8-5.54-9.57-10.69-15.47-14.72-1.39-.95-1.71-.07-2.06,1.29-1.3-3.82-3.88-7.08-2.5-10.84,2.9-7.9,4.07-16.11,4.69-24.4.73-9.9.36-19.75-3.71-29.07-3.51-8-9.63-12.45-18.41-13.17-11.84-1-22.64,2.82-33.86,7.25ZM49.49,171.28c.84-.5,1.22-.74,1.6-.95,11.57-6.43,14.92-13.88,12.2-26.74-2.24-10.65-4.15-21.34-3.65-32.3.55-12,6.29-19,18-22a58,58,0,0,1,17.51-1.35c3.37.17,6.74.49,10.11.75a1.8,1.8,0,0,0-1.14-1.16,88,88,0,0,0-18.63-4.73c-16.27-2.11-26.22,4.5-29.67,20.48-3.28,15.19-1.57,30.24,3,45,1.44,4.59-.21,8.58-3.86,10.66-6.33,3.63-10.94,9.27-16,14.89,2,.33,3.46-.26,4.9.49C36.43,182,32.51,191.6,28,201.06c2.85,0,2.82,0,2.3,2.41-.35,1.63-.67,3.26-.87,4.91-1.68,13.93,3.2,26,10.76,37.35-2.49-7.54-4.87-15.08-5.53-23.08a62,62,0,0,1,3.06-24.07H34.27c2.19-6.23,9.58-17.31,15.68-23,1.84-1.72,2.22-2.8-.46-4.28Zm90-143.94c0,.14.06.28.08.42l.25-.11-.4-.25c-.55-4.52-3.48-8-5.73-12.27,13.37,2.3,25.77,5.81,36.77,14.74-.82-4.87-1.52-9-2.26-13.37a19.84,19.84,0,0,1,2,.49A124.64,124.64,0,0,1,206,36.43c13.84,10.92,22.87,24.89,26.52,42.15.64,3,1.33,5.17,4.79,5.33.43-1.47-.29-2.84-.53-4.22-2.12-12.34-5.62-24-13.73-34.1C208.28,27.3,189,16.26,167,9.31c-1.57-.49-3.13-1.35-5-1.05,1.61,4.12,3.27,8,3.52,12.53-18.62-8.9-32.21-12.27-41.83-10.39,2.57,3.47,5.27,6.8,7.27,11-10.84-2-21.35-1.61-32.41.09a45.94,45.94,0,0,1,11,12.49c-.86.31-1.37.52-1.88.68A134.07,134.07,0,0,0,78.74,47.11a15.62,15.62,0,0,0-6.81,7.1c-4,9.39-6.13,19.28-7.67,29.15,5.39-.18,7.11-3.23,7.63-8.09a78.18,78.18,0,0,1,4-17.45,12.66,12.66,0,0,1,6-7.18A145.33,145.33,0,0,1,113.52,37c3-.88,2.68-1.84,1.34-3.91a98,98,0,0,0-7-8.84,144.81,144.81,0,0,1,16.76.19c5.09.41,9.88,2.16,14.88,2.92ZM88.09,195.24c-4.88,1.84-8.33,5.74-12.48,8.76.94-4.3,3-8,5.21-12.09-4.8,1.21-7.26,5.32-11.45,8l5.08-12.07a20.37,20.37,0,0,0-6.93,3.88c-.67.58-1.47,1.46-2.27.9-1.18-.82.29-1.46.56-2.16.57-1.43,1.33-2.78,2-4.17.08-.26.3-.68.23-.73-.31-.24-.55,0-.67.3-2.56.17-3.66,3.34-6.33,3.37,1.12-2.66,2.62-5,3.16-7.72-.44,0-.71-.17-.84-.08-7,4.77-12.93,20.06-11.1,28.3.64,2.85,1.33-1.18,1.86,0,.39,5.1,0,10.2,1.1,16.13,1.19-5,2.18-9.14,3.16-13.26.89,7.09,1.42,14,3.76,21.35,1.08-3.44.45-6.42,1.72-9.29,1.61,5.43,1.93,11.11,5.56,16.14.38-4.92-.32-9.38,1-14.09a39.18,39.18,0,0,0,4.27,11.53c.2-3.66.2-6.72.56-9.74,1.43-12.2,6.66-22.87,13.44-32.9l0-.77-.57.37Zm156-11.92c-2.36-1.73-3.64-4.63-6.41-6.06.14,3.06,3.08,5.28,2.39,8.7-2-1.31-3.26-3.3-5.78-3.21,1,2.85,3.25,5.11,3.23,8.78a18.57,18.57,0,0,0-9.44-6.7c1,3.92,3.84,6.95,3.35,11.26-2.81-3-5.33-5.75-9-7.05-.26-.07-.68-.26-.73-.19-.25.34,0,.5.33.59,1.51,4.09,4.53,7.64,4.86,12.8A31.67,31.67,0,0,0,213.62,192c8.54,12.91,14.3,26.62,13.79,43.31,2.42-4,3.24-7.57,4.5-11.53,1.17,4.78.51,9.08,1,13.85,3.53-5.65,4.23-11.53,5.6-17.19q.6,4.46,1.22,8.91c2.82-7.14,3.45-14.42,3.09-22.49,2.29,5.14,2.36,10.26,4.38,15.66a140.78,140.78,0,0,0,.59-19c.45,1.31.89,2.62,1.4,4.12.3-.48.58-.73.62-1a25.86,25.86,0,0,0,.22-2.64c.22-7.56-2.32-14.31-6-20.71,1.07-1.1,1.26.17,1.59.66,1,1.49,1.92,3.05,3.12,5-.42-6-3.59-10.53-7.89-11.51a18,18,0,0,1,2.38,3.09c.39.83,2.34,1.37.82,2.79ZM196.8,238.65c2.18.25,4.35.6,6.53.72,2.54.14,5.18.25,6.78-2.35s0-4.6-1-6.8c-.32-.69-2-1.49-.29-2.5l3.19,1.7c-.33-6.07-6.12-11-21.62-18.56,1.41-.59,2.79-.13,4.17,0l9.75,3.31c-.36-.84-.5-1.2-.67-1.54-1.93-4-4.1-7.82-6.09-11.69s-.94-9.05-3.19-14.05c2.47,1.3,2.81,3.29,4.42,4.4,3.47-7.2,9.73-10.18,16.86-11.92a38.63,38.63,0,0,0,8.52-2.72c8.7-4.39,10.3-14.88,3.3-21.65-2.95-2.85-3-2.84-5.33,1L220,159.46c-1.07-3.25.58-5.56,1.59-8,2.59-3,5.17-6,7.77-9A12,12,0,0,0,232,131.61a31.37,31.37,0,0,0-9.44-16.76c-1.54-1.43-3.21-2.72-5.43-2.93a25.28,25.28,0,0,0-14.35,2.65l-1.24.33c-1.25-.44-2.24.71-3.44.54.3-1.73,2.34-1.73,3.33-3.3-3.23.26-6.24.15-9,.84s-3.19.34-2.25-2.31c.41-1.16.07-2.58.07-4.16-5.56,1.42-9.52,5.6-14.89,8.86,1.18-2.5,2-4.15,3-6.41-7.41,2.51-13.09,6.55-18.67,11.06-.35-2.25,1.09-4,.17-6.46a52.27,52.27,0,0,0-8.8,9c-3-3.67-5.7-7.24-9.83-9.16.79,3.48.79,3.48.48,6a57.08,57.08,0,0,0-17.22-10.51c-.28,0-.72-.14-.84,0-.25.31,0,.56.35.7.4,1.42,1.43,2.73.69,4.33-2.15-1.54-4.2-3.2-6.42-4.57s-4.27-3.09-7.54-3.34c1.46,2.24-.18,4.74,2.16,6.81-4.36-.18-8.1-1.25-12.23-.69,1,1.4,2.81,1.61,3.41,3.16-2.06.44-3.45-1.21-5.22-1.18-2.9-1.74-6.18-2.17-9.42-2.7-4.64-.76-8.42.82-11.56,4.27a33,33,0,0,0-8.16,15.67,11.3,11.3,0,0,0,2.24,10c2.67,3.21,5.45,6.32,8.19,9.48,1,2.53,2.68,4.95,1.67,8.27l-2.29-3.7c-1-1-1.22-3.87-3.42-2.26-6.26,4.62-8.88,15.13-1.74,21,3.19,2.64,7,3.67,10.92,4.59,7.45,1.78,14.17,4.62,17.68,12.1,1.67-1.1,1.93-3.27,4-4-.83,4-2.55,7.58-1.93,11.72a21.37,21.37,0,0,1,11.12-1.8c0,.85-.77.7-1.22,1-7.21.49-12.44,4.24-16.2,10.15a67.89,67.89,0,0,0-9.31,23.3c-1.07,5.37-1.58,10.78.22,16.08s5.59,7.11,11,5.56a46.46,46.46,0,0,0,6.34-2.88c3.89-1.76,7.46-4.36,12-4.53l-2.76,2c-.27.19-.55.36-.82.56-8,5.91-8.11,6.43-1.93,14.5,3.6,4.68,7.82,8.42,14.17,8.64.66.06,1.53.41,1.93.12,4.53-3.24,10.62-3.9,14.25-8.64.58-.76.94-2,2.27-2.07.07,1.11.12,2.15.2,3.45,2-1.75,2.93-3.92,4.29-5.94l4.11,4.94c.19-.94.32-1.55.57-2.77,3.06,4.53,8,4,12.12,5.46a29.47,29.47,0,0,0,13.45.94c12.52-2.5,20.07-10.89,26.12-21.36-4.24-1.5-8-2.73-10.07-6.5l0,0ZM132.17,5.74,145.48,7.9l12.13,3.68a28.7,28.7,0,0,0-4.12-8.86c-.38-.83-.77-1.66-1.15-2.47,2.31-.75,4.35.42,6.47.41a191.3,191.3,0,0,1,26.57,9l13.29,7.19h0l12.81,9.46,4.36,3.86,9.63,10.57c.84,1.13,1.66,2.26,2.49,3.4A89.87,89.87,0,0,1,235.24,58a54.34,54.34,0,0,0,2.89,8.72c.26,1.11.53,2.22.79,3.32q1.65,6.67,3.31,13.35c.22,1.85.11,4,1.37,5.32,4,4.21,6.09,9.33,7.89,14.65.31,2.22.63,4.44.94,6.65a76,76,0,0,1-.51,16.51c4.42-3,8.71-4.51,13.53-3.79l3.33,1.33,2.11,1.58a.37.37,0,0,0,.27.27l.91.81c4.94,6.66,6,14.1,4.43,22.07-1,5-3,9.69-4.41,14.56-4.41,8.29-4.41,8.29.88,13.81a1.56,1.56,0,0,0,.28.16c-.13.41-.26.82-.38,1.22-1.78-.8-3.68-.79-5.77-1.05A15.1,15.1,0,0,0,270,182c4,7,7.93,14,11.31,21.33.61,3.3,2.7,6.32,2.09,10.24l-4.48-2.69c-.76-.55-1.3-2-2.33-1.43s0,1.72.08,2.62.1,2,.15,3c.3,5.25-.7,10.38-1.34,15.55l-4.65,12.67L265.46,252l-3.86,4.67c-1.8,1.43-3.07,3.5-5.33,4.76v-4.74a35.37,35.37,0,0,0,.68-8.53,2.56,2.56,0,0,0,.27-.45s-.12-.13-.19-.21l-.29.44c-.67-.11-1,.43-1.32.81-9.59,10.06-19.54,19.75-30,28.84-1.83.93-3.12,2.73-5.49,3.46.12-1.84.21-3.44.32-5,.2-2.79,1.29-5.55.31-8.38l.22.07s0,.06,0,.09l-.21-.18c-2.36,3.22-5.86,5.3-8.43,8.31l-8.75,7.34-4.54,3.43-12.9,7.95,0-1.36a.94.94,0,0,0,.28-.54,18,18,0,0,0,4.23-7.29l-5,2.8a182.59,182.59,0,0,1-20.26,8.8c-.48.17-2,2-2.31-.4a10.15,10.15,0,0,0,1.78-4.51l-5.84.58a118.45,118.45,0,0,1-19.11.54c-2.46-.15-2.52.64-1.71,2.57.39.94,1.09,1.93.67,3.35l-6.37-2.33-2.12-.89-11.34-6a21.37,21.37,0,0,0-5.87-3.46l1.85,8.44c-3.66-1.2-6.21-3.58-9.26-5.06l-8.49-6.66-3.79-3.4-12.93-13c.46,4.94.78,9.22,1.28,13.49.29,2.52-.93,1.43-2,1L65.91,269.5,53,257.25a2.33,2.33,0,0,0-1.33-1.35L45,248.59c-.28,3.18.4,5.61.71,8.07-.34.82.54,1.82-.32,2.71l-3.26-2.73a95.32,95.32,0,0,1-10-13.32A63,63,0,0,1,25,216.64l.64-7.67c-2.12,1.44-3.6,2.7-5.71,2.79-.21-3.08,1.19-5.66,1.63-8.43A146.15,146.15,0,0,1,35,179.46c-1.55-.42-2.72-.71-3.88-1s-.72-1.08-.4-1.76c4.38-4.85,4.38-4.85,1.38-10.6-.51-1-1.05-1.93-1.57-2.89q-2.13-5.26-4.28-10.53a4.21,4.21,0,0,0-.71-2.64,75.11,75.11,0,0,1-.76-13.32c.33-1.61.66-3.22,1-4.83a19.35,19.35,0,0,1,5.91-8.41,28.7,28.7,0,0,1,7.13-2.18c4,0,7.22,2.07,10.81,4.14a86.3,86.3,0,0,1-.38-15.4,62.11,62.11,0,0,1,3.06-13.26c.57-.27.57-.82.63-1.34,2-4.11,6.55-6.81,6.43-12Q61.05,76.69,62.69,70c.31-1,.6-2.1.94-3.15,2.62-8.1,4.5-16.57,11.35-22.55l3.82-2.65A132.08,132.08,0,0,1,92.16,34.6l8.75-3.33c2.16-.39,1.49-1.39.49-2.4A52,52,0,0,0,92.18,21l-2.46-2.27c5.28-2,10.59-2.08,15.79-2.77h17.67c-3.54-4.14-7.94-6.65-12.12-9.8,2.71-1.13,5.3-.48,7.76-.92l13.35.49Z" transform="translate(-19.9 0)"/>
  </g>
  <path class="cls-4" d="M131.12,129.87l-.77.6a3.39,3.39,0,0,0,.72.46c.1,0,.43-.2.41-.26a4.28,4.28,0,0,0-.36-.8Zm74.08,31c3.63,1.7,6.15,1,9.22-2.49-3.18,1.23-5.81,2.32-9.22,2.49ZM87.66,158.48c2.85,3.21,5.73,3.18,8.84,2.23l-8.84-2.23Zm72.78,45.64.45-.69c-5.56-2.37-9.8-5.81-10.33-12.36-.16,4.78-.61,9-6.62,9.39l16.5,3.66Zm-30.51,38.35c3.58.75,6.4-1.12,10-1l-7.62,7.06c3.5.47,5.42-1.53,7.69-2.51,1.09-.47,2.35-1.7,3.27-.51,1.09,1.39-1.17,1.86-1.57,3.18a7.17,7.17,0,0,0,1.72-.19c6.65-2.64,13.3-5.27,20.63-5.68-.09-1-1.7-1.39-1.22-2.94,3.65,1.3,7,3.34,11.24,3.46-1.62-1.94-3.38-3.45-3.73-6a26.14,26.14,0,0,0,8.06.58c-1.79-1-3.38-1.5-4.4-2.55-4.78-4.86-10.39-4.33-16.23-2.82-.42.11-.88.11-1.31.2-9.21,1.84-18.09,4.53-26.56,9.78Zm33.44-117.24c-4.34,4.06-5.61,9.46-6.57,15-.14.8.58,2-.5,2.33s-1.68-.89-2.13-1.7a20.63,20.63,0,0,1-1.89-4.21c-.69-2.32-1.14-4.71-1.8-7.54-3.27,11.45-3.27,11.45-5.67,12.61-.43-8.2-2.49-13.39-6.13-14.88,1.86,4.14,3.61,8.15.88,12.74-2.4-3.19-4.09-6.56-8-8.7.74,2.65,2.85,3.77,3.32,5.8-1.86,4.52-3.5,5.19-8.08,3a59.23,59.23,0,0,1-8.41-4.65,28,28,0,0,0-10.23-4.57c-2.79-.63-5.66-2.08-8.62-.45-4.69-1.44-9.38-2.71-14.8.43,3.76.41,6.75.63,9.72,2-1.06.92-1.91,1.6-2.71,2.33-3.38,3.08-3.76,5.45-1.39,9.37,2,3.36,5.16,5.44,8.64,7a9.6,9.6,0,0,1,3.69,2.2H96.37c.25.3.36.54.52.59,10,2.71,19.9,3.09,29.7-.74,2.18-.86,3.81-1,4.48,2.16-5.78-1.16-7.83,2.6-9.46,6.87A64.4,64.4,0,0,0,119,173.11c-2.57-.31-2.94-3.35-5.34-3.81,1.32,5.54,4.92,8.67,9.76,10.61a22.08,22.08,0,0,1,7.92,4.75c.46-2-.71-3-1.78-3.85a60.55,60.55,0,0,0-6.12-4.58c-2.47-1.58-3.12-3.5-2.08-6.22,1.22-3.17,3.26-5.76,5.28-8.42a4.19,4.19,0,0,1,5-1.51c12.93,3.92,25.9,4.71,38.91.38a3.51,3.51,0,0,1,4.15,1.17,33.36,33.36,0,0,1,5.44,8.32c1.24,3,.75,5.19-2.26,7-3.19,1.91-6.41,4-7.93,7.88,3.73-3.33,8.8-4,12.73-6.86a12.5,12.5,0,0,0,5.36-9.24c-2,1.78-2.71,4.68-5.73,5.07a29.89,29.89,0,0,0-3.49-13.89c-1.35-2.69-3.39-4.32-6.53-4.32-.55,0-1.4.55-1.51-.57a1.68,1.68,0,0,1,1-1.57,2.89,2.89,0,0,1,2.85.06,38,38,0,0,0,11.9,2.86,46,46,0,0,0,17.18-1.77c-1.56-1.11-3.17.15-4.24-1.59,3.94-1.6,7.78-3.28,10.56-6.59,3.93-4.67,3.68-8.08-.94-11.9-.58-.48-1.14-1-1.85-1.58,3-1.56,6.16-1.73,9.92-1.78a13.84,13.84,0,0,0-8.38-2.58c-.11-1-.84-1.16-1.66-1.19-7.08-.33-13.81.8-20,4.57-4.68,2.89-9.21,6.1-14.53,7.77-3.68,1.14-4.84.37-5.39-3.27l3-4.76c-3.67,1.84-5.84,4.93-7.89,8.18-1.52-1.27-1.68-2.88-1.68-4.56,0-3.55,1.53-6.61,3.08-9.66.05-.26.23-.68.13-.75-.32-.26-.49,0-.57.33Zm-3.81,46.15c-5.74,1.67-11.48,2.55-17.2-.1-2.11-2.11-4-4.43-6.56-6.09-2.07-1.35-4.16-2.23-6.4-.39-2.7,2.22-4,6-2.87,8.54a.75.75,0,0,0,1.18.37,9.24,9.24,0,0,1,1.73-4.83,2.81,2.81,0,0,1,3.61-.73c1.7.7.14,1.69-.17,2.35-.67,1.4,1.21,3.94-1.91,4.32-.22,0,.51,1.06,1,1.47,2.17,2,5,2.23,7.66,3,2.29.64,4.48,1.38,5.25,4a4.79,4.79,0,0,0,4.47,4.08c3.14.33,5.92-.24,7.38-3.52.84-2.3,2.67-3.31,4.91-4,2.41-.7,5-.85,7.17-2.4.59-.43,1.84-1.06,1.29-1.6-2-2-.26-5-2.32-6.86,2-.86,3.56-1.1,4.86.76,1,1.43,1.06,3.19,1.77,4.87,1.94-2.88,1.41-5.48-1.39-8.68-2-2.29-4.11-2.09-6.48-.66-2.7,1.62-4.68,4-7,6.1Zm35,39.5c-1.38-.15-2.76-.61-4.17,0,15.5,7.58,21.29,12.49,21.62,18.56l-3.19-1.7a67.67,67.67,0,0,0-12.1-4.42c-.53-1.31-1.88-1.41-2.91-1.92-20-9.71-41.4-13.28-63.49-13.35-7.33,0-14.64.25-21.67,2.63A12.65,12.65,0,0,0,100,224.35a18.64,18.64,0,0,0,2.6,7.81c.82,1.35.65,2.07-.64,2.91a24.36,24.36,0,0,0-6.48,6.24c1.64.16,2.66-.61,3.74-1.07,10.91-4.6,21.88-9,33.4-11.93,18.22-4.6,36.54-8.25,55.51-6.05,1.67,2,4.31,1.8,6.42,2.84,2.67,1.32,5.44,2.34,6.91,5.32,1.23,2.5.5,3.91-1.91,4.93s-4.81.64-7.22.64c-1.74,0-2.16.51-1.53,2.14a26.45,26.45,0,0,1,1.64,8.42c.26,6.17-1,13.3-8.29,17.55-1.16.67-2.84.78-3.35,2.39a29.47,29.47,0,0,1-13.45-.94c-4.11-1.44-9.06-.93-12.12-5.46-.25,1.22-.38,1.83-.57,2.77l-4.11-4.94c-1.36,2-2.27,4.19-4.29,5.94-.08-1.3-.13-2.34-.2-3.45-1.33.08-1.69,1.31-2.27,2.07-3.63,4.74-9.72,5.4-14.25,8.64-.4.29-1.27-.06-1.93-.12a30.35,30.35,0,0,1-8.34-11.6c-1.51-3.92-2-8.09-3.08-12.1l2.76-2c1.67-.37,1.82-1.81,2.41-3-1.41-.52-2.38.27-3.41.53-6.52,1.67-13,3.71-19.79,3.88-4.81.12-6.78-1.68-6.64-6.45.34-11.23,4.3-21.37,9.69-31a24.53,24.53,0,0,1,2.71-3.35c3-3.65,7.4-5.41,11-8.21.45-.27,1.23-.12,1.22-1-.32-2.22-2.26-3.57-2.85-5.81-1.08-4.08.53-7.81.86-12.23-2.52,2.32-4.4,1.74-6.22-.36a5.33,5.33,0,0,0-2.65-1.32c-4-1-8.09-2.12-12.19-2.94-5.24-1-10.35-2.35-14.68-5.68-5.15-4-4.62-10.21,1.09-13l2.29,3.7c1-3.32-.63-5.74-1.67-8.27.36-2.8-.69-5.19-2.2-7.42a8.37,8.37,0,0,1-1.65-6.24,48.69,48.69,0,0,1,2.83-10.85c2.64-6.17,5.89-11.62,13.69-12.2,2-.16,4,1.44,6,0,1.77,0,3.16,1.62,5.22,1.18-.6-1.55-2.38-1.76-3.41-3.16,4.13-.56,7.87.51,12.23.69-2.34-2.07-.7-4.57-2.16-6.81,3.27.25,5.34,2,7.54,3.34s4.27,3,6.42,4.57c.74-1.6-.29-2.91-.69-4.33l.49-.69a57.08,57.08,0,0,1,17.22,10.51c.31-2.47.31-2.47-.48-6,4.13,1.92,6.82,5.49,9.83,9.16a52.27,52.27,0,0,1,8.8-9c.92,2.47-.52,4.21-.17,6.46,5.58-4.51,11.26-8.55,18.67-11.06-1.07,2.26-1.84,3.91-3,6.41,5.37-3.26,9.33-7.44,14.89-8.86,0,1.58.34,3-.07,4.16-.94,2.65-.48,3,2.25,2.31s5.81-.58,9-.84c-1,1.57-3,1.57-3.33,3.3,1.45,1.76,2.46.7,3.44-.54l1.24-.33c.93,1.34,2.16.58,3.3.47,4.57-.42,8.71.28,12.06,3.87a27.25,27.25,0,0,1,5.1,8.86c2.5,6.32,3.83,12.69-.41,19a7.1,7.1,0,0,0-1.28,4.71c-1,2.44-2.66,4.75-1.59,8l2.18-3.45c.91.81,1.89,1.55,2.71,2.43,3.28,3.46,3.27,6.33,0,9.83A20.66,20.66,0,0,1,214.6,174c-8,2.12-16.52,2.74-23.8,7.32-.09-.28-.17-.57-.26-.85-.07.07-.22.18-.22.19.16.22.33.43.5.64-.06,4,2,7.79,1.21,11.7-.7,3.63.54,6.45,2,9.56,1.15,2.52,2.77,5.39.57,8.3Z" transform="translate(-19.9 0)"/>
  <path class="cls-5" d="M139.55,27.34c-5-.76-9.8-2.51-14.89-2.92a144.81,144.81,0,0,0-16.76-.19,98,98,0,0,1,7,8.84c1.34,2.07,1.64,3-1.34,3.91A145.33,145.33,0,0,0,81.88,50.64a12.66,12.66,0,0,0-6,7.18,78.18,78.18,0,0,0-4,17.45c-.52,4.86-2.24,7.91-7.63,8.09C65.8,73.49,68,63.6,71.93,54.21a15.62,15.62,0,0,1,6.81-7.1,134.07,134.07,0,0,1,28.91-12.46c.51-.16,1-.37,1.88-.68a45.94,45.94,0,0,0-11-12.49c11.06-1.7,21.57-2.11,32.41-.09-2-4.19-4.7-7.52-7.27-11,9.62-1.88,23.21,1.49,41.83,10.39-.25-4.53-1.91-8.41-3.52-12.53,1.85-.3,3.41.56,5,1.05,22,7,41.33,18,56.1,36.28,8.11,10,11.61,21.76,13.73,34.1.24,1.38,1,2.75.53,4.22-3.46-.16-4.15-2.3-4.79-5.33C228.87,61.32,219.84,47.35,206,36.43A124.64,124.64,0,0,0,170.26,17a19.84,19.84,0,0,0-2-.49c.74,4.39,1.44,8.5,2.26,13.37-11-8.93-23.4-12.44-36.77-14.74,2.25,4.3,5.18,7.75,5.73,12.27l.08-.06Z" transform="translate(-19.9 0)"/>
  <path class="cls-6" d="M49.49,171.28c2.68,1.48,2.3,2.56.46,4.28-6.1,5.71-13.49,16.79-15.68,23h3.47a62,62,0,0,0-3.06,24.07c.66,8,3,15.54,5.53,23.08-7.56-11.34-12.44-23.42-10.76-37.35.2-1.65.52-3.28.87-4.91.52-2.41.55-2.4-2.3-2.41,4.49-9.46,8.41-19.1,15.83-26.79-1.44-.75-2.89-.16-4.9-.49,5.06-5.62,9.67-11.26,16-14.89,3.65-2.08,5.3-6.07,3.86-10.66-4.6-14.72-6.31-29.77-3-45,3.45-16,13.4-22.59,29.67-20.48a88,88,0,0,1,18.63,4.73,1.8,1.8,0,0,1,1.14,1.16c-3.37-.26-6.74-.58-10.11-.75A58,58,0,0,0,77.6,89.28c-11.67,3-17.41,10-18,22-.5,11,1.41,21.65,3.65,32.3,2.72,12.86-.63,20.31-12.2,26.74-.38.21-.76.45-1.6.95Z" transform="translate(-19.9 0)"/>
  <path class="cls-7" d="M58.83,212.17a1.54,1.54,0,0,0,.26-1.93c-.08.61-.14,1.06-.26,1.93Zm9-25.88c-.68,1.39-1.44,2.74-2,4.17-.27.7-1.74,1.34-.56,2.16.8.56,1.6-.32,2.27-.9a20.37,20.37,0,0,1,6.93-3.88l-5.08,12.07c4.19-2.68,6.65-6.79,11.45-8C78.63,196,76.55,199.7,75.61,204c4.15-3,7.6-6.92,12.48-8.76l.6.4c-6.78,10-12,20.7-13.44,32.9-.36,3-.36,6.08-.56,9.74a39.18,39.18,0,0,1-4.27-11.53c-1.31,4.71-.61,9.17-1,14.09-3.63-5-4-10.71-5.56-16.14-1.27,2.87-.64,5.85-1.72,9.29-2.34-7.34-2.87-14.26-3.76-21.35-1,4.12-2,8.24-3.16,13.26-1.08-5.93-.71-11-1.1-16.13-.53-1.22-1.22,2.81-1.86,0-1.83-8.24,4.1-23.53,11.1-28.3.13-.09.4,0,.84.08-.54,2.76-2,5.06-3.16,7.72,2.67,0,3.77-3.2,6.33-3.37l.44.43Z" transform="translate(-19.9 0)"/>
  <path class="cls-7" d="M244,183.3c3.72,6.41,6.26,13.16,6,20.72a25.86,25.86,0,0,1-.22,2.64c0,.29-.32.54-.62,1-.51-1.5-.95-2.81-1.4-4.12a140.78,140.78,0,0,1-.59,19c-2-5.4-2.09-10.52-4.38-15.66.36,8.07-.27,15.35-3.09,22.49q-.61-4.45-1.22-8.91c-1.37,5.66-2.07,11.54-5.6,17.19-.53-4.77.13-9.07-1-13.85-1.26,4-2.08,7.5-4.5,11.53.51-16.69-5.25-30.4-13.79-43.31a31.67,31.67,0,0,1,13.25,10.21c-.33-5.16-3.35-8.71-4.86-12.8.14-.13.27-.26.4-.4,3.65,1.3,6.17,4.09,9,7.05.49-4.31-2.4-7.34-3.35-11.26a18.57,18.57,0,0,1,9.44,6.7c0-3.67-2.2-5.93-3.23-8.78,2.52-.09,3.82,1.9,5.78,3.21.69-3.42-2.25-5.64-2.39-8.7,2.77,1.43,4.05,4.33,6.41,6.06l0,0Z" transform="translate(-19.9 0)"/>
  <path class="cls-8" d="M191.28,90.45c11.22-4.43,22-8.22,33.86-7.25,8.78.72,14.9,5.13,18.41,13.17,4.07,9.32,4.44,19.17,3.71,29.07-.62,8.29-1.79,16.5-4.69,24.4-1.38,3.76,1.2,7,2.5,10.84.35-1.36.67-2.24,2.06-1.29,5.9,4,10.67,9.18,15.47,14.72-1.72.46-3.2-.35-4.58.68,7.26,7.68,11.18,17.27,15.73,26.73-2.9-.08-2.92-.07-2.32,2.43,3,12.4.23,23.93-5.35,35a1.33,1.33,0,0,1-1.43.94c.93-4.21,2.33-8.27,2.94-12.52a59.11,59.11,0,0,0-1.54-25.68c-.93-3.16-.91-3.16,2.84-3.24-4.23-8.38-9.06-16.14-15.67-22.62-1.8-1.77-2.64-3,0-4.68-4.62-2.43-8.64-5.17-11.59-9.18-3.73-5.06-5.16-10.27-3.11-16.76,4-12.81,5.69-26,3.09-39.38-1.74-8.91-7.23-14.21-15.84-16.44-10.29-2.67-20.48-1.16-30.62,1a6.61,6.61,0,0,1-3.87.07Z" transform="translate(-19.9 0)"/>
  <path class="cls-5" d="M32.34,144.67c2.39-3.82,8.83-5.66,12.37-3.94a2.92,2.92,0,0,1,1.48,1.62c.16.69-.81.9-1.36,1.24-4.8,3-7.11,7.24-6.73,13.9,1-2.34,1.59-3.84,2.32-5.27a12.6,12.6,0,0,1,4.26-5c3.18-2.06,4.23-1.73,5.63,1.72.17.41.38.81.52,1.23,2.06,6.08,1.91,6.52-3.06,10.58-3.09,2.53-6.13,5.12-9.43,7.87-5.43-10.18-10.5-20.39-8.23-32.4,1.89-10,11.21-13.31,19.19-7.07a3.38,3.38,0,0,1,1.25,2.22c1.35,6.95,2.64,13.91,5.18,20.57.31.83,1,1.86-.5,2.83-.57-1.92-1.08-3.74-1.65-5.54a22.76,22.76,0,0,0-8.33-11.74c-2.82-2.1-6-3.79-9.52-1.82-3.3,1.83-3.45,5.15-3.39,9Z" transform="translate(-19.9 0)"/>
  <path class="cls-6" d="M263.93,158.41c0-6.77-1.86-11.51-7.09-14.37-2.43-1.33-1-2.19.23-2.87,3.49-1.89,10,.05,11.89,3.43.74-3.58,0-6.53-2.23-8.09-2.72-1.92-5.5-1.33-8.15.14-5.88,3.26-9.13,8.53-11,14.8-.35,1.16-.6,2.35-.94,3.7-2-1.34-.76-3-.3-4.09a58.32,58.32,0,0,0,4.15-16.36c.57-4.87,3.58-6.38,7.38-7.61a9.44,9.44,0,0,1,10.34,2.55c2.81,2.85,3.74,6.46,3.94,10.31.54,10.28-3.39,19.24-8.18,28.11-4.43-3.32-8.87-6.4-13-9.84-2.44-2-1-4.86,0-7,1.32-3,7.3-3.1,9.29-.42,1.52,2.05,2.13,4.54,3.71,7.63Z" transform="translate(-19.9 0)"/>
  <path class="cls-9" d="M79.5,155.34c-5.71,2.81-6.24,9.06-1.09,13,4.33,3.33,9.44,4.63,14.68,5.68,4.1.82,8.15,1.89,12.19,2.94a5.33,5.33,0,0,1,2.65,1.32c1.82,2.1,3.7,2.68,6.22.36-.33,4.42-1.94,8.15-.86,12.23.59,2.24,2.53,3.59,2.85,5.81A21.37,21.37,0,0,0,105,198.5c-.62-4.14,1.1-7.73,1.93-11.72-2.08.77-2.34,2.94-4,4-3.51-7.48-10.23-10.32-17.68-12.1-3.89-.92-7.73-1.95-10.92-4.59-7.14-5.92-4.52-16.43,1.74-21,2.2-1.61,2.41,1.28,3.42,2.26Z" transform="translate(-19.9 0)"/>
  <path class="cls-10" d="M194.57,210.88c2.2-2.91.58-5.78-.57-8.3-1.43-3.11-2.67-5.93-2-9.56.75-3.91-1.27-7.74-1.21-11.7l0,0c7.28-4.58,15.77-5.2,23.8-7.32a20.66,20.66,0,0,0,10.27-5.75c3.25-3.5,3.26-6.37,0-9.83-.82-.88-1.8-1.62-2.71-2.43,2.32-3.83,2.38-3.84,5.33-1,7,6.77,5.4,17.26-3.3,21.65a38.63,38.63,0,0,1-8.52,2.72c-7.13,1.74-13.39,4.72-16.86,11.92-1.61-1.11-1.95-3.1-4.42-4.4,2.25,5,1.21,10.18,3.19,14.05s4.16,7.74,6.09,11.69c.17.34.31.7.67,1.54l-9.75-3.31Z" transform="translate(-19.9 0)"/>
  <path class="cls-9" d="M180.77,266.49c.51-1.61,2.19-1.72,3.35-2.39,7.29-4.25,8.55-11.38,8.29-17.55a26.45,26.45,0,0,0-1.64-8.42c-.63-1.63-.21-2.14,1.53-2.14,2.41,0,4.86.36,7.22-.64s3.14-2.43,1.91-4.93c-1.47-3-4.24-4-6.91-5.32-2.11-1-4.75-.85-6.42-2.84l8.63,1a67.67,67.67,0,0,1,12.1,4.42c-1.73,1,0,1.81.29,2.5,1,2.2,2.55,4.28,1,6.8s-4.24,2.49-6.78,2.35c-2.18-.12-4.35-.47-6.53-.72-.1-.13-.19-.27-.29-.41,0,.08-.11.16-.16.25l.47.14c2.09,3.77,5.83,5,10.07,6.5-6,10.47-13.6,18.86-26.12,21.36Z" transform="translate(-19.9 0)"/>
  <path class="cls-10" d="M114.92,197.67c-3.63,2.8-8,4.56-11,8.21a24.53,24.53,0,0,0-2.71,3.35c-5.39,9.66-9.35,19.8-9.69,31-.14,4.77,1.83,6.57,6.64,6.45,6.81-.17,13.27-2.21,19.79-3.88,1-.26,2-1.05,3.41-.53-.59,1.24-.74,2.68-2.41,3-4.5.17-8.07,2.77-12,4.53a46.46,46.46,0,0,1-6.34,2.88c-5.4,1.55-9.2-.27-11-5.56s-1.29-10.71-.22-16.08a67.89,67.89,0,0,1,9.31-23.3c3.76-5.91,9-9.66,16.2-10.15Z" transform="translate(-19.9 0)"/>
  <path class="cls-10" d="M98.83,114.06c-2,1.44-4-.16-6,0-7.8.58-11.05,6-13.69,12.2a48.69,48.69,0,0,0-2.83,10.85,8.37,8.37,0,0,0,1.65,6.24c1.51,2.23,2.56,4.62,2.2,7.42-2.74-3.16-5.52-6.27-8.19-9.48a11.3,11.3,0,0,1-2.24-10,33,33,0,0,1,8.16-15.67c3.14-3.45,6.92-5,11.56-4.27,3.24.53,6.52,1,9.42,2.7Z" transform="translate(-19.9 0)"/>
  <path class="cls-9" d="M221.55,151.46a7.1,7.1,0,0,1,1.28-4.71c4.24-6.29,2.91-12.66.41-19a27.25,27.25,0,0,0-5.1-8.86c-3.35-3.59-7.49-4.29-12.06-3.87-1.14.11-2.37.87-3.3-.47a25.28,25.28,0,0,1,14.35-2.65c2.22.21,3.89,1.5,5.43,2.93A31.37,31.37,0,0,1,232,131.61a12,12,0,0,1-2.68,10.84c-2.6,3-5.18,6-7.77,9Z" transform="translate(-19.9 0)"/>
  <path class="cls-10" d="M116.16,247.3c1.12,4,1.57,8.18,3.08,12.1a30.35,30.35,0,0,0,8.34,11.6c-6.35-.22-10.57-4-14.17-8.64-6.18-8.07-6.08-8.59,1.93-14.5.27-.2.55-.37.82-.56Z" transform="translate(-19.9 0)"/>
  <path class="cls-11" d="M244.05,183.32c1.52-1.42-.43-2-.82-2.79a18,18,0,0,0-2.38-3.09c4.3,1,7.47,5.5,7.89,11.51-1.2-1.93-2.11-3.49-3.12-5-.33-.49-.52-1.76-1.59-.67l0,0Z" transform="translate(-19.9 0)"/>
  <path class="cls-12" d="M61.46,180.06c-2.46,3.65-4.36,6.45-6.24,9.27-.34.5-.75.9-1.33.63s-.46-.66-.24-1.12c1.59-3.37,3.28-6.64,7.81-8.78Z" transform="translate(-19.9 0)"/>
  <path class="cls-9" d="M201.54,114.9c-1,1.24-2,2.3-3.44.54,1.2.17,2.19-1,3.44-.54Z" transform="translate(-19.9 0)"/>
  <path class="cls-12" d="M271.47,124.67l-.58,1L268.78,124c1.25-1.3,2-.45,2.69.63Z" transform="translate(-19.9 0)"/>
  <path class="cls-12" d="M271.16,125.89c.39-.08.92-.35,1.14-.19.43.31.16.73-.23,1l-.91-.81Z" transform="translate(-19.9 0)"/>
  <path class="cls-7" d="M222,189.44c-.3-.09-.58-.25-.33-.59,0-.07.47.12.73.19-.13.14-.26.27-.4.4Z" transform="translate(-19.9 0)"/>
  <path class="cls-7" d="M220.54,267.6l.21.18s0-.08,0-.09l-.22-.07,0,0Z" transform="translate(-19.9 0)"/>
  <path class="cls-7" d="M67.38,185.86c.12-.34.36-.54.67-.3.07.05-.15.47-.23.73l-.44-.43Z" transform="translate(-19.9 0)"/>
  <path class="cls-12" d="M256.74,247.93l.29-.44c.07.08.21.18.19.21a2.56,2.56,0,0,1-.27.45l-.21-.22Z" transform="translate(-19.9 0)"/>
  <path class="cls-4" d="M124,109.54c-.32-.14-.6-.39-.35-.7.12-.13.56,0,.84,0l-.49.69Z" transform="translate(-19.9 0)"/>
  <path class="cls-7" d="M88.09,195.24l.57-.37,0,.77-.6-.4Z" transform="translate(-19.9 0)"/>
  <path class="cls-7" d="M78.84,284.63a3.13,3.13,0,0,1,.25.48s-.16.12-.25.18v-.66Z" transform="translate(-19.9 0)"/>
  <path class="cls-13" d="M181.31,149.63c4.23,2.45,8.55,2.17,12.63,1.43a10.73,10.73,0,0,0,8.37-6.88,5.92,5.92,0,0,0-1.24-6.77c-2-2-3.26.67-4.85,1.25a9.66,9.66,0,0,0-1.42.82c-.91.51-1.34,1.13-.61,2.13,1.1,1.5.49,2.78-.71,3.78a2.85,2.85,0,0,1-3.93,0c-1.2-1.07-2.07-.75-3.19.09a26.25,26.25,0,0,0-5.05,4.17Zm-60.28-.3c-1.85-1.45-3.37-2.54-4.77-3.76s-2.75-2.12-4.53-.36a2.21,2.21,0,0,1-3.3-.2c-.85-.95-2.06-2-1.1-3.49s.26-2.11-1-2.76a18.46,18.46,0,0,1-2.47-1.67c-1.91-1.44-3.16-.82-4.2,1.15-1.81,3.45-.25,7.88,3.84,10.45,5.44,3.43,11.1,2.87,17.49.64Zm13.82-12.65c-.47-2-2.58-3.15-3.32-5.8,3.94,2.14,5.63,5.51,8,8.7,2.73-4.59,1-8.6-.88-12.74,3.64,1.49,5.7,6.68,6.13,14.88,2.4-1.16,2.4-1.16,5.67-12.61.66,2.83,1.11,5.22,1.8,7.54a20.63,20.63,0,0,0,1.89,4.21c.45.81,1,2,2.13,1.7s.36-1.53.5-2.33c1-5.54,2.23-10.94,6.57-15,.14.15.29.29.44.43-1.55,3-3.07,6.1-3.08,9.65,0,1.68.16,3.29,1.68,4.56,2.05-3.25,4.22-6.34,7.89-8.18l-3,4.76a17.06,17.06,0,0,0-1.46,2.16c-1.39,2.95-2.14,6,.36,8.69s5.3,1.61,8.07.69c3.32-1.1,6-3.24,8.8-5.28,8-5.85,15.94-11.68,25.77-14.14a13.84,13.84,0,0,1,8.38,2.58c-3.76,0-6.87.22-9.92,1.78.71.61,1.27,1.1,1.85,1.58,4.62,3.82,4.87,7.23.94,11.9-2.78,3.31-6.62,5-10.56,6.59,1.07,1.74,2.68.48,4.24,1.59a46,46,0,0,1-17.18,1.77,38,38,0,0,1-11.9-2.86,2.89,2.89,0,0,0-2.85-.06,1.68,1.68,0,0,0-1,1.57c.11,1.12,1,.57,1.51.57,3.14,0,5.18,1.63,6.53,4.32a29.89,29.89,0,0,1,3.49,13.89c3-.39,3.7-3.29,5.73-5.07a12.5,12.5,0,0,1-5.36,9.24c-3.93,2.86-9,3.53-12.73,6.86,1.52-3.9,4.74-6,7.93-7.88,3-1.8,3.5-4,2.26-7a33.36,33.36,0,0,0-5.44-8.32,3.51,3.51,0,0,0-4.15-1.17c-13,4.33-26,3.54-38.91-.38a4.19,4.19,0,0,0-5,1.51c-2,2.66-4.06,5.25-5.28,8.42-1,2.72-.39,4.64,2.08,6.22a60.55,60.55,0,0,1,6.12,4.58c1.07.89,2.24,1.89,1.78,3.85a22.08,22.08,0,0,0-7.92-4.75c-4.84-1.94-8.44-5.07-9.76-10.61,2.4.46,2.77,3.5,5.34,3.81a64.4,64.4,0,0,1,2.59-10.85c1.63-4.27,3.68-8,9.46-6.87-.67-3.17-2.3-3-4.48-2.16-9.8,3.83-19.73,3.45-29.7.74-.16-.05-.27-.29-.52-.59h6.29a9.6,9.6,0,0,0-3.69-2.2c-3.48-1.59-6.61-3.67-8.64-7-2.37-3.92-2-6.29,1.39-9.37.8-.73,1.65-1.41,2.71-2.33-3-1.42-6-1.64-9.72-2,5.42-3.14,10.11-1.87,14.8-.43a190.17,190.17,0,0,1,23.22,15.18,17.41,17.41,0,0,0,7.27,3.09c4.66.84,7.55-1.8,7-6.52a8,8,0,0,0-2.16-5Z" transform="translate(-19.9 0)"/>
  <path class="cls-14" d="M167.48,216.28a9.09,9.09,0,0,0-6.37-3.42c-3.65-.44-7.31-.93-10.82.74a1.46,1.46,0,0,0-1.15-1.47c-4.36-.69-8.78-1.52-13.17-.6a4.83,4.83,0,0,1-3-.22c-3.3-1.19-7-1.82-10,0a8.31,8.31,0,0,1-8,.84,5,5,0,0,0-5.75,1.35,5.89,5.89,0,0,0-1.5,6.4,19.28,19.28,0,0,0,3.57,5.93c1.25,1.47,2.19,2,3.48.05,1.18-1.76,2.59-3.37,3.91-5.06,4,4.82,12.42,2.44,16.48-4.56,3.2,4.95,11.74,4.78,15-.29,1.24.56,1.87,2,3.47,2.13,4.77.34,9.56,1,13.87-2,2,1.45,4.07,2.67,7.16.71-2.79-.31-4.77-2.4-7.16-.56Zm29.25,7-8.63-1c-19-2.2-37.29,1.45-55.51,6.05-11.52,2.9-22.49,7.33-33.4,11.93-1.08.46-2.1,1.23-3.74,1.07a24.36,24.36,0,0,1,6.48-6.24c1.29-.84,1.46-1.56.64-2.91a18.64,18.64,0,0,1-2.6-7.81,12.65,12.65,0,0,1,8.69-13.69c7-2.38,14.34-2.65,21.67-2.63,22.09.07,43.44,3.64,63.49,13.35,1,.51,2.38.61,2.91,1.92Z" transform="translate(-19.9 0)"/>
  <path class="cls-13" d="M129.93,242.47c8.47-5.25,17.35-7.94,26.56-9.78.43-.09.89-.09,1.31-.2,5.84-1.51,11.45-2,16.23,2.82,1,1.05,2.61,1.54,4.4,2.55a26.14,26.14,0,0,1-8.06-.58c.35,2.58,2.11,4.09,3.73,6-4.26-.12-7.59-2.16-11.24-3.46-.48,1.55,1.13,2,1.22,2.94-7.33.41-14,3-20.63,5.68a7.17,7.17,0,0,1-1.72.19c.4-1.32,2.66-1.79,1.57-3.18-.92-1.19-2.18,0-3.27.51-2.27,1-4.19,3-7.69,2.51l7.62-7.06c-3.63-.09-6.45,1.78-10,1Z" transform="translate(-19.9 0)"/>
  <path class="cls-9" d="M208.84,128.57C199,131,191,136.86,183.07,142.71c-2.77,2-5.48,4.18-8.8,5.28-2.77.92-5.69,1.87-8.07-.69s-1.75-5.74-.36-8.69a17.06,17.06,0,0,1,1.46-2.16c.55,3.64,1.71,4.41,5.39,3.27,5.32-1.67,9.85-4.88,14.53-7.77,6.15-3.77,12.88-4.9,20-4.57.82,0,1.55.17,1.66,1.19Z" transform="translate(-19.9 0)"/>
  <path class="cls-10" d="M134.85,136.68a8,8,0,0,1,2.16,5c.54,4.72-2.35,7.36-7,6.52a17.41,17.41,0,0,1-7.27-3.09A190.17,190.17,0,0,0,99.51,130c3-1.63,5.83-.18,8.62.45A28,28,0,0,1,118.36,135a59.23,59.23,0,0,0,8.41,4.65c4.58,2.23,6.22,1.56,8.08-3Z" transform="translate(-19.9 0)"/>
  <path class="cls-9" d="M156.71,183.82c-1.46,3.28-4.24,3.85-7.38,3.52a4.79,4.79,0,0,1-4.47-4.08c1.67-4.52-.76-8.18-2.5-12,5.72,2.65,11.46,1.77,17.2.1-1.82,3.94-4.29,7.74-2.85,12.44Z" transform="translate(-19.9 0)"/>
  <path class="cls-14" d="M142.36,171.28c1.74,3.8,4.17,7.46,2.5,12-.77-2.62-3-3.36-5.25-4-2.65-.74-5.49-1-7.66-3-.47-.41-1.2-1.44-1-1.47,3.12-.38,1.24-2.92,1.91-4.32.31-.66,1.87-1.65.17-2.35a2.81,2.81,0,0,0-3.61.73,9.24,9.24,0,0,0-1.73,4.83.75.75,0,0,1-1.18-.37c-1.12-2.49.17-6.32,2.87-8.54,2.24-1.84,4.33-1,6.4.39,2.54,1.66,4.45,4,6.56,6.09Z" transform="translate(-19.9 0)"/>
  <path class="cls-14" d="M156.71,183.82c-1.44-4.7,1-8.5,2.85-12.44,2.28-2.08,4.26-4.48,7-6.1,2.37-1.43,4.47-1.63,6.48.66,2.8,3.2,3.33,5.8,1.39,8.68-.71-1.68-.79-3.44-1.77-4.87-1.3-1.86-2.89-1.62-4.86-.76,2.06,1.88.3,4.86,2.32,6.86.55.54-.7,1.17-1.29,1.6-2.13,1.55-4.76,1.7-7.17,2.4-2.24.66-4.07,1.67-4.91,4Z" transform="translate(-19.9 0)"/>
  <path class="cls-14" d="M160.44,204.12l-16.5-3.66c6-.35,6.46-4.61,6.62-9.39.53,6.55,4.77,10,10.33,12.36l-.45.69Z" transform="translate(-19.9 0)"/>
  <path class="cls-14" d="M87.66,158.48l8.84,2.23c-3.11.95-6,1-8.84-2.23Z" transform="translate(-19.9 0)"/>
  <path class="cls-14" d="M205.2,160.87c3.41-.17,6-1.26,9.22-2.49-3.07,3.5-5.59,4.19-9.22,2.49Z" transform="translate(-19.9 0)"/>
  <path class="cls-10" d="M190.82,181.32c-.17-.21-.34-.42-.5-.64,0,0,.15-.12.22-.19.09.28.17.57.26.85l0,0Z" transform="translate(-19.9 0)"/>
  <path class="cls-13" d="M131.12,129.87a4.28,4.28,0,0,1,.36.8c0,.06-.31.29-.41.26a3.39,3.39,0,0,1-.72-.46l.77-.6Z" transform="translate(-19.9 0)"/>
  <path class="cls-13" d="M163.37,125.23c.08-.3.25-.59.57-.33.1.07-.08.49-.13.76-.15-.14-.3-.28-.44-.43Z" transform="translate(-19.9 0)"/>
  <path class="cls-3" d="M58.83,212.17c.12-.87.18-1.32.26-1.93a1.54,1.54,0,0,1-.26,1.93Z" transform="translate(-19.9 0)"/>
  <path class="cls-3" d="M196.82,238.63l-.47-.14c.05-.09.11-.17.16-.25.1.14.19.28.29.41l0,0Z" transform="translate(-19.9 0)"/>
  <path class="cls-7" d="M51,94.2c0,.08.09.21.06.23a.79.79,0,0,1-.27.1c0-.08-.08-.22-.06-.24A1.07,1.07,0,0,1,51,94.2Z" transform="translate(-19.9 0)"/>
  <path class="cls-15" d="M121,149.33c-6.39,2.23-12,2.79-17.49-.64-4.09-2.57-5.65-7-3.84-10.45,1-2,2.29-2.59,4.2-1.15a18.46,18.46,0,0,0,2.47,1.67c1.22.65,1.94,1.27,1,2.76s.25,2.54,1.1,3.49a2.21,2.21,0,0,0,3.3.2c1.78-1.76,3.07-.93,4.53.36s2.92,2.31,4.77,3.76Z" transform="translate(-19.9 0)"/>
  <path class="cls-15" d="M181.31,149.63a26.25,26.25,0,0,1,5.05-4.17c1.12-.84,2-1.16,3.19-.09a2.85,2.85,0,0,0,3.93,0c1.2-1,1.81-2.28.71-3.78-.73-1-.3-1.62.61-2.13a9.66,9.66,0,0,1,1.42-.82c1.59-.58,2.85-3.22,4.85-1.25a5.92,5.92,0,0,1,1.24,6.77,10.73,10.73,0,0,1-8.37,6.88c-4.08.74-8.4,1-12.63-1.43Z" transform="translate(-19.9 0)"/>
  <path class="cls-7" d="M150.14,216c-3.22,5.07-11.76,5.24-15,.29-4.06,7-12.43,9.38-16.48,4.56-1.32,1.69-2.73,3.3-3.91,5.06-1.29,1.92-2.23,1.42-3.48-.05a19.28,19.28,0,0,1-3.57-5.93,5.89,5.89,0,0,1,1.5-6.4,5,5,0,0,1,5.75-1.35,8.31,8.31,0,0,0,8-.84c2.94-1.81,6.66-1.18,10,0a4.83,4.83,0,0,0,3,.22c4.39-.92,8.81-.09,13.17.6a1.46,1.46,0,0,1,1.15,1.47l-.15,2.36Z" transform="translate(-19.9 0)"/>
  <path class="cls-16" d="M150.14,216l.15-2.36c3.51-1.67,7.17-1.18,10.82-.74a9.12,9.12,0,0,1,6.37,3.41v-.14c-4.31,2.92-9.1,2.3-13.87,2-1.6-.12-2.23-1.57-3.47-2.13Z" transform="translate(-19.9 0)"/>
  <path class="cls-11" d="M167.48,216.13v.14c2.39-1.83,4.37.26,7.16.57-3.09,2-5.14.74-7.16-.71Z" transform="translate(-19.9 0)"/>
</svg>
