<?xml version="1.0" encoding="utf-8"?>
<!-- Generator: Adobe Illustrator 24.0.0, SVG Export Plug-In . SVG Version: 6.00 Build 0)  -->
<svg version="1.1" id="Layer_1" xmlns="http://www.w3.org/2000/svg" xmlns:xlink="http://www.w3.org/1999/xlink" x="0px" y="0px"
	 viewBox="0 0 400 400" style="enable-background:new 0 0 400 400;" xml:space="preserve">
<style type="text/css">
	.st0{clip-path:url(#SVGID_2_);fill-rule:evenodd;clip-rule:evenodd;fill:#080808;}
	.st1{fill-rule:evenodd;clip-rule:evenodd;fill:#C3BDB7;}
	.st2{fill-rule:evenodd;clip-rule:evenodd;fill:#FBFCFC;}
	.st3{fill-rule:evenodd;clip-rule:evenodd;fill:#F6F6F6;}
	.st4{fill-rule:evenodd;clip-rule:evenodd;fill:#F6F7F8;}
	.st5{fill-rule:evenodd;clip-rule:evenodd;fill:#F7F8F8;}
	.st6{fill-rule:evenodd;clip-rule:evenodd;fill:#F5F5F5;}
	.st7{fill-rule:evenodd;clip-rule:evenodd;fill:#C2BDB6;}
	.st8{fill-rule:evenodd;clip-rule:evenodd;fill:#E8E8E8;}
	.st9{fill-rule:evenodd;clip-rule:evenodd;fill:#ECECEB;}
	.st10{fill-rule:evenodd;clip-rule:evenodd;fill:#0E0D0D;}
	.st11{fill-rule:evenodd;clip-rule:evenodd;fill:#101010;}
	.st12{fill-rule:evenodd;clip-rule:evenodd;fill:#080808;}
	.st13{fill-rule:evenodd;clip-rule:evenodd;fill:#BD242C;}
	.st14{fill-rule:evenodd;clip-rule:evenodd;fill:#EFEFEF;}
	.st15{fill-rule:evenodd;clip-rule:evenodd;fill:#FFFFFF;}
</style>
<g>
	<defs>
		<polygon id="SVGID_1_" points="103.44,57.36 103.44,269.92 290.72,269.92 290.72,57.36 103.44,57.36 		"/>
	</defs>
	<clipPath id="SVGID_2_">
		<use xlink:href="#SVGID_1_"  style="overflow:visible;"/>
	</clipPath>
	<path class="st0" d="M162.02,78.83c-0.03,0.06-0.1,0.12-0.08,0.16c0.09,0.23,0.21,0.24,0.31,0.01c0.02-0.04-0.03-0.13-0.07-0.16
		C162.15,78.81,162.07,78.83,162.02,78.83L162.02,78.83z M132.97,185.29c-3.21,1.52-4.42,3.85-5.55,6.24
		c-0.16,0.33-0.14,0.67,0.17,0.8c0.42,0.19,0.71-0.09,0.94-0.45C129.87,189.87,131.23,187.88,132.97,185.29L132.97,185.29z
		 M276.83,169.91c-1.12-2.2-1.55-3.96-2.63-5.42c-1.42-1.91-5.67-1.86-6.6,0.3c-0.66,1.53-1.7,3.54,0.03,4.98
		c2.94,2.45,6.09,4.63,9.24,6.99c3.4-6.3,6.2-12.67,5.81-19.97c-0.14-2.74-0.8-5.31-2.8-7.33c-2.06-2.09-4.51-2.73-7.35-1.81
		c-2.7,0.88-4.84,1.95-5.24,5.41c-0.46,3.95-1.34,7.9-2.95,11.63c-0.32,0.75-1.2,1.95,0.22,2.9c0.24-0.96,0.42-1.8,0.67-2.63
		c1.32-4.46,3.63-8.2,7.81-10.52c1.88-1.04,3.85-1.46,5.78-0.1c1.57,1.11,2.11,3.2,1.59,5.74c-1.34-2.4-5.97-3.78-8.45-2.44
		c-0.89,0.48-1.89,1.1-0.16,2.04C275.51,161.73,276.86,165.1,276.83,169.91L276.83,169.91z M112.29,160.15
		c-0.04-2.74,0.07-5.1,2.4-6.4c2.52-1.4,4.77-0.2,6.77,1.29c2.86,2.12,4.85,4.92,5.92,8.34c0.4,1.28,0.77,2.57,1.17,3.94
		c1.05-0.69,0.58-1.42,0.35-2.01c-1.8-4.73-2.72-9.67-3.68-14.61c-0.12-0.6-0.3-1.13-0.88-1.58c-5.67-4.43-12.29-2.08-13.63,5.02
		c-1.61,8.54,1.98,15.79,5.85,23.02c2.34-1.95,4.5-3.79,6.7-5.59c3.53-2.88,3.64-3.2,2.17-7.52c-0.1-0.3-0.25-0.58-0.37-0.87
		c-1-2.45-1.74-2.68-4-1.22c-1.36,0.88-2.3,2.15-3.03,3.56c-0.52,1.01-0.93,2.08-1.65,3.74c-0.27-4.73,1.37-7.75,4.78-9.88
		c0.39-0.24,1.08-0.39,0.97-0.88c-0.11-0.45-0.6-0.94-1.05-1.16C118.56,156.13,113.98,157.43,112.29,160.15L112.29,160.15z
		 M225.21,121.62c1.22,0.37,1.97,0.11,2.74-0.05c7.21-1.51,14.45-2.59,21.76-0.69c6.12,1.59,10.02,5.35,11.25,11.68
		c1.85,9.53,0.68,18.88-2.19,27.98c-1.46,4.61-0.44,8.32,2.21,11.91c2.1,2.84,4.95,4.79,8.24,6.52c-1.88,1.21-1.28,2.06,0,3.32
		c4.7,4.61,8.12,10.12,11.13,16.07c-2.67,0.05-2.68,0.06-2.01,2.3c1.77,6,1.99,12.08,1.09,18.25c-0.44,3.02-1.43,5.9-2.09,8.89
		c0.66,0.04,0.84-0.32,1.01-0.66c3.96-7.88,5.94-16.07,3.81-24.89c-0.43-1.77-0.42-1.78,1.65-1.72
		c-3.23-6.72-6.02-13.53-11.18-18.99c0.98-0.73,2.03-0.15,3.25-0.48c-3.41-3.94-6.8-7.6-10.99-10.46c-0.99-0.68-1.22-0.05-1.47,0.92
		c-0.92-2.71-2.75-5.03-1.77-7.7c2.06-5.62,2.89-11.45,3.33-17.34c0.52-7.04,0.26-14.03-2.63-20.65c-2.49-5.71-6.85-8.85-13.08-9.36
		C240.86,115.78,233.19,118.48,225.21,121.62L225.21,121.62z M124.47,179.06c0.6-0.36,0.86-0.53,1.13-0.68
		c8.22-4.57,10.6-9.86,8.67-19c-1.6-7.56-2.95-15.16-2.59-22.95c0.39-8.54,4.47-13.49,12.76-15.63c4.1-1.06,8.26-1.17,12.44-0.96
		c2.4,0.12,4.79,0.35,7.18,0.53c-0.18-0.49-0.48-0.71-0.81-0.83c-4.3-1.55-8.69-2.77-13.24-3.36c-11.57-1.5-18.63,3.2-21.08,14.56
		c-2.33,10.79-1.12,21.48,2.15,31.94c1.02,3.26-0.15,6.1-2.74,7.58c-4.5,2.58-7.78,6.58-11.37,10.58c1.43,0.24,2.46-0.19,3.48,0.35
		c-5.27,5.47-8.06,12.31-11.24,19.04c2.02,0,2,0,1.64,1.71c-0.25,1.15-0.48,2.32-0.62,3.49c-1.19,9.9,2.27,18.48,7.64,26.54
		c-1.77-5.36-3.46-10.72-3.93-16.39c-0.47-5.81,0.37-11.42,2.17-17.1c-0.94,0-1.68,0-2.47,0c1.56-4.43,6.8-12.3,11.14-16.36
		C126.1,180.87,126.37,180.1,124.47,179.06L124.47,179.06z M188.45,76.79c0.02,0.1,0.04,0.2,0.05,0.3c0.06-0.03,0.12-0.05,0.17-0.08
		c-0.09-0.06-0.19-0.12-0.28-0.18c-0.39-3.21-2.48-5.66-4.07-8.72c9.5,1.63,18.31,4.13,26.12,10.47c-0.58-3.46-1.08-6.38-1.6-9.5
		c0.56,0.13,1.01,0.19,1.43,0.34c9.19,3.28,17.71,7.75,25.39,13.81c9.83,7.76,16.26,17.69,18.85,29.95c0.45,2.16,0.95,3.68,3.4,3.79
		c0.31-1.05-0.21-2.02-0.38-3c-1.51-8.77-3.99-17.09-9.76-24.23c-10.49-12.99-24.21-20.84-39.86-25.78
		c-1.12-0.35-2.22-0.97-3.54-0.75c1.14,2.92,2.32,5.68,2.5,8.9c-13.23-6.33-22.88-8.72-29.72-7.39c1.82,2.47,3.74,4.83,5.17,7.81
		c-7.7-1.44-15.17-1.15-23.03,0.06c3.32,2.62,5.75,5.49,7.82,8.88c-0.61,0.22-0.97,0.37-1.34,0.48c-7.18,2.18-14.05,5.06-20.53,8.86
		c-2.12,1.24-3.92,2.86-4.84,5.04c-2.81,6.67-4.36,13.7-5.45,20.71c3.83-0.13,5.05-2.3,5.42-5.75c0.45-4.21,1.45-8.36,2.86-12.4
		c0.79-2.26,2.11-3.88,4.24-5.1c7.13-4.1,14.6-7.4,22.48-9.71c2.12-0.62,1.9-1.31,0.95-2.78c-1.37-2.1-3.03-3.97-4.94-6.28
		c4.26-0.14,8.07-0.17,11.91,0.13C181.5,75,184.9,76.24,188.45,76.79L188.45,76.79z M151.9,196.08c-3.47,1.3-5.92,4.08-8.87,6.23
		c0.67-3.06,2.14-5.68,3.7-8.59c-3.41,0.86-5.16,3.78-8.14,5.68c1.32-3.14,2.4-5.69,3.61-8.58c-2.04,0.72-3.57,1.58-4.93,2.76
		c-0.48,0.42-1.04,1.04-1.61,0.65c-0.84-0.59,0.2-1.04,0.4-1.54c0.4-1.02,0.94-1.98,1.43-2.97c0.06-0.18,0.21-0.48,0.17-0.52
		c-0.22-0.17-0.39-0.03-0.48,0.21c-1.82,0.12-2.6,2.37-4.5,2.39c0.8-1.89,1.86-3.52,2.25-5.49c-0.31-0.03-0.5-0.12-0.59-0.06
		c-4.98,3.39-9.19,14.25-7.89,20.11c0.45,2.03,0.94-0.83,1.32,0.03c0.28,3.62,0.01,7.25,0.78,11.46c0.85-3.57,1.55-6.5,2.25-9.42
		c0.63,5.04,1.01,9.95,2.67,15.17c0.77-2.45,0.32-4.57,1.22-6.61c1.14,3.86,1.37,7.89,3.95,11.47c0.27-3.5-0.23-6.67,0.7-10.02
		c0.7,2.89,1.43,5.49,3.03,8.19c0.14-2.6,0.15-4.77,0.4-6.92c1.02-8.67,4.73-16.25,9.55-23.38c-0.01-0.18-0.01-0.36-0.02-0.54
		C152.17,195.9,152.03,195.99,151.9,196.08L151.9,196.08z M262.71,187.61c-1.68-1.23-2.59-3.29-4.56-4.3
		c0.1,2.17,2.19,3.75,1.7,6.18c-1.39-0.93-2.31-2.34-4.1-2.28c0.73,2.02,2.31,3.63,2.29,6.24c-1.9-2.47-3.97-3.85-6.71-4.76
		c0.68,2.78,2.73,4.93,2.38,8c-2-2.1-3.78-4.09-6.38-5c-0.18-0.05-0.48-0.19-0.52-0.14c-0.18,0.24,0.02,0.35,0.24,0.42
		c1.07,2.91,3.21,5.42,3.45,9.09c-2.73-3.44-5.73-5.76-9.41-7.26c6.07,9.18,10.16,18.91,9.8,30.77c1.72-2.86,2.31-5.38,3.2-8.19
		c0.83,3.4,0.36,6.45,0.74,9.84c2.51-4.02,3-8.19,3.97-12.21c0.29,2.11,0.58,4.22,0.87,6.33c2.01-5.07,2.46-10.25,2.2-15.98
		c1.63,3.65,1.68,7.29,3.11,11.13c0.51-4.89,0.53-9.18,0.42-13.49c0.31,0.93,0.63,1.86,0.99,2.93c0.22-0.34,0.41-0.52,0.44-0.72
		c0.09-0.62,0.14-1.25,0.15-1.88c0.15-5.37-1.65-10.17-4.29-14.72c0.76-0.78,0.9,0.13,1.13,0.47c0.72,1.06,1.36,2.16,2.21,3.54
		c-0.3-4.27-2.55-7.48-5.6-8.18c0.62,0.77,1.31,1.41,1.69,2.19C262.4,186.22,263.79,186.6,262.71,187.61L262.71,187.61z
		 M229.13,226.92c1.55,0.18,3.09,0.42,4.64,0.51c1.81,0.1,3.68,0.18,4.82-1.67c1.1-1.79,0.01-3.27-0.71-4.83
		c-0.23-0.5-1.43-1.06-0.21-1.78c0.73,0.39,1.46,0.78,2.27,1.21c-0.24-4.32-4.35-7.81-15.36-13.19c1-0.42,1.98-0.1,2.96,0.02
		c2.19,0.74,4.39,1.49,6.93,2.35c-0.26-0.6-0.36-0.85-0.48-1.1c-1.38-2.81-2.92-5.55-4.33-8.3c-1.41-2.75-0.67-6.43-2.27-9.99
		c1.76,0.93,2,2.34,3.14,3.13c2.47-5.11,6.91-7.24,11.98-8.47c2.06-0.5,4.14-0.96,6.06-1.93c6.18-3.12,7.32-10.58,2.34-15.38
		c-2.09-2.02-2.13-2.02-3.79,0.71c-0.47,0.75-0.95,1.49-1.55,2.45c-0.76-2.31,0.42-3.95,1.13-5.68c1.84-2.13,3.67-4.27,5.52-6.4
		c1.94-2.25,2.52-4.88,1.91-7.7c-1.01-4.64-3.2-8.66-6.71-11.91c-1.1-1.02-2.28-1.93-3.86-2.08c-3.58-0.34-6.99,0.22-10.19,1.89
		c-0.29,0.08-0.59,0.16-0.88,0.23c-0.88-0.32-1.59,0.5-2.44,0.38c0.21-1.23,1.66-1.23,2.37-2.34c-2.3,0.19-4.43,0.11-6.43,0.6
		c-1.93,0.47-2.26,0.24-1.59-1.64c0.29-0.82,0.05-1.83,0.05-2.96c-3.95,1.01-6.77,3.98-10.58,6.3c0.84-1.78,1.39-2.95,2.14-4.55
		c-5.26,1.78-9.3,4.66-13.26,7.86c-0.25-1.6,0.78-2.84,0.12-4.59c-2.45,1.95-4.46,4.11-6.25,6.4c-2.14-2.61-4.04-5.15-6.98-6.51
		c0.56,2.47,0.56,2.47,0.34,4.23c-3.7-3.16-7.69-5.78-12.23-7.47c-0.21-0.01-0.52-0.1-0.6-0.01c-0.18,0.22,0.02,0.39,0.24,0.5
		c0.28,1,1.02,1.94,0.49,3.08c-1.52-1.1-2.98-2.27-4.56-3.25c-1.56-0.96-3.03-2.19-5.35-2.37c1.04,1.59-0.13,3.36,1.53,4.84
		c-3.1-0.13-5.76-0.89-8.69-0.49c0.73,0.99,2,1.14,2.42,2.24c-1.46,0.32-2.45-0.86-3.71-0.84c-2.06-1.24-4.39-1.54-6.7-1.92
		c-3.3-0.54-5.98,0.58-8.22,3.03c-2.92,3.21-4.9,6.9-5.79,11.13c-0.54,2.58-0.14,5.03,1.59,7.1c1.9,2.28,3.87,4.49,5.82,6.73
		c0.74,1.8,1.91,3.52,1.19,5.88c-0.61-0.99-1.12-1.81-1.62-2.63c-0.72-0.7-0.87-2.75-2.43-1.61c-4.45,3.28-6.31,10.75-1.24,14.95
		c2.26,1.88,5,2.61,7.76,3.26c5.29,1.26,10.07,3.28,12.56,8.6c1.18-0.78,1.37-2.33,2.85-2.87c-0.59,2.83-1.82,5.38-1.37,8.33
		c2.57-1.18,5.19-1.53,7.9-1.28c0,0.6-0.54,0.5-0.86,0.68c-5.12,0.35-8.84,3.02-11.51,7.22c-3.24,5.09-5.43,10.63-6.61,16.55
		c-0.76,3.82-1.12,7.66,0.16,11.43c1.27,3.76,3.97,5.05,7.81,3.95c1.61-0.46,3-1.36,4.5-2.05c2.76-1.25,5.3-3.1,8.49-3.22
		c-0.65,0.46-1.3,0.92-1.96,1.39c-0.19,0.13-0.39,0.25-0.58,0.39c-5.7,4.2-5.76,4.57-1.37,10.3c2.55,3.33,5.56,5.99,10.07,6.14
		c0.47,0.04,1.08,0.29,1.37,0.08c3.22-2.3,7.54-2.77,10.12-6.14c0.41-0.54,0.67-1.41,1.61-1.47c0.04,0.79,0.09,1.53,0.14,2.46
		c1.44-1.25,2.08-2.79,3.05-4.22c0.96,1.15,1.89,2.26,2.92,3.51c0.13-0.66,0.22-1.1,0.4-1.97c2.18,3.22,5.7,2.86,8.61,3.88
		c3.04,1.06,6.32,1.08,9.56,0.67c8.89-1.78,14.26-7.74,18.56-15.18c-3.01-1.07-5.67-1.94-7.16-4.62L229.13,226.92L229.13,226.92z
		 M183.22,61.44c3.15,0.51,6.3,1.02,9.45,1.53c2.79,0.85,5.58,1.69,8.62,2.62c-0.74-2.42-1.59-4.47-2.93-6.3
		c-0.27-0.59-0.55-1.18-0.82-1.75c1.64-0.53,3.09,0.3,4.6,0.29c6.44,1.69,12.75,3.76,18.88,6.38c3.15,1.7,6.3,3.41,9.45,5.11
		l-0.01-0.01c3.03,2.24,6.07,4.48,9.1,6.72c1.03,0.91,2.06,1.83,3.1,2.74c2.28,2.5,4.57,5,6.85,7.51c0.59,0.81,1.18,1.61,1.77,2.42
		c2.04,3.12,3.71,6.44,5.18,9.86c0.59,2.1,1.11,4.21,2.05,6.19c0.19,0.79,0.38,1.57,0.57,2.36c0.78,3.16,1.57,6.32,2.35,9.48
		c0.16,1.31,0.08,2.84,0.97,3.78c2.82,2.99,4.33,6.62,5.61,10.41c0.22,1.57,0.45,3.15,0.67,4.72c0.31,3.76,0.19,7.51-0.36,11.73
		c3.14-2.14,6.19-3.21,9.61-2.7c0.79,0.32,1.58,0.63,2.37,0.94c0.5,0.37,1,0.75,1.5,1.12c0.03,0.1,0.09,0.16,0.2,0.19
		c0.22,0.19,0.43,0.38,0.65,0.58c3.5,4.73,4.27,10.02,3.14,15.68c-0.7,3.55-2.13,6.89-3.13,10.35c-3.13,5.89-3.13,5.89,0.63,9.81
		c0.05,0.05,0.13,0.08,0.2,0.12c-0.09,0.29-0.18,0.58-0.28,0.87c-1.26-0.57-2.61-0.56-4.09-0.75c0.56,1.32,1.2,2.35,2.04,3.25
		c2.81,4.98,5.63,9.96,8.04,15.16c0.43,2.34,1.91,4.49,1.49,7.28c-1.21-0.73-2.2-1.32-3.19-1.91c-0.54-0.39-0.92-1.41-1.65-1.02
		c-0.82,0.44-0.01,1.22,0.06,1.86c0.08,0.7,0.07,1.42,0.11,2.13c0.21,3.73-0.5,7.37-0.96,11.04c-1.1,3-2.2,6-3.3,9
		c-1.27,2.05-2.53,4.11-3.8,6.16c-0.91,1.11-1.83,2.21-2.74,3.32c-1.28,1.02-2.18,2.49-3.79,3.38c0-1.26,0-2.31,0-3.36
		c0.52-1.99,0.46-4.03,0.48-6.06c0.07-0.11,0.15-0.21,0.19-0.32c0.01-0.03-0.09-0.1-0.14-0.15c-0.07,0.1-0.14,0.21-0.21,0.31
		c-0.48-0.07-0.68,0.31-0.94,0.58c-6.82,7.15-13.88,14.03-21.35,20.49c-1.3,0.66-2.21,1.94-3.9,2.46c0.08-1.31,0.15-2.44,0.23-3.58
		c0.14-1.98,0.92-3.94,0.22-5.95c0.05,0.02,0.11,0.03,0.15,0.05c0.01,0.01,0.01,0.04,0.02,0.06c-0.05-0.05-0.1-0.09-0.15-0.13
		c-1.68,2.29-4.16,3.77-5.99,5.91c-2.07,1.74-4.15,3.47-6.22,5.21c-1.07,0.81-2.15,1.63-3.22,2.44c-3.06,1.88-6.11,3.76-9.17,5.65
		c0.01-0.32,0.01-0.64,0.02-0.97c0.11-0.1,0.18-0.23,0.2-0.38c1.28-1.36,2.27-2.88,3.01-5.18c-1.55,0.86-2.56,1.43-3.56,1.99
		c-4.72,2.27-9.43,4.57-14.4,6.25c-0.34,0.12-1.43,1.44-1.64-0.29c0.66-0.93,1.07-1.95,1.27-3.2c-1.51,0.15-2.83,0.28-4.15,0.41
		c-4.52,0.48-9.05,0.64-13.58,0.38c-1.75-0.1-1.79,0.46-1.21,1.83c0.28,0.66,0.78,1.37,0.48,2.38c-1.53-0.56-3.03-1.11-4.53-1.66
		c-0.5-0.21-1.01-0.42-1.51-0.63c-2.69-1.42-5.37-2.85-8.05-4.27c-1.17-0.98-2.45-1.77-4.17-2.46c0.47,2.14,0.87,3.98,1.32,5.99
		c-2.6-0.85-4.41-2.54-6.57-3.59c-2.01-1.58-4.02-3.15-6.04-4.73c-0.9-0.81-1.79-1.61-2.69-2.42c-2.98-3-5.96-6.01-9.19-9.25
		c0.32,3.51,0.56,6.55,0.91,9.58c0.21,1.79-0.66,1.02-1.4,0.69c-3.25-2.78-6.51-5.56-9.76-8.33c-3.06-2.9-6.11-5.8-9.17-8.71
		c-0.17-0.46-0.51-0.76-0.95-0.96c-1.5-1.64-3-3.27-4.75-5.19c-0.2,2.26,0.28,3.98,0.5,5.73c-0.24,0.58,0.38,1.29-0.23,1.93
		c-0.82-0.69-1.57-1.32-2.32-1.94c-2.62-2.96-5.03-6.09-7.1-9.47c-3.15-5.93-4.71-12.28-5.06-18.95c0.14-1.71,0.28-3.41,0.45-5.45
		c-1.5,1.02-2.56,1.92-4.06,1.98c-0.14-2.18,0.85-4.02,1.16-5.99c2.62-5.91,5.81-11.52,9.58-16.96c-1.1-0.29-1.93-0.5-2.76-0.74
		c-0.83-0.24-0.51-0.76-0.28-1.25c3.11-3.44,3.11-3.45,0.97-7.53c-0.36-0.69-0.74-1.37-1.11-2.05c-1.01-2.49-2.03-4.99-3.04-7.48
		c-0.05-0.66-0.05-1.33-0.51-1.88c-0.5-3.14-0.59-6.3-0.54-9.47c0.24-1.14,0.47-2.28,0.71-3.43c0.9-2.35,2.23-4.39,4.2-5.98
		c1.63-0.71,3.3-1.28,5.07-1.55c2.81,0.02,5.13,1.47,7.68,2.94c-0.37-3.87-0.56-7.4-0.27-10.94c0.34-3.23,1.15-6.35,2.17-9.42
		c0.41-0.19,0.4-0.58,0.45-0.95c1.39-2.92,4.65-4.84,4.57-8.55c0.78-3.16,1.56-6.32,2.34-9.48c0.22-0.75,0.43-1.5,0.66-2.24
		c1.86-5.76,3.2-11.78,8.06-16.02c0.91-0.63,1.81-1.25,2.72-1.88c3.05-1.88,6.24-3.51,9.49-5.03c2.07-0.79,4.14-1.58,6.22-2.37
		c1.53-0.28,1.06-0.99,0.35-1.7c-2.03-2.05-4.1-4.05-6.56-5.59c-0.5-0.47-1.01-0.94-1.74-1.61c3.74-1.43,7.52-1.47,11.21-1.96
		c4.07,0,8.13,0,12.56,0c-2.52-2.94-5.64-4.72-8.61-6.96c1.93-0.8,3.77-0.34,5.52-0.65C176.89,61.21,180.05,61.32,183.22,61.44
		L183.22,61.44z"/>
</g>
<path class="st1" d="M221.41,266.69c-0.09,0.11-0.2,0.19-0.33,0.24c-0.27-0.51-0.16-0.92,0.35-1.21
	C221.42,266.05,221.41,266.37,221.41,266.69L221.41,266.69z"/>
<path class="st2" d="M182.47,149.63c-0.23,0.18-0.39,0.3-0.55,0.42c0.17,0.12,0.33,0.26,0.51,0.33c0.07,0.03,0.31-0.14,0.3-0.18
	C182.69,150.03,182.59,149.88,182.47,149.63L182.47,149.63z M235.1,171.65c2.58,1.21,4.36,0.72,6.55-1.77
	C239.4,170.76,237.52,171.54,235.1,171.65L235.1,171.65z M151.59,169.96c2.02,2.29,4.07,2.26,6.28,1.59
	C155.94,171.06,154.02,170.57,151.59,169.96L151.59,169.96z M203.3,202.39c0.11-0.16,0.21-0.33,0.32-0.49
	c-3.95-1.68-6.96-4.12-7.34-8.78c-0.11,3.4-0.43,6.43-4.7,6.67C195.49,200.65,199.4,201.52,203.3,202.39L203.3,202.39z
	 M181.62,229.63c2.54,0.53,4.54-0.79,7.13-0.73c-1.91,1.77-3.53,3.28-5.41,5.02c2.48,0.33,3.85-1.08,5.46-1.79
	c0.77-0.33,1.67-1.2,2.32-0.36c0.77,0.99-0.83,1.32-1.12,2.26c0.47-0.04,0.88,0,1.22-0.13c4.73-1.88,9.45-3.75,14.66-4.04
	c-0.07-0.69-1.21-0.98-0.87-2.09c2.6,0.92,4.96,2.37,7.99,2.46c-1.15-1.38-2.4-2.45-2.66-4.29c1.91,0.38,3.63,0.63,5.73,0.41
	c-1.27-0.72-2.4-1.07-3.13-1.81c-3.4-3.45-7.39-3.08-11.53-2.01c-0.3,0.08-0.63,0.08-0.93,0.14
	C193.95,223.99,187.64,225.91,181.62,229.63L181.62,229.63z M205.38,146.34c-3.08,2.88-3.98,6.72-4.67,10.66
	c-0.1,0.57,0.41,1.43-0.35,1.66c-0.82,0.25-1.19-0.63-1.51-1.21c-0.53-0.95-1.04-1.95-1.35-2.99c-0.49-1.65-0.81-3.35-1.28-5.36
	c-2.32,8.13-2.32,8.13-4.03,8.96c-0.3-5.83-1.77-9.51-4.35-10.57c1.32,2.94,2.57,5.79,0.62,9.05c-1.7-2.27-2.91-4.66-5.71-6.18
	c0.53,1.88,2.03,2.68,2.36,4.12c-1.33,3.21-2.49,3.69-5.74,2.11c-2.05-0.99-4.13-2-5.98-3.31c-2.24-1.58-4.66-2.67-7.27-3.25
	c-1.98-0.44-4.03-1.48-6.13-0.32c-3.33-1.03-6.67-1.92-10.52,0.31c2.67,0.29,4.8,0.45,6.91,1.46c-0.76,0.65-1.36,1.14-1.93,1.66
	c-2.4,2.18-2.67,3.87-0.99,6.65c1.44,2.38,3.67,3.86,6.14,5c0.87,0.4,1.81,0.66,2.62,1.56c-1.59,0-2.98,0-4.47,0
	c0.18,0.21,0.26,0.38,0.37,0.42c7.09,1.93,14.14,2.2,21.1-0.53c1.55-0.61,2.71-0.71,3.18,1.54c-4.11-0.82-5.57,1.85-6.72,4.88
	c-0.95,2.49-1.35,5.13-1.84,7.71c-1.83-0.22-2.09-2.38-3.79-2.71c0.94,3.94,3.5,6.16,6.93,7.54c2.02,0.81,3.99,1.7,5.63,3.37
	c0.33-1.39-0.5-2.11-1.26-2.74c-1.39-1.15-2.82-2.29-4.34-3.26c-1.76-1.12-2.22-2.48-1.48-4.42c0.86-2.25,2.31-4.1,3.75-5.98
	c0.97-1.27,2.16-1.5,3.56-1.07c9.19,2.78,18.41,3.34,27.65,0.27c1.24-0.41,2.2-0.08,2.95,0.83c1.5,1.82,2.94,3.7,3.86,5.91
	c0.88,2.13,0.53,3.69-1.6,4.97c-2.27,1.36-4.56,2.83-5.64,5.6c2.65-2.37,6.26-2.84,9.05-4.88c2.16-1.58,3.5-3.66,3.81-6.56
	c-1.44,1.26-1.93,3.32-4.07,3.6c0.03-3.59-0.94-6.8-2.48-9.86c-0.96-1.91-2.41-3.07-4.64-3.07c-0.39,0-1,0.39-1.07-0.4
	c-0.05-0.53,0.3-0.86,0.73-1.12c0.69-0.42,1.36-0.26,2.02,0.04c2.69,1.21,5.55,1.75,8.45,2.03c4.06,0.4,8.02-0.08,12.21-1.26
	c-1.11-0.79-2.25,0.11-3.01-1.13c2.8-1.14,5.53-2.33,7.5-4.68c2.79-3.31,2.62-5.74-0.67-8.45c-0.41-0.34-0.81-0.69-1.32-1.12
	c2.16-1.11,4.38-1.23,7.05-1.27c-2.08-1.53-4-1.75-5.95-1.83c-0.07-0.73-0.59-0.82-1.18-0.85c-5.03-0.23-9.81,0.57-14.18,3.25
	c-3.33,2.05-6.55,4.33-10.33,5.51c-2.61,0.82-3.43,0.26-3.83-2.32c0.71-1.13,1.42-2.25,2.13-3.38c-2.61,1.3-4.15,3.5-5.6,5.81
	c-1.09-0.9-1.2-2.05-1.2-3.24c0-2.52,1.08-4.69,2.19-6.86c0.04-0.19,0.16-0.48,0.09-0.54C205.56,145.92,205.44,146.12,205.38,146.34
	L205.38,146.34z M202.67,179.12c-4.08,1.19-8.15,1.81-12.22-0.07c-1.5-1.5-2.86-3.15-4.67-4.33c-1.47-0.96-2.95-1.58-4.54-0.28
	c-1.92,1.58-2.84,4.3-2.04,6.07c0.12,0.27,0.37,0.51,0.84,0.26c0.12-1.19,0.43-2.39,1.22-3.43c0.72-0.93,1.71-0.88,2.57-0.52
	c1.21,0.5,0.1,1.2-0.13,1.67c-0.47,0.99,0.86,2.8-1.35,3.07c-0.16,0.02,0.37,0.75,0.7,1.04c1.54,1.38,3.56,1.58,5.44,2.11
	c1.62,0.46,3.18,0.98,3.73,2.84c0.38,1.71,1.44,2.72,3.17,2.9c2.23,0.23,4.21-0.17,5.24-2.5c0.6-1.64,1.9-2.35,3.49-2.82
	c1.72-0.5,3.58-0.6,5.09-1.71c0.42-0.31,1.31-0.76,0.92-1.14c-1.44-1.42-0.19-3.54-1.65-4.87c1.4-0.61,2.53-0.79,3.45,0.54
	c0.7,1.01,0.76,2.26,1.26,3.45c1.38-2.04,1-3.89-0.99-6.16c-1.43-1.63-2.92-1.49-4.61-0.47C205.7,175.94,204.3,177.65,202.67,179.12
	L202.67,179.12z M227.55,207.19c-0.98-0.11-1.96-0.44-2.96-0.02c11.01,5.38,15.13,8.87,15.36,13.19c-0.81-0.43-1.54-0.82-2.27-1.21
	c-2.79-1.24-5.6-2.45-8.6-3.14c-0.37-0.93-1.33-1.01-2.07-1.36c-14.24-6.91-29.42-9.44-45.11-9.49c-5.21-0.02-10.41,0.17-15.4,1.87
	c-4.24,1.44-6.63,5.29-6.17,9.72c0.21,2,0.82,3.86,1.85,5.55c0.58,0.96,0.46,1.47-0.45,2.07c-1.75,1.14-3.25,2.57-4.61,4.43
	c1.16,0.11,1.89-0.43,2.66-0.76c7.75-3.27,15.54-6.41,23.73-8.48c12.95-3.26,25.97-5.86,39.44-4.3c1.19,1.42,3.07,1.28,4.56,2.02
	c1.9,0.94,3.87,1.67,4.91,3.78c0.88,1.78,0.36,2.78-1.36,3.51c-1.68,0.71-3.42,0.46-5.13,0.45c-1.24,0-1.54,0.36-1.09,1.52
	c0.74,1.92,1.08,3.95,1.17,5.98c0.18,4.38-0.71,9.45-5.89,12.46c-0.82,0.47-2.01,0.56-2.38,1.7c-3.23,0.41-6.51,0.39-9.56-0.67
	c-2.92-1.02-6.43-0.66-8.61-3.88c-0.18,0.87-0.26,1.3-0.4,1.97c-1.04-1.25-1.97-2.36-2.92-3.51c-0.97,1.44-1.61,2.98-3.05,4.22
	c-0.05-0.92-0.09-1.66-0.14-2.46c-0.94,0.06-1.2,0.93-1.61,1.47c-2.58,3.37-6.91,3.84-10.12,6.14c-0.29,0.21-0.91-0.05-1.37-0.08
	c-2.57-2.32-4.66-4.96-5.92-8.24c-1.08-2.79-1.4-5.75-2.19-8.6c0.65-0.46,1.3-0.92,1.96-1.39c1.19-0.26,1.29-1.29,1.72-2.17
	c-1-0.37-1.69,0.2-2.42,0.38c-4.64,1.18-9.22,2.63-14.06,2.76c-3.42,0.09-4.82-1.2-4.72-4.59c0.24-7.98,3.05-15.18,6.89-22.05
	c0.49-0.88,1.28-1.59,1.93-2.38c2.13-2.6,5.26-3.85,7.84-5.84c0.32-0.19,0.87-0.09,0.86-0.68c-0.23-1.58-1.61-2.54-2.03-4.13
	c-0.76-2.9,0.38-5.55,0.61-8.69c-1.79,1.65-3.12,1.24-4.42-0.26c-0.43-0.49-1.21-0.77-1.88-0.94c-2.88-0.75-5.75-1.51-8.66-2.09
	c-3.72-0.74-7.35-1.67-10.43-4.03c-3.66-2.82-3.28-7.26,0.77-9.25c0.5,0.82,1.01,1.63,1.62,2.63c0.72-2.36-0.44-4.08-1.19-5.88
	c0.26-1.99-0.48-3.69-1.56-5.27c-0.92-1.35-1.45-2.8-1.17-4.43c0.45-2.62,0.96-5.25,2.01-7.7c1.87-4.38,4.18-8.26,9.73-8.67
	c1.45-0.11,2.88,1.02,4.29,0c1.26-0.02,2.24,1.15,3.71,0.84c-0.42-1.1-1.69-1.25-2.42-2.24c2.94-0.4,5.59,0.36,8.69,0.49
	c-1.66-1.47-0.5-3.25-1.53-4.84c2.32,0.18,3.8,1.41,5.35,2.37c1.58,0.98,3.04,2.15,4.56,3.25c0.53-1.14-0.21-2.07-0.49-3.08
	c0.12-0.16,0.24-0.33,0.35-0.49c4.54,1.69,8.53,4.31,12.23,7.47c0.22-1.76,0.22-1.76-0.34-4.23c2.93,1.37,4.84,3.9,6.98,6.51
	c1.79-2.29,3.8-4.46,6.25-6.4c0.66,1.75-0.37,2.99-0.12,4.59c3.96-3.2,8-6.08,13.26-7.86c-0.75,1.6-1.31,2.78-2.14,4.55
	c3.81-2.32,6.63-5.29,10.58-6.3c0,1.12,0.24,2.13-0.05,2.96c-0.67,1.88-0.34,2.12,1.59,1.64c1.99-0.49,4.13-0.41,6.43-0.6
	c-0.71,1.12-2.16,1.12-2.37,2.34c1.03,1.26,1.75,0.5,2.44-0.38c0.29-0.08,0.59-0.16,0.88-0.23c0.66,0.95,1.54,0.41,2.34,0.33
	c3.25-0.3,6.19,0.19,8.57,2.75c1.71,1.84,2.73,4.05,3.62,6.29c1.78,4.49,2.73,9.02-0.29,13.48c-0.63,0.93-1.04,2.11-0.91,3.35
	c-0.72,1.73-1.89,3.37-1.13,5.68c0.61-0.96,1.08-1.7,1.55-2.45c0.65,0.57,1.34,1.1,1.93,1.72c2.32,2.46,2.32,4.5,0.01,6.99
	c-1.99,2.15-4.53,3.36-7.3,4.08c-5.71,1.5-11.74,1.94-16.91,5.2c-0.06-0.2-0.12-0.4-0.18-0.61c-0.05,0.05-0.16,0.13-0.16,0.13
	c0.11,0.16,0.23,0.31,0.36,0.46c-0.05,2.81,1.39,5.54,0.86,8.31c-0.49,2.58,0.39,4.58,1.4,6.79
	C227.96,203.08,229.11,205.12,227.55,207.19L227.55,207.19z"/>
<path class="st3" d="M188.46,76.79c-3.55-0.54-6.96-1.78-10.58-2.08c-3.83-0.31-7.65-0.27-11.91-0.13c1.91,2.31,3.58,4.17,4.94,6.28
	c0.96,1.47,1.17,2.16-0.95,2.78c-7.88,2.31-15.35,5.61-22.48,9.71c-2.13,1.22-3.45,2.84-4.24,5.1c-1.41,4.03-2.41,8.18-2.86,12.4
	c-0.37,3.45-1.59,5.62-5.42,5.75c1.1-7.01,2.64-14.04,5.45-20.71c0.92-2.18,2.72-3.8,4.84-5.04c6.48-3.8,13.36-6.68,20.53-8.86
	c0.37-0.11,0.73-0.26,1.34-0.48c-2.06-3.39-4.5-6.25-7.82-8.88c7.86-1.21,15.33-1.5,23.03-0.06c-1.43-2.98-3.34-5.34-5.17-7.81
	c6.83-1.33,16.49,1.06,29.72,7.39c-0.17-3.22-1.35-5.98-2.5-8.9c1.31-0.22,2.42,0.4,3.54,0.75c15.65,4.93,29.36,12.78,39.86,25.78
	c5.77,7.14,8.25,15.46,9.76,24.23c0.17,0.98,0.69,1.95,0.38,3c-2.46-0.11-2.95-1.63-3.4-3.79c-2.59-12.26-9.01-22.19-18.85-29.95
	c-7.68-6.06-16.2-10.54-25.39-13.81c-0.41-0.15-0.86-0.21-1.43-0.34c0.53,3.11,1.02,6.04,1.6,9.5c-7.81-6.35-16.62-8.84-26.12-10.47
	c1.6,3.06,3.68,5.51,4.07,8.72L188.46,76.79L188.46,76.79z"/>
<path class="st4" d="M124.47,179.06c1.9,1.05,1.63,1.82,0.33,3.04c-4.34,4.06-9.59,11.93-11.14,16.36c0.79,0,1.53,0,2.47,0
	c-1.8,5.69-2.65,11.29-2.17,17.1c0.46,5.68,2.15,11.04,3.93,16.39c-5.37-8.06-8.84-16.64-7.64-26.54c0.14-1.17,0.37-2.33,0.62-3.49
	c0.37-1.71,0.39-1.71-1.64-1.71c3.19-6.73,5.97-13.57,11.24-19.04c-1.02-0.54-2.05-0.11-3.48-0.35c3.6-3.99,6.87-8,11.37-10.58
	c2.59-1.48,3.76-4.32,2.74-7.58c-3.27-10.46-4.48-21.15-2.15-31.94c2.45-11.36,9.52-16.05,21.08-14.56
	c4.55,0.59,8.93,1.81,13.24,3.36c0.33,0.12,0.63,0.34,0.81,0.83c-2.39-0.18-4.79-0.42-7.18-0.53c-4.18-0.21-8.34-0.1-12.44,0.96
	c-8.29,2.15-12.37,7.09-12.76,15.63c-0.36,7.79,1,15.39,2.59,22.95c1.93,9.14-0.45,14.43-8.67,19
	C125.33,178.53,125.07,178.7,124.47,179.06L124.47,179.06z"/>
<path class="st5" d="M131.11,208.11c0.44-0.59,0.42-0.92,0.19-1.37C131.24,207.16,131.19,207.49,131.11,208.11L131.11,208.11z
	 M137.5,189.72c-0.48,0.99-1.03,1.95-1.43,2.97c-0.19,0.49-1.24,0.95-0.4,1.54c0.57,0.4,1.13-0.23,1.61-0.65
	c1.36-1.17,2.89-2.04,4.93-2.76c-1.22,2.89-2.29,5.44-3.61,8.58c2.98-1.9,4.73-4.83,8.14-5.68c-1.56,2.91-3.03,5.54-3.7,8.59
	c2.95-2.15,5.4-4.92,8.87-6.23c0.14,0.09,0.28,0.19,0.42,0.28c-4.81,7.13-8.53,14.71-9.55,23.38c-0.25,2.15-0.26,4.32-0.4,6.92
	c-1.61-2.7-2.33-5.3-3.03-8.19c-0.93,3.35-0.43,6.52-0.7,10.02c-2.58-3.58-2.81-7.62-3.95-11.47c-0.91,2.04-0.46,4.15-1.22,6.61
	c-1.66-5.22-2.04-10.13-2.67-15.17c-0.7,2.93-1.4,5.85-2.25,9.42c-0.77-4.21-0.5-7.84-0.78-11.46c-0.38-0.86-0.87,2-1.32-0.03
	c-1.3-5.85,2.91-16.72,7.89-20.11c0.09-0.06,0.28,0.02,0.59,0.06c-0.38,1.96-1.45,3.59-2.25,5.49c1.9-0.02,2.68-2.27,4.5-2.39
	C137.28,189.51,137.39,189.62,137.5,189.72L137.5,189.72z"/>
<path class="st5" d="M262.69,187.6c2.64,4.55,4.44,9.35,4.29,14.72c-0.02,0.63-0.07,1.26-0.15,1.88c-0.03,0.2-0.23,0.38-0.44,0.72
	c-0.36-1.07-0.68-2-0.99-2.93c0.11,4.32,0.09,8.6-0.42,13.49c-1.43-3.84-1.48-7.48-3.11-11.13c0.26,5.74-0.19,10.91-2.2,15.98
	c-0.29-2.11-0.58-4.22-0.87-6.33c-0.97,4.02-1.47,8.2-3.97,12.21c-0.38-3.39,0.09-6.44-0.74-9.84c-0.89,2.81-1.48,5.33-3.2,8.19
	c0.36-11.86-3.73-21.6-9.8-30.77c3.68,1.49,6.69,3.82,9.41,7.26c-0.23-3.67-2.37-6.18-3.45-9.09c0.1-0.09,0.19-0.19,0.28-0.28
	c2.6,0.92,4.38,2.9,6.38,5.01c0.35-3.06-1.7-5.22-2.38-8c2.74,0.91,4.81,2.29,6.71,4.76c0.01-2.61-1.56-4.22-2.29-6.24
	c1.79-0.06,2.71,1.35,4.1,2.28c0.5-2.43-1.6-4.01-1.7-6.18c1.97,1.02,2.88,3.07,4.56,4.3L262.69,187.6L262.69,187.6z"/>
<path class="st6" d="M225.21,121.62c7.97-3.15,15.64-5.84,24.05-5.15c6.24,0.51,10.59,3.65,13.08,9.36
	c2.89,6.62,3.16,13.61,2.63,20.65c-0.44,5.89-1.27,11.72-3.33,17.34c-0.98,2.67,0.85,4.99,1.77,7.7c0.25-0.96,0.48-1.59,1.47-0.92
	c4.19,2.86,7.58,6.52,10.99,10.46c-1.22,0.33-2.27-0.25-3.25,0.48c5.16,5.46,7.94,12.27,11.18,18.99c-2.06-0.05-2.08-0.05-1.65,1.72
	c2.13,8.82,0.16,17-3.81,24.89c-0.17,0.34-0.35,0.71-1.01,0.66c0.66-2.99,1.65-5.87,2.09-8.89c0.9-6.17,0.68-12.25-1.09-18.25
	c-0.66-2.25-0.65-2.25,2.01-2.3c-3.01-5.95-6.43-11.47-11.13-16.07c-1.28-1.26-1.88-2.11,0-3.32c-3.28-1.73-6.14-3.68-8.24-6.52
	c-2.65-3.6-3.67-7.3-2.21-11.91c2.88-9.1,4.05-18.45,2.19-27.98c-1.23-6.33-5.13-10.1-11.25-11.68c-7.31-1.9-14.55-0.82-21.76,0.69
	C227.18,121.74,226.44,121.99,225.21,121.62L225.21,121.62z"/>
<path class="st3" d="M112.29,160.15c1.69-2.71,6.27-4.02,8.79-2.8c0.45,0.22,0.94,0.71,1.05,1.16c0.12,0.49-0.58,0.63-0.97,0.88
	c-3.41,2.12-5.05,5.14-4.78,9.88c0.73-1.66,1.13-2.73,1.65-3.74c0.73-1.41,1.67-2.68,3.03-3.56c2.26-1.46,3-1.23,4,1.22
	c0.12,0.29,0.27,0.57,0.37,0.87c1.46,4.32,1.36,4.64-2.17,7.52c-2.2,1.8-4.36,3.63-6.7,5.59c-3.86-7.23-7.46-14.48-5.85-23.02
	c1.34-7.1,7.96-9.45,13.63-5.02c0.58,0.45,0.77,0.98,0.88,1.58c0.96,4.94,1.88,9.88,3.68,14.61c0.23,0.59,0.7,1.32-0.35,2.01
	c-0.4-1.36-0.77-2.66-1.17-3.94c-1.07-3.42-3.06-6.22-5.92-8.34c-2.01-1.49-4.25-2.69-6.77-1.29
	C112.35,155.04,112.24,157.4,112.29,160.15L112.29,160.15z"/>
<path class="st4" d="M276.83,169.91c0.03-4.81-1.32-8.17-5.03-10.21c-1.73-0.95-0.73-1.56,0.16-2.04c2.48-1.34,7.1,0.04,8.45,2.44
	c0.52-2.55-0.02-4.64-1.59-5.74c-1.93-1.37-3.9-0.95-5.78,0.1c-4.18,2.32-6.49,6.06-7.81,10.52c-0.25,0.83-0.43,1.67-0.67,2.63
	c-1.41-0.95-0.54-2.15-0.22-2.9c1.61-3.73,2.49-7.68,2.95-11.63c0.4-3.46,2.54-4.53,5.24-5.41c2.83-0.92,5.28-0.28,7.35,1.81
	c2,2.02,2.65,4.59,2.8,7.33c0.39,7.3-2.41,13.67-5.81,19.97c-3.15-2.36-6.3-4.54-9.24-6.99c-1.73-1.44-0.69-3.45-0.03-4.98
	c0.93-2.16,5.19-2.2,6.6-0.3C275.27,165.94,275.71,167.71,276.83,169.91L276.83,169.91z"/>
<path class="st1" d="M145.79,167.73c-4.06,1.99-4.44,6.43-0.77,9.25c3.08,2.36,6.71,3.29,10.43,4.03c2.91,0.58,5.79,1.34,8.66,2.09
	c0.67,0.17,1.45,0.45,1.88,0.94c1.3,1.49,2.63,1.9,4.42,0.26c-0.23,3.14-1.37,5.79-0.61,8.69c0.42,1.59,1.8,2.55,2.03,4.13
	c-2.71-0.25-5.33,0.1-7.9,1.28c-0.44-2.94,0.78-5.49,1.37-8.33c-1.48,0.54-1.67,2.09-2.85,2.87c-2.5-5.31-7.27-7.34-12.56-8.6
	c-2.76-0.66-5.49-1.39-7.76-3.26c-5.07-4.2-3.21-11.67,1.24-14.95C144.93,164.98,145.07,167.03,145.79,167.73L145.79,167.73z"/>
<path class="st7" d="M227.55,207.19c1.57-2.07,0.42-4.11-0.4-5.9c-1.01-2.21-1.89-4.21-1.4-6.79c0.53-2.78-0.9-5.5-0.86-8.31
	l-0.02,0.02c5.17-3.26,11.2-3.7,16.91-5.2c2.77-0.73,5.31-1.94,7.3-4.08c2.31-2.49,2.31-4.53-0.01-6.99
	c-0.59-0.62-1.28-1.15-1.93-1.72c1.65-2.72,1.69-2.73,3.79-0.71c4.97,4.81,3.84,12.26-2.34,15.38c-1.91,0.97-3.99,1.43-6.06,1.93
	c-5.07,1.23-9.51,3.36-11.98,8.47c-1.14-0.79-1.38-2.2-3.14-3.13c1.6,3.56,0.86,7.24,2.27,9.99c1.41,2.75,2.95,5.49,4.33,8.3
	c0.12,0.25,0.22,0.5,0.48,1.1C231.93,208.68,229.74,207.93,227.55,207.19L227.55,207.19z"/>
<path class="st1" d="M217.74,246.7c0.37-1.15,1.56-1.23,2.38-1.7c5.19-3.01,6.08-8.08,5.89-12.46c-0.09-2.04-0.43-4.07-1.17-5.98
	c-0.45-1.16-0.15-1.52,1.09-1.52c1.71,0,3.45,0.26,5.13-0.45c1.72-0.73,2.23-1.72,1.36-3.51c-1.04-2.11-3.01-2.84-4.91-3.78
	c-1.49-0.74-3.38-0.6-4.56-2.02c2.04,0.25,4.09,0.49,6.13,0.74c3,0.69,5.8,1.89,8.6,3.14c-1.23,0.72-0.02,1.28,0.21,1.78
	c0.71,1.56,1.81,3.04,0.71,4.83c-1.14,1.85-3.01,1.77-4.82,1.67c-1.55-0.09-3.09-0.33-4.64-0.51c-0.07-0.1-0.14-0.2-0.21-0.29
	c-0.04,0.06-0.08,0.12-0.11,0.18c0.11,0.03,0.22,0.07,0.33,0.1c1.49,2.68,4.14,3.55,7.16,4.62
	C232,238.96,226.64,244.92,217.74,246.7L217.74,246.7z"/>
<path class="st7" d="M170.96,197.8c-2.58,1.99-5.71,3.24-7.84,5.84c-0.65,0.79-1.43,1.5-1.93,2.38c-3.83,6.86-6.65,14.07-6.89,22.05
	c-0.1,3.39,1.3,4.67,4.72,4.59c4.84-0.12,9.42-1.58,14.06-2.76c0.73-0.19,1.42-0.75,2.42-0.38c-0.42,0.88-0.52,1.91-1.72,2.17
	c-3.19,0.12-5.73,1.96-8.49,3.22c-1.5,0.68-2.89,1.58-4.5,2.05c-3.84,1.1-6.54-0.19-7.81-3.95c-1.28-3.77-0.92-7.61-0.16-11.43
	c1.18-5.92,3.37-11.46,6.61-16.55C162.12,200.82,165.84,198.15,170.96,197.8L170.96,197.8z"/>
<path class="st7" d="M159.53,138.4c-1.41,1.02-2.84-0.11-4.29,0c-5.54,0.42-7.85,4.29-9.73,8.67c-1.05,2.45-1.56,5.08-2.01,7.7
	c-0.28,1.64,0.25,3.09,1.17,4.43c1.08,1.58,1.82,3.28,1.56,5.27c-1.94-2.24-3.92-4.45-5.82-6.73c-1.73-2.07-2.14-4.53-1.59-7.1
	c0.89-4.24,2.87-7.93,5.79-11.13c2.24-2.45,4.92-3.57,8.22-3.03C155.14,136.86,157.47,137.16,159.53,138.4L159.53,138.4z"/>
<path class="st1" d="M246.72,164.97c-0.13-1.23,0.28-2.42,0.91-3.35c3.01-4.47,2.07-8.99,0.29-13.48c-0.89-2.24-1.9-4.46-3.62-6.29
	c-2.38-2.55-5.33-3.05-8.57-2.75c-0.81,0.07-1.68,0.62-2.34-0.33c3.21-1.66,6.62-2.23,10.19-1.89c1.58,0.15,2.77,1.07,3.86,2.08
	c3.5,3.25,5.7,7.27,6.71,11.91c0.62,2.83,0.04,5.46-1.91,7.7C250.39,160.7,248.56,162.84,246.72,164.97L246.72,164.97z"/>
<path class="st7" d="M171.84,233.07c0.79,2.85,1.11,5.81,2.19,8.6c1.27,3.28,3.35,5.92,5.92,8.24c-4.51-0.16-7.51-2.81-10.07-6.14
	c-4.39-5.73-4.32-6.1,1.37-10.3C171.45,233.32,171.65,233.2,171.84,233.07L171.84,233.07z"/>
<path class="st8" d="M262.71,187.61c1.08-1.01-0.31-1.39-0.59-1.98c-0.37-0.79-1.07-1.42-1.69-2.19c3.05,0.7,5.3,3.9,5.6,8.18
	c-0.85-1.37-1.5-2.48-2.21-3.54c-0.23-0.34-0.37-1.25-1.13-0.47L262.71,187.61L262.71,187.61z"/>
<path class="st9" d="M132.97,185.29c-1.75,2.59-3.1,4.58-4.44,6.59c-0.24,0.36-0.53,0.64-0.94,0.45c-0.3-0.14-0.32-0.47-0.17-0.8
	C128.56,189.14,129.76,186.81,132.97,185.29L132.97,185.29z"/>
<path class="st1" d="M232.5,139c-0.7,0.88-1.41,1.63-2.44,0.38C230.91,139.5,231.62,138.68,232.5,139L232.5,139z"/>
<path class="st9" d="M282.18,145.94c-0.14,0.22-0.27,0.45-0.41,0.67c-0.5-0.37-1-0.75-1.5-1.12
	C281.16,144.56,281.69,145.17,282.18,145.94L282.18,145.94z"/>
<path class="st9" d="M281.97,146.8c0.28-0.05,0.65-0.24,0.81-0.13c0.3,0.22,0.11,0.51-0.16,0.71
	C282.4,147.19,282.18,146.99,281.97,146.8L281.97,146.8z"/>
<path class="st8" d="M162.02,78.83c0.05,0,0.13-0.02,0.16,0.01c0.04,0.04,0.09,0.13,0.07,0.16c-0.1,0.23-0.22,0.23-0.31-0.01
	C161.92,78.96,161.99,78.89,162.02,78.83L162.02,78.83z"/>
<path class="st5" d="M247.05,191.96c-0.22-0.07-0.42-0.18-0.24-0.42c0.04-0.05,0.34,0.09,0.52,0.14
	C247.24,191.77,247.14,191.87,247.05,191.96L247.05,191.96z"/>
<path class="st5" d="M246,247.49c0.05,0.04,0.1,0.09,0.15,0.13c-0.01-0.02-0.01-0.06-0.02-0.06c-0.05-0.02-0.1-0.04-0.15-0.05
	L246,247.49L246,247.49z"/>
<path class="st5" d="M137.18,189.41c0.09-0.24,0.25-0.38,0.48-0.21c0.05,0.04-0.11,0.34-0.16,0.52
	C137.39,189.62,137.28,189.51,137.18,189.41L137.18,189.41z"/>
<path class="st9" d="M271.72,233.51c0.07-0.1,0.14-0.2,0.21-0.31c0.05,0.05,0.15,0.12,0.14,0.15c-0.05,0.11-0.13,0.21-0.19,0.32
	L271.72,233.51L271.72,233.51z"/>
<path class="st2" d="M177.39,135.19c-0.22-0.1-0.43-0.28-0.24-0.5c0.08-0.1,0.39,0,0.6,0.01
	C177.63,134.86,177.51,135.02,177.39,135.19L177.39,135.19z"/>
<path class="st5" d="M151.9,196.08c0.13-0.09,0.27-0.17,0.4-0.26c0.01,0.18,0.01,0.36,0.02,0.54
	C152.18,196.27,152.04,196.17,151.9,196.08L151.9,196.08z"/>
<path class="st3" d="M188.4,76.83c0.09,0.06,0.19,0.12,0.28,0.18c-0.06,0.03-0.12,0.05-0.17,0.08c-0.02-0.1-0.04-0.2-0.05-0.3
	L188.4,76.83L188.4,76.83z"/>
<path class="st5" d="M145.33,259.59c0.06,0.11,0.13,0.22,0.17,0.34c0.01,0.02-0.11,0.08-0.18,0.13
	C145.32,259.9,145.32,259.74,145.33,259.59L145.33,259.59z"/>
<path class="st10" d="M218.13,163.67c3,1.74,6.07,1.54,8.97,1.02c2.69-0.49,4.87-2.13,5.95-4.89c0.7-1.81,0.45-3.51-0.88-4.81
	c-1.43-1.4-2.32,0.48-3.45,0.89c-0.36,0.13-0.67,0.4-1.01,0.59c-0.65,0.36-0.96,0.8-0.44,1.51c0.78,1.06,0.35,1.97-0.51,2.69
	c-0.88,0.74-1.94,0.74-2.79-0.02c-0.86-0.76-1.47-0.54-2.27,0.06C220.55,161.6,219.25,162.32,218.13,163.67L218.13,163.67z
	 M175.3,163.46c-1.31-1.03-2.39-1.8-3.38-2.67c-1.04-0.91-1.96-1.51-3.22-0.26c-0.68,0.67-1.67,0.6-2.34-0.14
	c-0.61-0.67-1.46-1.44-0.78-2.48c0.69-1.06,0.18-1.5-0.69-1.96c-0.62-0.33-1.19-0.76-1.75-1.19c-1.36-1.03-2.25-0.58-2.98,0.81
	c-1.29,2.45-0.18,5.6,2.72,7.43C166.74,165.44,170.76,165.04,175.3,163.46L175.3,163.46z M185.12,154.47
	c-0.34-1.44-1.83-2.23-2.36-4.12c2.8,1.52,4,3.91,5.71,6.18c1.94-3.26,0.7-6.11-0.62-9.05c2.59,1.06,4.05,4.75,4.35,10.57
	c1.71-0.82,1.71-0.82,4.03-8.96c0.47,2.01,0.79,3.71,1.28,5.36c0.31,1.04,0.81,2.04,1.35,2.99c0.32,0.57,0.69,1.46,1.51,1.21
	c0.76-0.23,0.25-1.09,0.35-1.66c0.68-3.94,1.59-7.77,4.67-10.66c0.1,0.1,0.21,0.2,0.32,0.3c-1.11,2.17-2.19,4.34-2.19,6.86
	c0,1.2,0.11,2.34,1.2,3.24c1.45-2.31,2.99-4.51,5.6-5.81c-0.71,1.13-1.42,2.25-2.13,3.38c-0.35,0.51-0.77,0.98-1.03,1.54
	c-0.99,2.09-1.52,4.26,0.26,6.17c1.69,1.82,3.77,1.15,5.73,0.49c2.36-0.78,4.28-2.31,6.26-3.76c5.66-4.16,11.33-8.3,18.31-10.05
	c1.96,0.09,3.88,0.3,5.95,1.83c-2.67,0.04-4.88,0.16-7.05,1.27c0.5,0.43,0.91,0.78,1.32,1.12c3.28,2.71,3.45,5.14,0.67,8.45
	c-1.98,2.35-4.7,3.54-7.5,4.68c0.76,1.24,1.91,0.34,3.01,1.13c-4.18,1.18-8.14,1.66-12.21,1.26c-2.91-0.29-5.76-0.82-8.45-2.03
	c-0.66-0.3-1.34-0.46-2.02-0.04c-0.43,0.26-0.78,0.59-0.73,1.12c0.07,0.79,0.68,0.4,1.07,0.4c2.23,0,3.68,1.16,4.64,3.07
	c1.54,3.07,2.51,6.28,2.48,9.86c2.14-0.27,2.63-2.33,4.07-3.6c-0.31,2.89-1.64,4.98-3.81,6.56c-2.79,2.04-6.4,2.51-9.05,4.88
	c1.08-2.77,3.37-4.24,5.64-5.6c2.13-1.28,2.48-2.84,1.6-4.97c-0.92-2.21-2.36-4.09-3.86-5.91c-0.75-0.91-1.72-1.25-2.95-0.83
	c-9.24,3.08-18.45,2.51-27.65-0.27c-1.4-0.42-2.59-0.2-3.56,1.07c-1.43,1.88-2.88,3.73-3.75,5.98c-0.74,1.93-0.28,3.3,1.48,4.42
	c1.52,0.97,2.95,2.1,4.34,3.26c0.76,0.63,1.59,1.34,1.26,2.74c-1.64-1.67-3.61-2.56-5.63-3.37c-3.44-1.38-6-3.61-6.93-7.54
	c1.7,0.33,1.97,2.49,3.79,2.71c0.49-2.58,0.9-5.22,1.84-7.71c1.15-3.03,2.61-5.7,6.72-4.88c-0.48-2.25-1.63-2.14-3.18-1.54
	c-6.96,2.72-14.02,2.45-21.1,0.53c-0.11-0.03-0.19-0.2-0.37-0.42c1.49,0,2.89,0,4.47,0c-0.81-0.9-1.75-1.16-2.62-1.56
	c-2.47-1.13-4.7-2.61-6.14-5c-1.69-2.78-1.41-4.47,0.99-6.65c0.57-0.52,1.17-1.01,1.93-1.66c-2.11-1.01-4.24-1.17-6.91-1.46
	c3.85-2.23,7.18-1.33,10.52-0.31c5.8,3.13,11.22,6.85,16.5,10.79c1.51,1.12,3.27,1.85,5.16,2.19c3.31,0.6,5.36-1.28,4.98-4.63
	C186.5,156.72,186.12,155.45,185.12,154.47L185.12,154.47z"/>
<path class="st11" d="M208.3,211.02c-1.15-1.47-2.71-2.2-4.53-2.42c-2.59-0.31-5.19-0.66-7.68,0.53c0-0.56-0.4-0.98-0.82-1.05
	c-3.1-0.49-6.24-1.08-9.36-0.43c-0.83,0.17-1.37,0.12-2.12-0.15c-2.34-0.85-4.98-1.3-7.08-0.01c-2.01,1.23-3.65,1.36-5.7,0.6
	c-1.48-0.55-2.9-0.31-4.09,0.96c-1.26,1.35-1.67,2.85-1.07,4.55c0.55,1.56,1.46,2.93,2.54,4.21c0.88,1.05,1.55,1.41,2.47,0.04
	c0.84-1.25,1.84-2.39,2.78-3.6c2.87,3.43,8.82,1.74,11.71-3.24c2.27,3.52,8.34,3.4,10.63-0.21c0.88,0.4,1.33,1.43,2.46,1.51
	c3.39,0.24,6.8,0.68,9.85-1.39c1.44,1.03,2.9,1.9,5.09,0.51C211.4,211.21,210,209.72,208.3,211.02L208.3,211.02z M229.08,216.02
	c-2.04-0.25-4.09-0.49-6.13-0.74c-13.47-1.56-26.49,1.03-39.44,4.3c-8.18,2.06-15.98,5.21-23.73,8.48
	c-0.77,0.33-1.49,0.87-2.66,0.76c1.35-1.86,2.86-3.29,4.61-4.43c0.91-0.6,1.04-1.11,0.45-2.07c-1.03-1.69-1.64-3.55-1.85-5.55
	c-0.46-4.43,1.93-8.28,6.17-9.72c5-1.69,10.19-1.88,15.4-1.87c15.69,0.05,30.86,2.58,45.11,9.49
	C227.75,215.01,228.71,215.09,229.08,216.02L229.08,216.02z"/>
<path class="st10" d="M181.62,229.63c6.02-3.73,12.33-5.64,18.87-6.95c0.31-0.06,0.63-0.06,0.93-0.14
	c4.14-1.07,8.13-1.45,11.53,2.01c0.73,0.74,1.85,1.09,3.13,1.81c-2.1,0.22-3.82-0.04-5.73-0.41c0.25,1.84,1.5,2.91,2.66,4.29
	c-3.03-0.09-5.39-1.54-7.99-2.46c-0.34,1.1,0.81,1.4,0.87,2.09c-5.21,0.29-9.93,2.16-14.66,4.04c-0.34,0.13-0.75,0.09-1.22,0.13
	c0.29-0.93,1.89-1.27,1.12-2.26c-0.66-0.84-1.55,0.03-2.32,0.36c-1.62,0.7-2.98,2.12-5.46,1.79c1.88-1.74,3.5-3.24,5.41-5.02
	C186.17,228.84,184.17,230.16,181.62,229.63L181.62,229.63z"/>
<path class="st1" d="M237.69,148.71c-6.98,1.75-12.65,5.89-18.31,10.05c-1.97,1.45-3.9,2.97-6.26,3.76
	c-1.97,0.65-4.04,1.33-5.73-0.49c-1.78-1.91-1.24-4.08-0.26-6.17c0.26-0.55,0.69-1.03,1.03-1.54c0.4,2.59,1.22,3.14,3.83,2.32
	c3.78-1.18,7-3.47,10.33-5.51c4.37-2.68,9.15-3.49,14.18-3.25C237.09,147.89,237.61,147.98,237.69,148.71L237.69,148.71z"/>
<path class="st7" d="M185.12,154.47c1,0.98,1.38,2.25,1.53,3.58c0.39,3.35-1.67,5.23-4.98,4.63c-1.89-0.34-3.65-1.07-5.16-2.19
	c-5.28-3.94-10.69-7.66-16.5-10.79c2.1-1.16,4.14-0.12,6.13,0.32c2.6,0.58,5.03,1.66,7.27,3.25c1.85,1.31,3.93,2.32,5.98,3.31
	C182.63,158.15,183.79,157.68,185.12,154.47L185.12,154.47z"/>
<path class="st1" d="M200.65,187.96c-1.03,2.33-3.01,2.73-5.24,2.5c-1.74-0.18-2.79-1.2-3.17-2.9c1.18-3.21-0.54-5.81-1.78-8.51
	c4.06,1.88,8.14,1.26,12.22,0.07C201.38,181.93,199.62,184.63,200.65,187.96L200.65,187.96z"/>
<path class="st11" d="M190.46,179.05c1.23,2.7,2.96,5.3,1.78,8.51c-0.55-1.86-2.11-2.38-3.73-2.84c-1.88-0.53-3.9-0.72-5.44-2.11
	c-0.33-0.29-0.85-1.03-0.7-1.04c2.22-0.27,0.88-2.08,1.35-3.07c0.23-0.47,1.33-1.17,0.13-1.67c-0.86-0.36-1.85-0.41-2.57,0.52
	c-0.8,1.03-1.1,2.24-1.22,3.43c-0.47,0.25-0.72,0.01-0.84-0.26c-0.79-1.77,0.12-4.49,2.04-6.07c1.59-1.31,3.07-0.68,4.54,0.28
	C187.6,175.9,188.96,177.55,190.46,179.05L190.46,179.05z"/>
<path class="st11" d="M200.65,187.96c-1.02-3.34,0.73-6.04,2.03-8.84c1.62-1.47,3.03-3.18,4.94-4.33c1.69-1.02,3.18-1.15,4.61,0.47
	c1.99,2.27,2.36,4.12,0.99,6.16c-0.5-1.19-0.56-2.44-1.26-3.45c-0.92-1.33-2.05-1.15-3.45-0.54c1.46,1.33,0.21,3.45,1.65,4.87
	c0.39,0.39-0.5,0.84-0.92,1.14c-1.51,1.1-3.38,1.2-5.09,1.71C202.55,185.61,201.25,186.33,200.65,187.96L200.65,187.96z"/>
<path class="st11" d="M203.3,202.39c-3.91-0.87-7.81-1.74-11.72-2.6c4.27-0.25,4.59-3.27,4.7-6.67c0.38,4.66,3.39,7.1,7.34,8.78
	C203.51,202.06,203.41,202.22,203.3,202.39L203.3,202.39z"/>
<path class="st11" d="M151.59,169.96c2.42,0.61,4.35,1.1,6.28,1.59C155.66,172.22,153.61,172.24,151.59,169.96L151.59,169.96z"/>
<path class="st11" d="M235.1,171.65c2.42-0.12,4.29-0.89,6.55-1.77C239.47,172.37,237.68,172.87,235.1,171.65L235.1,171.65z"/>
<path class="st7" d="M224.89,186.19c-0.12-0.15-0.24-0.3-0.36-0.46c0-0.01,0.1-0.09,0.16-0.13c0.06,0.2,0.12,0.4,0.18,0.61
	L224.89,186.19L224.89,186.19z"/>
<path class="st10" d="M182.47,149.63c0.12,0.24,0.22,0.4,0.26,0.57c0.01,0.04-0.23,0.21-0.3,0.18c-0.18-0.07-0.34-0.21-0.51-0.33
	C182.08,149.93,182.23,149.81,182.47,149.63L182.47,149.63z"/>
<path class="st10" d="M205.38,146.34c0.06-0.22,0.18-0.42,0.41-0.24c0.07,0.05-0.06,0.35-0.09,0.54
	C205.59,146.54,205.48,146.44,205.38,146.34L205.38,146.34z"/>
<path class="st12" d="M131.11,208.11c0.08-0.62,0.13-0.94,0.19-1.37C131.53,207.19,131.55,207.52,131.11,208.11L131.11,208.11z"/>
<path class="st12" d="M229.15,226.91c-0.11-0.03-0.22-0.07-0.33-0.1c0.04-0.06,0.08-0.12,0.11-0.18c0.07,0.1,0.14,0.2,0.21,0.29
	L229.15,226.91L229.15,226.91z"/>
<path class="st5" d="M125.52,124.29c0.02,0.06,0.06,0.15,0.04,0.17c-0.05,0.04-0.13,0.05-0.19,0.07c-0.02-0.06-0.06-0.15-0.04-0.17
	C125.38,124.31,125.46,124.31,125.52,124.29L125.52,124.29z"/>
<path class="st13" d="M175.3,163.46c-4.54,1.58-8.56,1.98-12.43-0.45c-2.9-1.83-4.01-4.98-2.72-7.43c0.74-1.4,1.62-1.84,2.98-0.81
	c0.56,0.42,1.13,0.86,1.75,1.19c0.87,0.46,1.38,0.9,0.69,1.96c-0.68,1.04,0.18,1.8,0.78,2.48c0.67,0.74,1.66,0.81,2.34,0.14
	c1.27-1.25,2.18-0.65,3.22,0.26C172.91,161.66,173.98,162.43,175.3,163.46L175.3,163.46z"/>
<path class="st13" d="M218.13,163.67c1.12-1.34,2.42-2.07,3.59-2.96c0.79-0.6,1.41-0.83,2.27-0.06c0.85,0.76,1.9,0.75,2.79,0.02
	c0.85-0.71,1.28-1.62,0.51-2.69c-0.52-0.71-0.21-1.15,0.44-1.51c0.34-0.19,0.65-0.46,1.01-0.59c1.13-0.41,2.02-2.29,3.45-0.89
	c1.33,1.3,1.58,3,0.88,4.81c-1.07,2.76-3.26,4.4-5.95,4.89C224.2,165.21,221.13,165.41,218.13,163.67L218.13,163.67z"/>
<path class="st5" d="M195.99,210.8c-2.29,3.61-8.36,3.73-10.63,0.21c-2.89,4.98-8.83,6.67-11.71,3.24c-0.94,1.2-1.94,2.35-2.78,3.6
	c-0.92,1.37-1.59,1.01-2.47-0.04c-1.08-1.28-1.99-2.65-2.54-4.21c-0.6-1.7-0.2-3.2,1.07-4.55c1.19-1.27,2.61-1.51,4.09-0.96
	c2.05,0.76,3.7,0.64,5.7-0.6c2.09-1.28,4.73-0.84,7.08,0.01c0.75,0.27,1.29,0.33,2.12,0.15c3.12-0.65,6.26-0.07,9.36,0.43
	c0.41,0.07,0.82,0.48,0.82,1.05C196.06,209.68,196.02,210.24,195.99,210.8L195.99,210.8z"/>
<path class="st14" d="M195.99,210.8c0.03-0.56,0.07-1.12,0.11-1.67c2.49-1.19,5.09-0.84,7.68-0.53c1.82,0.22,3.38,0.95,4.53,2.42
	l0-0.11c-3.06,2.08-6.46,1.64-9.85,1.39C197.31,212.23,196.87,211.2,195.99,210.8L195.99,210.8z"/>
<path class="st8" d="M208.3,210.92l0,0.11c1.7-1.3,3.1,0.18,5.09,0.4C211.2,212.82,209.74,211.95,208.3,210.92L208.3,210.92z"/>
<path class="st15" d="M55.26,36.24c-2.5,0-4.55-0.57-6.15-1.7c-1.61-1.13-2.87-2.59-3.8-4.37c-0.93-1.78-1.55-3.74-1.87-5.9
	c-0.32-2.16-0.46-4.25-0.43-6.3c0.04-2.19,0.44-4.32,1.22-6.38c0.78-2.06,1.81-3.88,3.12-5.44c1.3-1.57,2.81-2.82,4.51-3.74
	c1.7-0.93,3.52-1.37,5.44-1.33c1.55,0.04,2.85,0.36,3.89,0.96s1.86,1.37,2.47,2.3c0.6,0.93,1.03,1.98,1.28,3.15S65.3,9.83,65.3,11
	c0,0.91-0.06,1.78-0.17,2.61c-0.26,0.04-0.55,0.06-0.85,0.06s-0.62,0-0.96,0c-0.91,0-1.87-0.02-2.89-0.06
	c-1.02-0.04-1.87-0.06-2.55-0.06c0.11-0.91,0.11-1.64,0-2.18c-0.11-0.55-0.26-0.95-0.43-1.22c-0.17-0.26-0.35-0.43-0.54-0.51
	c-0.19-0.08-0.3-0.11-0.34-0.11c-1.17,0-2.1,0.5-2.78,1.5c-0.68,1-1.2,2.18-1.56,3.54c-0.36,1.36-0.6,2.71-0.71,4.06
	c-0.11,1.34-0.17,2.35-0.17,3.03c0,0.3,0.05,0.9,0.14,1.79c0.09,0.89,0.27,1.8,0.54,2.72c0.26,0.93,0.62,1.75,1.08,2.47
	c0.45,0.72,1.04,1.08,1.76,1.08c0.34,0,0.63-0.15,0.88-0.45c0.25-0.3,0.43-0.65,0.54-1.05c0.11-0.4,0.18-0.8,0.2-1.22
	c0.02-0.42-0.01-0.74-0.09-0.96c-0.34-0.08-0.67-0.09-0.99-0.06c-0.32,0.04-0.63,0.04-0.94,0c-0.15-0.42-0.26-1.1-0.34-2.04
	c-0.08-0.95-0.11-1.85-0.11-2.72c0-0.42,0.01-0.79,0.03-1.13c0.02-0.34,0.05-0.61,0.09-0.79c0.19-0.08,0.67-0.14,1.45-0.2
	c0.78-0.06,1.66-0.11,2.67-0.17c1-0.06,2.04-0.09,3.12-0.11c1.08-0.02,2.01-0.03,2.81-0.03c0.6,0,1.1,0.01,1.47,0.03
	c0.38,0.02,0.57,0.05,0.57,0.09l-0.28,6.81c-0.45,0.15-0.81,0.2-1.08,0.14c-0.26-0.06-0.7-0.03-1.3,0.09
	c-0.15,1.1-0.26,2.22-0.34,3.37c-0.08,1.15-0.21,2.33-0.4,3.54c-0.11,0.64-0.47,1.18-1.08,1.62s-1.3,0.78-2.1,1.05
	s-1.6,0.45-2.41,0.57C56.4,36.19,55.75,36.24,55.26,36.24L55.26,36.24z"/>
<path class="st15" d="M81.35,16.73c-0.11,0.23-0.26,0.56-0.43,0.99c-0.17,0.43-0.34,0.9-0.51,1.39c-0.17,0.49-0.3,0.96-0.4,1.42
	c-0.09,0.45-0.14,0.79-0.14,1.02c0.26,0.08,0.63,0.1,1.11,0.09c0.47-0.02,0.8-0.12,0.99-0.31c0.08-0.68,0.01-1.48-0.2-2.41
	C81.56,17.99,81.42,17.26,81.35,16.73L81.35,16.73z M66.54,36.19c1.44-4.73,2.71-8.86,3.83-12.39c1.12-3.54,2.08-6.56,2.89-9.07
	c0.81-2.51,1.5-4.59,2.07-6.24c0.57-1.64,1.03-2.96,1.39-3.94c0.36-0.98,0.63-1.69,0.82-2.13c0.19-0.43,0.32-0.71,0.4-0.82
	c0.95-0.15,2.19-0.25,3.74-0.28c1.55-0.04,3.18-0.09,4.88-0.17c0.19,0.72,0.43,1.9,0.71,3.54c0.28,1.64,0.7,3.83,1.25,6.55
	c0.55,2.72,1.28,6.01,2.18,9.87s2.08,8.36,3.52,13.5c-0.23,0.19-0.76,0.4-1.59,0.62c-0.83,0.23-1.73,0.44-2.69,0.65
	c-0.96,0.21-1.87,0.37-2.72,0.48c-0.85,0.11-1.39,0.11-1.62,0c-0.08-0.04-0.15-0.17-0.23-0.4c-0.08-0.23-0.18-0.61-0.31-1.13
	c-0.13-0.53-0.29-1.24-0.48-2.13c-0.19-0.89-0.45-1.99-0.79-3.32c-0.26-0.08-0.72-0.1-1.36-0.09c-0.64,0.02-1.33,0.06-2.07,0.11
	c-0.74,0.06-1.45,0.11-2.13,0.17c-0.68,0.06-1.17,0.1-1.47,0.14c-0.23,0.45-0.45,0.99-0.68,1.62c-0.23,0.62-0.45,1.27-0.68,1.93
	c-0.23,0.66-0.44,1.3-0.65,1.93c-0.21,0.62-0.39,1.16-0.54,1.62c-0.04,0-0.18-0.02-0.43-0.06c-0.25-0.04-0.66-0.09-1.25-0.17
	c-0.59-0.08-1.36-0.14-2.33-0.2C69.24,36.33,68.02,36.26,66.54,36.19L66.54,36.19z"/>
<path class="st15" d="M103.81,14.24c0.38,0.3,0.94,0.43,1.67,0.4c0.74-0.04,1.47-0.19,2.21-0.45c0.74-0.26,1.38-0.61,1.93-1.05
	c0.55-0.43,0.82-0.88,0.82-1.33c0-0.42-0.14-0.76-0.43-1.02c-0.28-0.26-0.64-0.48-1.08-0.65c-0.43-0.17-0.91-0.28-1.42-0.34
	c-0.51-0.06-1.01-0.09-1.5-0.09c-0.42,0-0.78,0.02-1.11,0.06c-0.32,0.04-0.58,0.09-0.77,0.17L103.81,14.24L103.81,14.24z
	 M94.79,35.96c0.08-2.72,0.16-5.76,0.26-9.1s0.14-6.91,0.14-10.69c0-2.19-0.02-4.41-0.06-6.66C95.09,7.25,95,4.97,94.85,2.67
	c0.98-0.38,2.29-0.68,3.91-0.91c1.63-0.23,3.38-0.34,5.27-0.34c1.85,0,3.72,0.14,5.59,0.43c1.87,0.28,3.56,0.78,5.08,1.47
	c1.51,0.7,2.74,1.62,3.69,2.75c0.95,1.13,1.42,2.55,1.42,4.25c0,1.36-0.26,2.57-0.79,3.63c-0.53,1.06-1.21,2-2.04,2.84
	c-0.83,0.83-1.76,1.58-2.78,2.24c-1.02,0.66-2.04,1.26-3.06,1.79c0.15,0.57,0.52,1.3,1.11,2.18c0.59,0.89,1.25,1.81,1.99,2.75
	c0.74,0.95,1.48,1.83,2.24,2.67c0.76,0.83,1.36,1.46,1.81,1.87c-0.04,0.3-0.31,0.77-0.82,1.39c-0.51,0.62-1.11,1.25-1.79,1.87
	c-0.68,0.62-1.37,1.18-2.07,1.67c-0.7,0.49-1.22,0.76-1.56,0.79c-2-1.85-3.7-3.85-5.08-5.98c-1.38-2.14-2.69-4.15-3.94-6.04
	c-0.07,0.68-0.12,1.51-0.17,2.5c-0.05,0.98-0.08,2.01-0.1,3.09c-0.02,1.08-0.04,2.13-0.07,3.15c-0.03,1.02-0.05,1.89-0.05,2.61
	c-0.42,0.15-0.97,0.26-1.66,0.34c-0.69,0.08-1.4,0.13-2.14,0.17c-0.74,0.04-1.48,0.07-2.2,0.09C95.89,35.95,95.28,35.96,94.79,35.96
	L94.79,35.96z"/>
<path class="st15" d="M135,16.73c-0.11,0.23-0.26,0.56-0.43,0.99c-0.17,0.43-0.34,0.9-0.51,1.39c-0.17,0.49-0.3,0.96-0.4,1.42
	c-0.09,0.45-0.14,0.79-0.14,1.02c0.26,0.08,0.63,0.1,1.11,0.09c0.47-0.02,0.8-0.12,0.99-0.31c0.08-0.68,0.01-1.48-0.2-2.41
	C135.22,17.99,135.08,17.26,135,16.73L135,16.73z M120.2,36.19c1.44-4.73,2.71-8.86,3.83-12.39c1.12-3.54,2.08-6.56,2.89-9.07
	c0.81-2.51,1.5-4.59,2.07-6.24c0.57-1.64,1.03-2.96,1.39-3.94c0.36-0.98,0.63-1.69,0.82-2.13c0.19-0.43,0.32-0.71,0.4-0.82
	c0.95-0.15,2.19-0.25,3.74-0.28c1.55-0.04,3.18-0.09,4.88-0.17c0.19,0.72,0.43,1.9,0.71,3.54s0.7,3.83,1.25,6.55
	c0.55,2.72,1.28,6.01,2.18,9.87s2.08,8.36,3.52,13.5c-0.23,0.19-0.76,0.4-1.59,0.62c-0.83,0.23-1.73,0.44-2.69,0.65
	c-0.96,0.21-1.87,0.37-2.72,0.48c-0.85,0.11-1.39,0.11-1.62,0c-0.08-0.04-0.15-0.17-0.23-0.4c-0.08-0.23-0.18-0.61-0.31-1.13
	c-0.13-0.53-0.29-1.24-0.48-2.13c-0.19-0.89-0.45-1.99-0.79-3.32c-0.26-0.08-0.72-0.1-1.36-0.09c-0.64,0.02-1.33,0.06-2.07,0.11
	c-0.74,0.06-1.45,0.11-2.13,0.17c-0.68,0.06-1.17,0.1-1.47,0.14c-0.23,0.45-0.45,0.99-0.68,1.62c-0.23,0.62-0.45,1.27-0.68,1.93
	c-0.23,0.66-0.44,1.3-0.65,1.93c-0.21,0.62-0.39,1.16-0.54,1.62c-0.04,0-0.18-0.02-0.43-0.06c-0.25-0.04-0.66-0.09-1.25-0.17
	c-0.59-0.08-1.36-0.14-2.33-0.2C122.89,36.33,121.67,36.26,120.2,36.19L120.2,36.19z"/>
<path class="st15" d="M160.75,36.24c-2.5,0-4.55-0.57-6.15-1.7c-1.61-1.13-2.87-2.59-3.8-4.37c-0.93-1.78-1.55-3.74-1.87-5.9
	s-0.46-4.25-0.43-6.3c0.04-2.19,0.44-4.32,1.22-6.38c0.78-2.06,1.81-3.88,3.12-5.44c1.3-1.57,2.81-2.82,4.51-3.74
	c1.7-0.93,3.52-1.37,5.44-1.33c1.55,0.04,2.85,0.36,3.89,0.96c1.04,0.6,1.86,1.37,2.47,2.3c0.61,0.93,1.03,1.98,1.28,3.15
	c0.25,1.17,0.37,2.34,0.37,3.52c0,0.91-0.06,1.78-0.17,2.61c-0.26,0.04-0.55,0.06-0.85,0.06c-0.3,0-0.62,0-0.96,0
	c-0.91,0-1.87-0.02-2.89-0.06c-1.02-0.04-1.87-0.06-2.55-0.06c0.11-0.91,0.11-1.64,0-2.18c-0.11-0.55-0.26-0.95-0.43-1.22
	c-0.17-0.26-0.35-0.43-0.54-0.51c-0.19-0.08-0.3-0.11-0.34-0.11c-1.17,0-2.1,0.5-2.78,1.5c-0.68,1-1.2,2.18-1.56,3.54
	c-0.36,1.36-0.6,2.71-0.71,4.06c-0.11,1.34-0.17,2.35-0.17,3.03c0,0.3,0.05,0.9,0.14,1.79c0.09,0.89,0.27,1.8,0.54,2.72
	c0.26,0.93,0.62,1.75,1.08,2.47c0.45,0.72,1.04,1.08,1.76,1.08c0.34,0,0.63-0.15,0.88-0.45c0.25-0.3,0.43-0.65,0.54-1.05
	c0.11-0.4,0.18-0.8,0.2-1.22c0.02-0.42-0.01-0.74-0.09-0.96c-0.34-0.08-0.67-0.09-0.99-0.06c-0.32,0.04-0.63,0.04-0.94,0
	c-0.15-0.42-0.26-1.1-0.34-2.04c-0.08-0.95-0.11-1.85-0.11-2.72c0-0.42,0.01-0.79,0.03-1.13c0.02-0.34,0.05-0.61,0.09-0.79
	c0.19-0.08,0.67-0.14,1.45-0.2c0.78-0.06,1.66-0.11,2.67-0.17c1-0.06,2.04-0.09,3.12-0.11c1.08-0.02,2.01-0.03,2.81-0.03
	c0.6,0,1.1,0.01,1.47,0.03c0.38,0.02,0.57,0.05,0.57,0.09l-0.28,6.81c-0.45,0.15-0.81,0.2-1.08,0.14c-0.26-0.06-0.7-0.03-1.3,0.09
	c-0.15,1.1-0.26,2.22-0.34,3.37c-0.08,1.15-0.21,2.33-0.4,3.54c-0.11,0.64-0.47,1.18-1.08,1.62c-0.6,0.43-1.3,0.78-2.1,1.05
	c-0.79,0.26-1.6,0.45-2.41,0.57C161.9,36.19,161.24,36.24,160.75,36.24L160.75,36.24z"/>
<path class="st15" d="M172.15,36.3c0.08-3.36,0.14-6.44,0.2-9.23c0.06-2.79,0.09-5.38,0.09-7.76c0-3.89-0.03-7.22-0.09-9.99
	c-0.06-2.77-0.1-5.22-0.14-7.33c-0.34,0.08-0.12,0.1,0.65,0.09c0.78-0.02,1.97-0.06,3.57-0.11s3.56-0.12,5.87-0.2
	c2.31-0.08,4.8-0.11,7.49-0.11c0.08,0,0.12,0.11,0.14,0.34c0.02,0.23,0.03,0.69,0.03,1.41c0,0.64-0.01,1.47-0.03,2.51
	c-0.02,1.03-0.07,2.38-0.14,4.03c-0.15,0-0.29,0-0.43,0c-0.13,0-0.3-0.01-0.51-0.03c-0.21-0.02-0.47-0.04-0.79-0.06
	c-0.32-0.02-0.75-0.03-1.28-0.03c-1.02,0-2.68,0.06-4.99,0.17c0,0.42-0.02,0.78-0.06,1.11c-0.04,0.32-0.04,0.8,0,1.45
	c0.87,0.04,1.81,0.02,2.84-0.06c1.02-0.08,1.97-0.08,2.84,0c0.08,0.19,0.11,0.43,0.11,0.71c0,0.28,0,0.61,0,0.99
	c0,0.57-0.02,1.19-0.06,1.87c-0.04,0.68-0.07,1.35-0.09,2.01c-0.02,0.66-0.04,1.28-0.06,1.84c-0.02,0.57-0.01,1,0.03,1.3
	c-0.38,0-0.86-0.01-1.45-0.03c-0.59-0.02-1.2-0.03-1.84-0.03c-0.42,0-0.83,0-1.25,0c-0.42,0-0.81,0.04-1.19,0.11l-0.11,6.58
	c0.49-0.04,1.07-0.07,1.73-0.09c0.66-0.02,1.34-0.04,2.04-0.06c0.7-0.02,1.39-0.03,2.07-0.03c0.68,0,1.29-0.02,1.81-0.06v8.39
	c-0.26,0.08-0.9,0.1-1.9,0.09c-1-0.02-2.56-0.03-4.68-0.03c-1.29,0-2.78,0.02-4.48,0.06C176.41,36.17,174.42,36.22,172.15,36.3
	L172.15,36.3z"/>
<path class="st15" d="M221.21,35.56c-0.11-0.04-0.19-0.25-0.23-0.62c-0.04-0.38-0.04-1.08,0-2.1c0.04-1.02,0.12-2.48,0.26-4.37
	c0.13-1.89,0.31-4.41,0.54-7.54c-0.3,0.23-0.63,0.59-0.99,1.08s-0.73,1.02-1.11,1.59c-0.38,0.57-0.77,1.12-1.16,1.67
	s-0.82,1.01-1.28,1.39c-0.6-0.45-1.19-1.02-1.76-1.7c-0.57-0.68-1.11-1.4-1.62-2.16c-0.51-0.76-0.99-1.51-1.45-2.27
	c-0.45-0.76-0.85-1.42-1.19-1.99c-0.34,2.87-0.65,5.85-0.94,8.93c-0.28,3.08-0.41,6.19-0.37,9.33c-0.19,0.04-0.56,0.06-1.11,0.06
	c-0.55,0-1.14,0-1.79,0c-1.02,0-2.07-0.02-3.15-0.06c-1.08-0.04-1.82-0.13-2.24-0.28c0.08-4.5,0.16-8.72,0.26-12.65
	c0.09-3.93,0.18-7.39,0.26-10.38c0.08-2.99,0.15-5.41,0.23-7.26c0.08-1.85,0.15-2.99,0.23-3.4c0.57,0,1.22,0.02,1.96,0.06
	c0.74,0.04,1.51,0.08,2.33,0.11c0.81,0.04,1.64,0.07,2.47,0.09c0.83,0.02,1.59,0.03,2.27,0.03c0.34,0,0.66,0,0.96,0
	c0.3,0,0.59-0.02,0.85-0.06c0.3,0.45,0.62,1.06,0.96,1.81c0.34,0.76,0.69,1.55,1.05,2.38c0.36,0.83,0.72,1.65,1.08,2.47
	c0.36,0.81,0.69,1.5,0.99,2.07c0.3-0.49,0.65-1.17,1.05-2.04c0.4-0.87,0.79-1.79,1.19-2.75c0.4-0.96,0.78-1.91,1.16-2.84
	c0.38-0.93,0.72-1.69,1.02-2.3l10.1-0.34c-0.08,2.23-0.15,4.79-0.23,7.69c-0.08,2.89-0.16,5.87-0.26,8.93
	c-0.09,3.06-0.2,6.1-0.31,9.1c-0.11,3.01-0.23,5.74-0.34,8.2c-0.98,0.08-1.99,0.13-3.01,0.17c-1.02,0.04-2.08,0.06-3.18,0.06
	c-0.57,0-1.14,0-1.73,0C222.41,35.68,221.82,35.64,221.21,35.56L221.21,35.56z"/>
<path class="st15" d="M242.6,12.53c-0.34,0-0.62,0.14-0.85,0.43c-0.23,0.28-0.42,0.67-0.57,1.16c-0.15,0.49-0.26,1.06-0.34,1.7
	c-0.08,0.64-0.11,1.32-0.11,2.04c0,0.98,0.07,1.98,0.2,2.98c0.13,1,0.31,1.9,0.54,2.69c0.23,0.79,0.51,1.44,0.85,1.93
	c0.34,0.49,0.72,0.7,1.13,0.62c0.57-0.08,0.98-0.63,1.25-1.67c0.26-1.04,0.4-2.24,0.4-3.6c0-0.95-0.06-1.91-0.17-2.89
	c-0.11-0.98-0.28-1.87-0.51-2.67c-0.23-0.79-0.49-1.45-0.79-1.96C243.31,12.79,242.97,12.53,242.6,12.53L242.6,12.53z M244.33,36.7
	c-2.12,0.3-3.9-0.08-5.32-1.13c-1.42-1.06-2.58-2.45-3.47-4.17c-0.89-1.72-1.55-3.58-1.99-5.59s-0.75-3.8-0.94-5.39
	c-0.08-0.64-0.13-1.3-0.17-1.99c-0.04-0.68-0.06-1.4-0.06-2.16c0-1.59,0.11-3.2,0.34-4.82c0.23-1.63,0.65-3.15,1.28-4.57
	c0.62-1.42,1.47-2.64,2.55-3.66c1.08-1.02,2.45-1.7,4.11-2.04c0.57-0.11,1.12-0.17,1.65-0.17c1.79,0,3.32,0.57,4.62,1.7
	c1.29,1.13,2.35,2.53,3.16,4.2s1.43,3.45,1.82,5.36c0.4,1.91,0.6,3.64,0.6,5.19c0,0.91-0.04,1.99-0.11,3.23
	c-0.08,1.25-0.21,2.55-0.4,3.91c-0.19,1.36-0.47,2.72-0.85,4.08c-0.38,1.36-0.87,2.61-1.48,3.74c-0.61,1.13-1.35,2.09-2.22,2.86
	C246.59,36.08,245.55,36.55,244.33,36.7L244.33,36.7z"/>
<path class="st15" d="M266.53,35.51c-0.42-1.51-0.9-3.23-1.45-5.16c-0.55-1.93-1.06-3.8-1.53-5.62c-0.47-1.81-0.89-3.44-1.25-4.88
	c-0.36-1.44-0.56-2.42-0.6-2.95c-0.08,0.95-0.17,2.32-0.28,4.11c-0.11,1.8-0.25,3.69-0.4,5.67s-0.31,3.89-0.48,5.73
	c-0.17,1.83-0.31,3.24-0.43,4.23c-1.1,0-2.26-0.02-3.49-0.06c-1.23-0.04-2.51-0.09-3.83-0.17c0-2.5,0.01-4.41,0.03-5.76
	c0.02-1.34,0.04-2.38,0.06-3.12c0.02-0.74,0.03-1.29,0.03-1.64c0-0.36,0-0.77,0-1.22c0-0.45,0.01-1.1,0.03-1.93
	c0.02-0.83,0.03-2.1,0.03-3.8c0-1.7,0-3.95,0-6.75c0-2.8,0-6.39,0-10.78c0.87-0.04,1.77-0.07,2.69-0.09
	c0.93-0.02,1.88-0.03,2.86-0.03c1.47,0,2.95,0.03,4.42,0.09c1.47,0.06,2.89,0.14,4.25,0.26l2.55,17.58c0.11,0,0.22-0.34,0.31-1.02
	c0.09-0.68,0.22-1.75,0.37-3.2c0.15-1.46,0.37-3.35,0.65-5.67c0.28-2.33,0.67-5.17,1.16-8.54c0.26-0.11,0.78-0.14,1.56-0.09
	c0.78,0.06,1.62,0.16,2.52,0.31c0.91,0.15,1.78,0.32,2.61,0.51c0.83,0.19,1.47,0.36,1.93,0.51c0.04,0.11,0.05,0.26,0.03,0.43
	c-0.02,0.17-0.08,0.57-0.17,1.19c-0.09,0.62-0.26,1.6-0.48,2.92c-0.23,1.32-0.55,3.2-0.96,5.64c-0.42,2.44-0.94,5.54-1.56,9.3
	s-1.39,8.38-2.3,13.87c-0.53,0.08-1.1,0.11-1.7,0.11c-0.61,0-1.23,0-1.87,0c-0.87,0-1.76-0.01-2.67-0.03
	C268.29,35.46,267.4,35.47,266.53,35.51L266.53,35.51z"/>
<path class="st15" d="M282.3,37.49c-0.04-1.32-0.07-3.03-0.09-5.13c-0.02-2.1-0.05-4.36-0.09-6.78c-0.04-2.42-0.08-4.9-0.11-7.43
	c-0.04-2.53-0.09-4.89-0.17-7.06c-0.08-2.17-0.16-4.06-0.26-5.67c-0.09-1.61-0.2-2.69-0.31-3.26c0.57-0.11,1.23-0.23,1.99-0.34
	c0.76-0.11,1.56-0.22,2.41-0.31c0.85-0.09,1.74-0.17,2.67-0.23c0.93-0.06,1.84-0.09,2.75-0.09c0.04,0.98,0.04,2.1,0,3.35
	c-0.04,1.25-0.06,2.48-0.06,3.69c0,0.64,0,1.25,0,1.82c0,0.57,0.04,1.12,0.11,1.64c0.42-0.57,0.93-1.37,1.53-2.41
	c0.6-1.04,1.21-2.12,1.81-3.23c0.61-1.12,1.17-2.15,1.7-3.09s0.93-1.61,1.19-1.99c0.6,0,1.31,0.11,2.13,0.34
	c0.81,0.23,1.64,0.49,2.47,0.79c0.83,0.3,1.64,0.61,2.44,0.94s1.49,0.58,2.1,0.77c-1.32,2.38-2.67,4.52-4.03,6.41
	c-1.36,1.89-2.59,3.49-3.69,4.79c-1.1,1.3-1.99,2.32-2.67,3.03c-0.68,0.72-1.02,1.12-1.02,1.19c0,0.57,0.41,1.35,1.22,2.35
	s1.77,2.09,2.86,3.26c1.1,1.17,2.17,2.33,3.23,3.46c1.06,1.13,1.85,2.1,2.38,2.89c-0.23,0.49-0.59,1.01-1.08,1.56
	c-0.49,0.55-1.05,1.09-1.67,1.62c-0.62,0.53-1.27,1-1.93,1.42c-0.66,0.42-1.26,0.74-1.79,0.96c-0.45,0.04-1.04-0.29-1.76-0.99
	c-0.72-0.7-1.46-1.52-2.21-2.47c-0.76-0.95-1.44-1.87-2.04-2.78c-0.61-0.91-1.02-1.55-1.25-1.93c-0.04,0.38-0.04,0.93,0,1.64
	c0.04,0.72,0.08,1.5,0.11,2.35c0.04,0.85,0.07,1.7,0.09,2.55c0.02,0.85,0.01,1.62-0.03,2.3c-0.83-0.08-1.91-0.07-3.23,0.03
	c-1.32,0.09-2.59,0.14-3.8,0.14c-0.34,0-0.67-0.01-0.99-0.03C282.91,37.56,282.6,37.53,282.3,37.49L282.3,37.49z"/>
<path class="st15" d="M306.97,36.3c0.08-3.36,0.14-6.44,0.2-9.23c0.06-2.79,0.09-5.38,0.09-7.76c0-3.89-0.03-7.22-0.09-9.99
	c-0.06-2.77-0.1-5.22-0.14-7.33c-0.34,0.08-0.12,0.1,0.65,0.09s1.97-0.06,3.57-0.11c1.61-0.06,3.56-0.12,5.87-0.2
	c2.31-0.08,4.8-0.11,7.49-0.11c0.08,0,0.12,0.11,0.14,0.34c0.02,0.23,0.03,0.69,0.03,1.41c0,0.64-0.01,1.47-0.03,2.51
	c-0.02,1.03-0.07,2.38-0.14,4.03c-0.15,0-0.29,0-0.43,0c-0.13,0-0.3-0.01-0.51-0.03c-0.21-0.02-0.47-0.04-0.79-0.06
	c-0.32-0.02-0.75-0.03-1.28-0.03c-1.02,0-2.68,0.06-4.99,0.17c0,0.42-0.02,0.78-0.06,1.11c-0.04,0.32-0.04,0.8,0,1.45
	c0.87,0.04,1.81,0.02,2.84-0.06c1.02-0.08,1.97-0.08,2.84,0c0.08,0.19,0.11,0.43,0.11,0.71c0,0.28,0,0.61,0,0.99
	c0,0.57-0.02,1.19-0.06,1.87c-0.04,0.68-0.07,1.35-0.09,2.01c-0.02,0.66-0.04,1.28-0.06,1.84c-0.02,0.57-0.01,1,0.03,1.3
	c-0.38,0-0.86-0.01-1.45-0.03c-0.59-0.02-1.2-0.03-1.84-0.03c-0.42,0-0.83,0-1.25,0c-0.42,0-0.81,0.04-1.19,0.11l-0.11,6.58
	c0.49-0.04,1.07-0.07,1.73-0.09c0.66-0.02,1.34-0.04,2.04-0.06c0.7-0.02,1.39-0.03,2.07-0.03c0.68,0,1.29-0.02,1.81-0.06v8.39
	c-0.26,0.08-0.9,0.1-1.9,0.09c-1-0.02-2.56-0.03-4.68-0.03c-1.29,0-2.78,0.02-4.48,0.06C311.23,36.17,309.24,36.22,306.97,36.3
	L306.97,36.3z"/>
<path class="st15" d="M335.9,36.3c-0.15-3.78-0.27-6.77-0.37-8.96c-0.09-2.19-0.19-3.89-0.28-5.08c-0.09-1.19-0.17-2.02-0.23-2.5
	c-0.06-0.47-0.1-0.88-0.14-1.22c-2.42-2.99-4.28-5.3-5.59-6.95s-2.27-2.85-2.89-3.63c-0.62-0.78-0.98-1.26-1.08-1.45
	c-0.09-0.19-0.14-0.34-0.14-0.45c0.11-0.23,0.52-0.64,1.22-1.25c0.7-0.61,1.49-1.24,2.38-1.9s1.74-1.26,2.55-1.79
	c0.81-0.53,1.37-0.83,1.67-0.91c0.38,0.57,0.82,1.25,1.33,2.04c0.51,0.79,1.06,1.62,1.64,2.47c0.59,0.85,1.22,1.69,1.9,2.52
	c0.68,0.83,1.36,1.55,2.04,2.16c-0.15,0.49,0.31-0.13,1.39-1.87c1.08-1.74,2.73-4.25,4.96-7.54c0.45,0.19,1.42,0.6,2.89,1.22
	c1.47,0.62,3.08,1.48,4.82,2.58c-0.3,0.72-0.93,1.76-1.87,3.12c-0.95,1.36-1.96,2.8-3.03,4.31c-1.08,1.51-2.07,2.95-2.98,4.31
	c-0.91,1.36-1.46,2.4-1.64,3.12c-0.15,3.33-0.27,6.06-0.37,8.2c-0.09,2.14-0.16,3.82-0.2,5.05s-0.06,2.1-0.06,2.61
	c0,0.51,0,0.82,0,0.94c-0.3,0.23-0.8,0.4-1.5,0.51c-0.7,0.11-1.47,0.18-2.3,0.2c-0.83,0.02-1.63,0.04-2.38,0.06
	C336.9,36.23,336.31,36.26,335.9,36.3L335.9,36.3z"/>
<path class="st15" d="M65.16,323.85c0-1.05,0.08-2.29,0.24-3.72c0.16-1.43,0.43-2.92,0.82-4.45c0.38-1.53,0.9-3.06,1.54-4.57
	c0.65-1.51,1.46-2.87,2.45-4.06c0.99-1.19,2.14-2.16,3.45-2.91c1.31-0.75,2.86-1.12,4.63-1.12c1.62,0,2.92,0.33,3.91,1
	c0.99,0.67,1.77,1.54,2.33,2.63c0.57,1.09,0.95,2.31,1.15,3.66c0.2,1.35,0.3,2.72,0.3,4.09c0,0.61-0.01,1.19-0.03,1.76
	c-0.02,0.57-0.05,1.13-0.09,1.7l-6.42,0.24c-0.08-0.32-0.11-0.77-0.09-1.33c0.02-0.57-0.01-1.12-0.09-1.67
	c-0.08-0.55-0.23-1.02-0.45-1.42c-0.22-0.4-0.6-0.61-1.12-0.61c-0.61,0-1.16,0.39-1.67,1.18c-0.5,0.79-0.95,1.72-1.33,2.79
	c-0.38,1.07-0.68,2.12-0.88,3.15c-0.2,1.03-0.3,1.79-0.3,2.27c0,0.24-0.01,0.62-0.03,1.12c-0.02,0.5-0.03,1.06-0.03,1.67
	c0,0.69,0.02,1.39,0.06,2.12c0.04,0.73,0.12,1.39,0.24,2c0.12,0.61,0.29,1.11,0.51,1.51c0.22,0.4,0.51,0.63,0.88,0.67
	c0.57,0.04,0.92-0.25,1.06-0.88c0.14-0.63,0.21-1.34,0.21-2.15c0-0.52-0.01-1.03-0.03-1.51s-0.03-0.93-0.03-1.33
	c0.44,0,1.02,0.01,1.73,0.03c0.71,0.02,1.45,0.07,2.24,0.15s1.57,0.18,2.36,0.3c0.79,0.12,1.46,0.28,2.03,0.48
	c0.12,1.41,0.03,2.93-0.27,4.54c-0.3,1.62-0.82,3.12-1.54,4.51c-0.73,1.39-1.7,2.54-2.91,3.45c-1.21,0.91-2.69,1.36-4.42,1.36
	c-2.18,0-3.96-0.47-5.33-1.42c-1.37-0.95-2.43-2.2-3.18-3.76c-0.75-1.55-1.25-3.33-1.51-5.33C65.29,328,65.16,325.95,65.16,323.85
	L65.16,323.85z"/>
<path class="st15" d="M95.87,340.44c-1.17,0.08-2.45,0.07-3.85-0.03c-1.39-0.1-2.72-0.19-3.97-0.27c0-1.53-0.03-3.31-0.09-5.33
	s-0.14-4.15-0.24-6.39c-0.1-2.24-0.21-4.54-0.33-6.9c-0.12-2.36-0.24-4.66-0.36-6.9c-0.12-2.24-0.24-4.37-0.36-6.39
	c-0.12-2.02-0.22-3.8-0.3-5.33c1.17-0.04,2.35-0.04,3.54,0c1.19,0.04,2.37,0.06,3.54,0.06c0.4,0,0.81,0,1.21,0
	c0.4,0,0.81-0.02,1.21-0.06c0,1.7-0.01,3.61-0.03,5.75c-0.02,2.14-0.03,4.24-0.03,6.3v2.91c0.4,0.08,0.92,0.09,1.54,0.03
	c0.63-0.06,1.18-0.07,1.67-0.03c0.04-0.44,0.06-0.89,0.06-1.33c0-0.44,0-0.91,0-1.39c0-1.98-0.06-4.03-0.18-6.15
	c-0.12-2.12-0.22-4.03-0.3-5.72c0.57,0,1.33,0.01,2.3,0.03c0.97,0.02,1.95,0.05,2.94,0.09c0.99,0.04,1.91,0.09,2.76,0.15
	s1.45,0.11,1.82,0.15l-0.36,36.83h-7.87c-0.08-0.69-0.12-1.51-0.12-2.48s-0.02-2.01-0.06-3.12c-0.04-1.11-0.08-2.25-0.12-3.42
	c-0.04-1.17-0.12-2.3-0.24-3.39c-0.44-0.04-0.82-0.06-1.12-0.06c-0.3,0-0.58,0-0.82,0c-0.24,0-0.47-0.01-0.7-0.03
	c-0.22-0.02-0.47-0.03-0.76-0.03c-0.04,0.93-0.08,2.04-0.12,3.33c-0.04,1.29-0.07,2.56-0.09,3.82c-0.02,1.25-0.05,2.38-0.09,3.39
	C95.89,339.51,95.87,340.16,95.87,340.44L95.87,340.44z"/>
<path class="st15" d="M119.13,308.28c0,1.62-0.43,2.87-1.3,3.76c-0.87,0.89-1.97,1.33-3.3,1.33c-1.57,0-2.93-0.55-4.06-1.64
	c-1.13-1.09-1.7-2.48-1.7-4.18c0-1.57,0.5-2.76,1.51-3.54c1.01-0.79,2.16-1.18,3.45-1.18c0.65,0,1.29,0.11,1.94,0.33
	c0.65,0.22,1.23,0.56,1.76,1c0.52,0.44,0.94,1.01,1.24,1.7C118.98,306.55,119.13,307.35,119.13,308.28L119.13,308.28z M120.1,340.26
	c-0.36,0.12-0.94,0.2-1.73,0.24c-0.79,0.04-1.61,0.06-2.45,0.06c-0.77,0-1.47-0.01-2.12-0.03c-0.65-0.02-1.11-0.03-1.39-0.03
	c-0.69-5.45-1.26-9.89-1.73-13.33c-0.46-3.43-0.82-6.1-1.06-8c-0.24-1.9-0.38-3.17-0.42-3.82c-0.04-0.65,0-0.89,0.12-0.73
	c0.32-0.08,0.84-0.14,1.54-0.18c0.71-0.04,1.5-0.06,2.39-0.06c0.73,0,1.45,0.01,2.18,0.03c0.73,0.02,1.41,0.04,2.06,0.06
	c0.65,0.02,1.22,0.05,1.73,0.09s0.86,0.06,1.06,0.06c0,2.26-0.01,4.42-0.03,6.48c-0.02,2.06-0.03,4.12-0.03,6.18
	s-0.01,4.15-0.03,6.27C120.17,335.69,120.14,337.92,120.1,340.26L120.1,340.26z"/>
<path class="st15" d="M131.18,316.58c0.4,0.32,0.97,0.48,1.7,0.48c0.48,0,1-0.06,1.54-0.18c0.55-0.12,1.04-0.3,1.48-0.55
	s0.83-0.54,1.15-0.88c0.32-0.34,0.48-0.74,0.48-1.18c0-0.65-0.25-1.14-0.76-1.48c-0.5-0.34-1.09-0.6-1.76-0.76
	c-0.67-0.16-1.32-0.24-1.97-0.24c-0.65,0-1.11,0.02-1.39,0.06L131.18,316.58L131.18,316.58z M120.82,339.47
	c0.28-3.76,0.54-7.25,0.76-10.48c0.22-3.23,0.41-6.29,0.58-9.18c0.16-2.89,0.3-5.65,0.42-8.3c0.12-2.64,0.22-5.24,0.3-7.78
	c0.97-0.2,2.15-0.37,3.54-0.51c1.39-0.14,2.86-0.21,4.39-0.21c1.82,0,3.66,0.14,5.54,0.42c1.88,0.28,3.57,0.77,5.09,1.45
	c1.51,0.69,2.76,1.65,3.72,2.88c0.97,1.23,1.45,2.78,1.45,4.63c0,1.41-0.2,2.72-0.61,3.91c-0.4,1.19-0.96,2.26-1.67,3.21
	c-0.71,0.95-1.54,1.79-2.51,2.51c-0.97,0.73-2.02,1.35-3.15,1.88c0.16,0.57,0.44,1.3,0.85,2.21c0.4,0.91,0.86,1.85,1.36,2.82
	c0.5,0.97,1.04,1.88,1.61,2.73c0.57,0.85,1.07,1.51,1.51,2c-0.04,0.32-0.35,0.81-0.94,1.45c-0.59,0.65-1.25,1.29-2,1.94
	s-1.49,1.21-2.24,1.7c-0.75,0.48-1.32,0.75-1.73,0.79c-0.97-1.37-1.78-2.62-2.42-3.76c-0.65-1.13-1.22-2.21-1.73-3.24
	c-0.5-1.03-0.97-2.03-1.39-3c-0.42-0.97-0.88-1.98-1.36-3.03c-0.12,0.69-0.25,1.57-0.39,2.67c-0.14,1.09-0.28,2.23-0.42,3.42
	c-0.14,1.19-0.27,2.35-0.39,3.48s-0.2,2.06-0.24,2.79c-0.61,0.28-1.38,0.46-2.33,0.55c-0.95,0.08-1.91,0.12-2.88,0.12
	c-0.57,0-1.09-0.01-1.57-0.03c-0.48-0.02-0.93-0.03-1.33-0.03H120.82L120.82,339.47z"/>
<path class="st15" d="M157.04,315c-0.32,0.04-0.6,0.25-0.82,0.64c-0.22,0.38-0.4,0.9-0.55,1.54s-0.25,1.36-0.33,2.15
	c-0.08,0.79-0.12,1.61-0.12,2.45c0,0.89,0.04,1.77,0.12,2.63c0.08,0.87,0.2,1.64,0.36,2.3c0.16,0.67,0.37,1.19,0.64,1.57
	c0.26,0.38,0.56,0.56,0.88,0.51c0.28-0.04,0.55-0.26,0.79-0.67c0.24-0.4,0.44-0.94,0.61-1.61c0.16-0.67,0.28-1.41,0.36-2.24
	s0.12-1.67,0.12-2.51c0-0.89-0.04-1.75-0.12-2.57c-0.08-0.83-0.21-1.56-0.39-2.21c-0.18-0.65-0.39-1.15-0.64-1.51
	C157.71,315.13,157.41,314.96,157.04,315L157.04,315z M157.1,340.87c-1.21-0.12-2.28-0.56-3.21-1.3c-0.93-0.75-1.76-1.68-2.48-2.79
	s-1.34-2.35-1.85-3.72c-0.5-1.37-0.93-2.76-1.27-4.15c-0.34-1.39-0.61-2.74-0.79-4.03c-0.18-1.29-0.31-2.42-0.39-3.39
	c-0.04-0.32-0.06-0.66-0.06-1c0-0.34,0-0.7,0-1.06c0-1.82,0.17-3.78,0.51-5.88c0.34-2.1,0.94-4.01,1.79-5.72
	c0.85-1.72,2-3.08,3.45-4.09c1.45-1.01,3.27-1.33,5.45-0.97c2.22,0.36,4,1.27,5.33,2.73c1.33,1.45,2.36,3.16,3.09,5.12
	c0.73,1.96,1.19,4.03,1.39,6.21c0.2,2.18,0.28,4.16,0.24,5.94c-0.04,1.13-0.14,2.38-0.3,3.76c-0.16,1.37-0.41,2.76-0.76,4.15
	c-0.34,1.39-0.79,2.75-1.33,4.06c-0.55,1.31-1.22,2.44-2.03,3.39c-0.81,0.95-1.78,1.69-2.91,2.21
	C159.85,340.85,158.56,341.03,157.1,340.87L157.1,340.87z"/>
<path class="st15" d="M177.33,310.34c-0.04,0.2-0.06,0.69-0.06,1.45c0,0.77,0.01,1.58,0.03,2.45c0.02,0.87,0.05,1.71,0.09,2.51
	c0.04,0.81,0.08,1.35,0.12,1.64c0.61,0.16,1.18,0.09,1.73-0.21c0.55-0.3,1.01-0.73,1.39-1.27c0.38-0.55,0.68-1.16,0.88-1.85
	c0.2-0.69,0.26-1.33,0.18-1.94c-0.04-0.4-0.17-0.81-0.39-1.21c-0.22-0.4-0.52-0.75-0.91-1.03s-0.84-0.48-1.36-0.61
	C178.5,310.16,177.94,310.18,177.33,310.34L177.33,310.34z M170.25,340.44c0-1.09-0.04-2.57-0.12-4.45
	c-0.08-1.88-0.16-3.96-0.24-6.24c-0.08-2.28-0.18-4.67-0.3-7.18c-0.12-2.5-0.24-4.92-0.36-7.24c-0.12-2.32-0.22-4.45-0.3-6.39
	c-0.08-1.94-0.14-3.49-0.18-4.66c1.33-0.32,2.75-0.61,4.24-0.85c1.49-0.24,3.09-0.36,4.78-0.36c0.61,0,1.23,0.03,1.88,0.09
	c0.65,0.06,1.29,0.13,1.94,0.21c1.45,0.24,2.7,0.66,3.72,1.24c1.03,0.59,1.88,1.29,2.54,2.12c0.67,0.83,1.15,1.75,1.45,2.76
	c0.3,1.01,0.45,2.06,0.45,3.15c0,1.53-0.29,3.08-0.88,4.63c-0.59,1.55-1.4,2.96-2.45,4.21c-1.05,1.25-2.31,2.25-3.79,3
	c-1.47,0.75-3.1,1.1-4.88,1.06c0,1.17,0.03,2.44,0.09,3.82c0.06,1.37,0.12,2.75,0.18,4.12c0.06,1.37,0.12,2.69,0.18,3.94
	c0.06,1.25,0.09,2.34,0.09,3.27c-0.36,0-0.9,0-1.61,0c-0.71,0-1.46-0.02-2.27-0.06c-0.81-0.04-1.59-0.08-2.36-0.12
	S170.69,340.44,170.25,340.44L170.25,340.44z"/>
<path class="st15" d="M200.65,316.58c0.4,0.32,0.97,0.48,1.7,0.48c0.48,0,1-0.06,1.54-0.18c0.55-0.12,1.04-0.3,1.48-0.55
	c0.44-0.24,0.83-0.54,1.15-0.88c0.32-0.34,0.48-0.74,0.48-1.18c0-0.65-0.25-1.14-0.76-1.48c-0.5-0.34-1.09-0.6-1.76-0.76
	c-0.67-0.16-1.32-0.24-1.97-0.24c-0.65,0-1.11,0.02-1.39,0.06L200.65,316.58L200.65,316.58z M190.3,339.47
	c0.28-3.76,0.54-7.25,0.76-10.48c0.22-3.23,0.41-6.29,0.58-9.18s0.3-5.65,0.42-8.3c0.12-2.64,0.22-5.24,0.3-7.78
	c0.97-0.2,2.15-0.37,3.54-0.51c1.39-0.14,2.86-0.21,4.39-0.21c1.82,0,3.66,0.14,5.54,0.42c1.88,0.28,3.57,0.77,5.09,1.45
	c1.51,0.69,2.76,1.65,3.72,2.88c0.97,1.23,1.45,2.78,1.45,4.63c0,1.41-0.2,2.72-0.61,3.91c-0.4,1.19-0.96,2.26-1.67,3.21
	c-0.71,0.95-1.54,1.79-2.51,2.51c-0.97,0.73-2.02,1.35-3.15,1.88c0.16,0.57,0.44,1.3,0.85,2.21c0.4,0.91,0.86,1.85,1.36,2.82
	c0.5,0.97,1.04,1.88,1.61,2.73c0.57,0.85,1.07,1.51,1.51,2c-0.04,0.32-0.35,0.81-0.94,1.45c-0.59,0.65-1.25,1.29-2,1.94
	c-0.75,0.65-1.49,1.21-2.24,1.7c-0.75,0.48-1.32,0.75-1.73,0.79c-0.97-1.37-1.78-2.62-2.42-3.76c-0.65-1.13-1.22-2.21-1.73-3.24
	c-0.5-1.03-0.97-2.03-1.39-3c-0.42-0.97-0.88-1.98-1.36-3.03c-0.12,0.69-0.25,1.57-0.39,2.67c-0.14,1.09-0.28,2.23-0.42,3.42
	c-0.14,1.19-0.27,2.35-0.39,3.48s-0.2,2.06-0.24,2.79c-0.61,0.28-1.38,0.46-2.33,0.55c-0.95,0.08-1.91,0.12-2.88,0.12
	c-0.57,0-1.09-0.01-1.57-0.03c-0.48-0.02-0.93-0.03-1.33-0.03H190.3L190.3,339.47z"/>
<path class="st15" d="M228.7,318.03c-0.04,0.32-0.08,0.75-0.12,1.27c-0.04,0.52-0.09,1.09-0.15,1.7c-0.06,0.61-0.11,1.21-0.15,1.82
	c-0.04,0.61-0.06,1.13-0.06,1.57l2.24,0.12c0-0.24-0.06-0.66-0.18-1.24s-0.27-1.21-0.45-1.88c-0.18-0.67-0.38-1.31-0.61-1.94
	S228.82,318.36,228.7,318.03L228.7,318.03z M242.44,339.41c-0.73,0.12-1.47,0.27-2.24,0.45c-0.77,0.18-1.47,0.35-2.12,0.51
	c-0.65,0.16-1.17,0.29-1.57,0.39c-0.4,0.1-0.63,0.13-0.67,0.09c-0.36-1.17-0.82-2.48-1.36-3.94s-0.98-2.71-1.3-3.76
	c-0.32,0-0.76-0.01-1.3-0.03c-0.55-0.02-1.12-0.04-1.73-0.06c-0.61-0.02-1.22-0.04-1.85-0.06c-0.63-0.02-1.16-0.03-1.61-0.03
	c-0.28,1.45-0.51,2.65-0.7,3.6c-0.18,0.95-0.33,1.71-0.45,2.27c-0.12,0.57-0.21,0.97-0.27,1.21c-0.06,0.24-0.13,0.38-0.21,0.42
	c-0.32,0-0.91-0.04-1.76-0.12c-0.85-0.08-1.74-0.18-2.66-0.3c-0.93-0.12-1.79-0.26-2.57-0.42c-0.79-0.16-1.3-0.34-1.54-0.55
	c1.17-5.45,2.09-10.26,2.76-14.42c0.67-4.16,1.18-7.71,1.54-10.66c0.36-2.95,0.63-5.32,0.79-7.12s0.32-3.06,0.48-3.79
	c0.69,0,1.48-0.01,2.39-0.03c0.91-0.02,1.84-0.04,2.79-0.06c0.95-0.02,1.89-0.04,2.82-0.06c0.93-0.02,1.76-0.03,2.48-0.03
	c0.44,0,0.84,0,1.18,0c0.34,0,0.64,0.02,0.88,0.06c0.08,0.52,0.36,1.87,0.85,4.03c0.48,2.16,1.09,4.9,1.82,8.21
	c0.73,3.31,1.53,7.05,2.42,11.21C240.61,330.61,241.52,334.93,242.44,339.41L242.44,339.41z"/>
<path class="st15" d="M242.87,323.97c-0.04-1.05,0.01-2.3,0.15-3.76c0.14-1.45,0.39-2.97,0.76-4.54c0.36-1.57,0.86-3.14,1.48-4.69
	c0.63-1.55,1.41-2.94,2.36-4.15c0.95-1.21,2.08-2.2,3.39-2.97c1.31-0.77,2.86-1.17,4.63-1.21c1.7-0.04,3.09,0.33,4.18,1.12
	c1.09,0.79,1.95,1.8,2.57,3.03c0.63,1.23,1.05,2.6,1.27,4.12c0.22,1.51,0.33,3,0.33,4.45c0,0.44,0,0.86,0,1.24
	c0,0.38-0.02,0.78-0.06,1.18l-6.97,1.27c-0.08-0.32-0.12-0.78-0.12-1.36c0-0.59-0.04-1.15-0.12-1.7c-0.08-0.55-0.23-1.01-0.45-1.39
	c-0.22-0.38-0.6-0.58-1.12-0.58c-0.61,0-1.14,0.36-1.61,1.09c-0.46,0.73-0.85,1.57-1.15,2.54c-0.3,0.97-0.54,1.94-0.7,2.91
	c-0.16,0.97-0.24,1.7-0.24,2.18v2.67c0,0.69,0.02,1.4,0.06,2.15s0.12,1.42,0.24,2.03c0.12,0.61,0.29,1.12,0.51,1.54
	c0.22,0.42,0.51,0.64,0.88,0.64c0.61,0.04,0.99-0.29,1.15-1c0.16-0.71,0.24-1.5,0.24-2.39c0-0.44-0.01-0.86-0.03-1.24
	c-0.02-0.38-0.03-0.74-0.03-1.06c0.44,0,1.01,0,1.7,0c0.69,0,1.4,0.02,2.15,0.06c0.75,0.04,1.49,0.11,2.24,0.21
	c0.75,0.1,1.42,0.25,2.03,0.45c0.12,1.41,0.05,2.94-0.21,4.57c-0.26,1.64-0.77,3.16-1.51,4.57s-1.73,2.59-2.94,3.54
	c-1.21,0.95-2.69,1.42-4.42,1.42c-2.22,0.04-4.02-0.43-5.39-1.42s-2.44-2.28-3.21-3.88c-0.77-1.59-1.29-3.41-1.57-5.45
	C243.07,328.14,242.91,326.07,242.87,323.97L242.87,323.97z"/>
<path class="st15" d="M269.16,340.2c0-1.98,0.02-4.07,0.06-6.27s0.09-4.38,0.15-6.54c0.06-2.16,0.11-4.23,0.15-6.21
	c0.04-1.98,0.06-3.74,0.06-5.27c0-0.57,0-1.09,0-1.57s-0.02-0.93-0.06-1.33l-5.15-0.42c0.08-2.22,0.14-3.98,0.18-5.27
	c0.04-1.29,0.06-2.26,0.06-2.91c0-0.65,0-1.06,0-1.24c0-0.18,0.04-0.29,0.12-0.33c1.25,0.12,2.85,0.23,4.78,0.33
	c1.94,0.1,3.96,0.2,6.06,0.3c2.1,0.1,4.16,0.21,6.18,0.33c2.02,0.12,3.71,0.24,5.09,0.36l-0.3,10.05l-6.84-0.36
	c-0.08,0.36-0.16,1.18-0.24,2.45c-0.08,1.27-0.16,2.78-0.24,4.51c-0.08,1.74-0.16,3.61-0.24,5.63c-0.08,2.02-0.16,3.98-0.24,5.88
	c-0.08,1.9-0.16,3.61-0.24,5.15c-0.08,1.53-0.16,2.71-0.24,3.51c-1.49-0.08-3.04-0.18-4.63-0.3
	C272.01,340.56,270.53,340.4,269.16,340.2L269.16,340.2z"/>
<path class="st15" d="M297.56,308.28c0,1.62-0.43,2.87-1.3,3.76c-0.87,0.89-1.97,1.33-3.3,1.33c-1.57,0-2.93-0.55-4.06-1.64
	c-1.13-1.09-1.7-2.48-1.7-4.18c0-1.57,0.5-2.76,1.51-3.54c1.01-0.79,2.16-1.18,3.45-1.18c0.65,0,1.29,0.11,1.94,0.33
	c0.65,0.22,1.23,0.56,1.76,1c0.52,0.44,0.94,1.01,1.24,1.7C297.41,306.55,297.56,307.35,297.56,308.28L297.56,308.28z
	 M298.53,340.26c-0.36,0.12-0.94,0.2-1.73,0.24s-1.61,0.06-2.45,0.06c-0.77,0-1.47-0.01-2.12-0.03c-0.65-0.02-1.11-0.03-1.39-0.03
	c-0.69-5.45-1.26-9.89-1.73-13.33c-0.46-3.43-0.82-6.1-1.06-8c-0.24-1.9-0.38-3.17-0.42-3.82s0-0.89,0.12-0.73
	c0.32-0.08,0.84-0.14,1.54-0.18c0.71-0.04,1.5-0.06,2.39-0.06c0.73,0,1.45,0.01,2.18,0.03c0.73,0.02,1.41,0.04,2.06,0.06
	c0.65,0.02,1.22,0.05,1.73,0.09c0.5,0.04,0.86,0.06,1.06,0.06c0,2.26-0.01,4.42-0.03,6.48c-0.02,2.06-0.03,4.12-0.03,6.18
	s-0.01,4.15-0.03,6.27S298.57,337.92,298.53,340.26L298.53,340.26z"/>
<path class="st15" d="M299.14,323.97c-0.04-1.05,0.01-2.3,0.15-3.76c0.14-1.45,0.39-2.97,0.76-4.54c0.36-1.57,0.86-3.14,1.48-4.69
	c0.63-1.55,1.41-2.94,2.36-4.15c0.95-1.21,2.08-2.2,3.39-2.97c1.31-0.77,2.86-1.17,4.63-1.21c1.7-0.04,3.09,0.33,4.18,1.12
	c1.09,0.79,1.95,1.8,2.57,3.03c0.63,1.23,1.05,2.6,1.27,4.12c0.22,1.51,0.33,3,0.33,4.45c0,0.44,0,0.86,0,1.24
	c0,0.38-0.02,0.78-0.06,1.18l-6.97,1.27c-0.08-0.32-0.12-0.78-0.12-1.36c0-0.59-0.04-1.15-0.12-1.7c-0.08-0.55-0.23-1.01-0.45-1.39
	c-0.22-0.38-0.6-0.58-1.12-0.58c-0.61,0-1.14,0.36-1.61,1.09c-0.46,0.73-0.85,1.57-1.15,2.54c-0.3,0.97-0.54,1.94-0.7,2.91
	c-0.16,0.97-0.24,1.7-0.24,2.18v2.67c0,0.69,0.02,1.4,0.06,2.15s0.12,1.42,0.24,2.03c0.12,0.61,0.29,1.12,0.51,1.54
	c0.22,0.42,0.51,0.64,0.88,0.64c0.61,0.04,0.99-0.29,1.15-1c0.16-0.71,0.24-1.5,0.24-2.39c0-0.44-0.01-0.86-0.03-1.24
	c-0.02-0.38-0.03-0.74-0.03-1.06c0.44,0,1.01,0,1.7,0c0.69,0,1.4,0.02,2.15,0.06c0.75,0.04,1.49,0.11,2.24,0.21
	c0.75,0.1,1.42,0.25,2.03,0.45c0.12,1.41,0.05,2.94-0.21,4.57c-0.26,1.64-0.77,3.16-1.51,4.57s-1.73,2.59-2.94,3.54
	c-1.21,0.95-2.69,1.42-4.42,1.42c-2.22,0.04-4.02-0.43-5.39-1.42c-1.37-0.99-2.44-2.28-3.21-3.88c-0.77-1.59-1.29-3.41-1.57-5.45
	C299.34,328.14,299.18,326.07,299.14,323.97L299.14,323.97z"/>
<path class="st15" d="M123.42,398.46c0-0.34,0.01-0.83,0.03-1.47c0.02-0.63,0.04-1.29,0.08-1.96c0.03-0.67,0.08-1.3,0.13-1.9
	c0.05-0.6,0.08-1.07,0.08-1.42c0.27-0.17,0.51-0.23,0.7-0.18s0.44,0.01,0.75-0.13c0.1-0.93,0.21-2.15,0.31-3.66
	c0.1-1.51,0.2-3.06,0.28-4.66c0.09-1.6,0.17-3.13,0.26-4.61c0.09-1.48,0.18-2.66,0.28-3.55c-0.38-0.1-0.72-0.15-1.03-0.15
	s-0.6-0.03-0.88-0.1c-0.03-0.96,0.02-2.11,0.15-3.45c0.14-1.34,0.26-2.61,0.36-3.81c-0.31,0-0.05-0.01,0.77-0.03
	c0.82-0.02,2.04,0,3.66,0.05c1.61,0.05,3.51,0.15,5.69,0.31s4.49,0.39,6.92,0.7c0.07,0,0.1,0.13,0.1,0.39s0,0.42,0,0.49l-0.41,6.8
	c-0.14,0.1-0.3,0.15-0.49,0.15s-0.53-0.03-1.03-0.08s-1.22-0.14-2.16-0.26s-2.22-0.25-3.84-0.39c0,0.38-0.03,0.71-0.08,1
	c-0.05,0.29-0.06,0.73-0.03,1.31c0.34,0.1,0.74,0.16,1.18,0.18s0.9,0.03,1.36,0.03s0.91,0.01,1.34,0.03
	c0.43,0.02,0.82,0.08,1.16,0.18c0.1,0.34,0.14,0.88,0.1,1.62c-0.03,0.74-0.09,1.52-0.15,2.34s-0.14,1.61-0.21,2.37
	c-0.07,0.76-0.1,1.32-0.1,1.7c-0.27,0-0.63-0.03-1.06-0.1c-0.43-0.07-0.89-0.14-1.39-0.21c-0.5-0.07-1-0.12-1.52-0.15
	c-0.51-0.03-0.98-0.05-1.39-0.05l-0.46,5.97c0.93,0,1.97,0.03,3.14,0.1c1.17,0.07,2.21,0.17,3.14,0.31
	c0.03,0.27,0.05,0.56,0.05,0.85c0,0.29,0,0.59,0,0.9c0,1.72-0.15,3.57-0.46,5.56c0.41,0.1,0.35,0.13-0.18,0.08
	c-0.53-0.05-1.47-0.14-2.81-0.26c-1.34-0.12-3.05-0.26-5.15-0.41C128.54,398.74,126.13,398.59,123.42,398.46L123.42,398.46z"/>
<path class="st15" d="M142.42,397.32c0-0.14,0.06-0.59,0.18-1.36c0.12-0.77,0.26-1.6,0.41-2.47c0.15-0.88,0.31-1.67,0.46-2.39
	s0.28-1.13,0.39-1.24c0.48,0.14,1.01,0.31,1.6,0.51c0.58,0.21,1.18,0.4,1.8,0.59c0.62,0.19,1.24,0.35,1.88,0.49
	c0.63,0.14,1.24,0.21,1.83,0.21c0.79,0,1.5-0.18,2.14-0.54c0.63-0.36,1.11-1.02,1.42-1.98c0.27-0.82,0.13-1.5-0.44-2.03
	c-0.57-0.53-1.32-0.99-2.27-1.36c-0.94-0.38-1.94-0.73-2.99-1.06c-1.05-0.33-1.91-0.71-2.6-1.16c-1-0.65-1.81-1.47-2.45-2.45
	s-0.95-2.26-0.95-3.84c0-0.55,0.05-1.13,0.15-1.75c0.21-1.44,0.69-2.65,1.44-3.63c0.76-0.98,1.66-1.78,2.73-2.39
	c1.06-0.62,2.24-1.06,3.53-1.31c1.29-0.26,2.6-0.39,3.94-0.39c1.34,0,2.64,0.12,3.91,0.36c1.27,0.24,2.4,0.55,3.4,0.93
	c-0.03,0.24-0.1,0.65-0.21,1.24c-0.1,0.58-0.23,1.24-0.39,1.96c-0.15,0.72-0.33,1.48-0.51,2.27c-0.19,0.79-0.39,1.51-0.59,2.16
	c-1.2-0.38-2.26-0.63-3.17-0.77c-0.91-0.14-1.71-0.21-2.39-0.21c-1,0-1.75,0.14-2.27,0.41c-0.51,0.27-0.81,0.62-0.88,1.03
	c-0.07,0.62,0.15,1.12,0.67,1.49c0.51,0.38,1.18,0.75,1.98,1.11c0.81,0.36,1.67,0.74,2.6,1.13c0.93,0.39,1.76,0.93,2.5,1.6
	c0.74,0.67,1.32,1.52,1.75,2.55c0.43,1.03,0.56,2.33,0.39,3.91c-0.21,1.75-0.63,3.23-1.29,4.43c-0.65,1.2-1.47,2.18-2.45,2.93
	c-0.98,0.76-2.1,1.3-3.37,1.62c-1.27,0.33-2.64,0.49-4.12,0.49c-1.2,0-2.45-0.09-3.76-0.28
	C145.13,397.93,143.79,397.67,142.42,397.32L142.42,397.32z"/>
<path class="st15" d="M166.31,399.12c0-1.68,0.02-3.46,0.05-5.33c0.03-1.87,0.08-3.72,0.13-5.56c0.05-1.84,0.09-3.6,0.13-5.28
	c0.03-1.68,0.05-3.17,0.05-4.48c0-0.48,0-0.93,0-1.34s-0.02-0.79-0.05-1.13l-4.38-0.36c0.07-1.89,0.12-3.38,0.15-4.48
	c0.03-1.1,0.05-1.92,0.05-2.47c0-0.55,0-0.9,0-1.06s0.03-0.25,0.1-0.28c1.06,0.1,2.42,0.2,4.07,0.28c1.65,0.09,3.36,0.17,5.15,0.26
	c1.78,0.09,3.54,0.18,5.25,0.28s3.16,0.21,4.32,0.31l-0.26,8.55l-5.82-0.31c-0.07,0.31-0.14,1-0.21,2.09
	c-0.07,1.08-0.14,2.36-0.21,3.84c-0.07,1.48-0.14,3.07-0.21,4.79c-0.07,1.72-0.14,3.38-0.21,4.99c-0.07,1.61-0.14,3.07-0.21,4.38
	c-0.07,1.3-0.14,2.3-0.21,2.99c-1.27-0.07-2.58-0.15-3.94-0.26C168.74,399.43,167.47,399.3,166.31,399.12L166.31,399.12z"/>
<path class="st15" d="M190.14,399.85c0-0.62-0.01-1.26-0.03-1.93c-0.02-0.67-0.03-1.36-0.03-2.09c0-0.82,0.02-1.66,0.05-2.52
	c0.03-0.86,0.1-1.7,0.21-2.52c0.89,0,1.64,0.02,2.24,0.05c0.6,0.03,1.24,0.05,1.93,0.05c0.17-1.44,0.37-3.16,0.59-5.15
	c0.22-1.99,0.32-3.91,0.28-5.77c-0.17,0-0.41,0.12-0.72,0.36c-0.31,0.24-0.72,0.48-1.24,0.72c-0.24-0.21-0.61-0.56-1.11-1.06
	c-0.5-0.5-1-1.04-1.49-1.62c-0.5-0.58-0.94-1.17-1.34-1.75c-0.39-0.58-0.59-1.08-0.59-1.49c1.72-1.68,3.05-3,3.99-3.96
	c0.94-0.96,1.65-1.67,2.11-2.14c0.46-0.46,0.79-0.75,0.98-0.85s0.39-0.15,0.59-0.15c0.24,0,0.58,0.02,1.03,0.05
	c0.45,0.03,1.05,0.07,1.8,0.1s1.69,0.07,2.81,0.1c1.12,0.03,2.48,0.05,4.09,0.05c-0.14,1.75-0.35,3.62-0.64,5.61
	c-0.29,1.99-0.59,3.98-0.9,5.97c-0.31,1.99-0.58,3.9-0.82,5.71c-0.24,1.82-0.36,3.42-0.36,4.79c0.38,0.1,0.9,0.13,1.57,0.08
	c0.67-0.05,1.24,0.01,1.72,0.18c0,1.44-0.06,2.87-0.18,4.3c-0.12,1.42-0.23,2.93-0.33,4.5c-2.37,0.17-4.92,0.26-7.65,0.26
	S193.13,399.78,190.14,399.85L190.14,399.85z"/>
<path class="st15" d="M217.28,375.6c-0.65,0-1.18,0.24-1.57,0.72c-0.39,0.48-0.59,1.01-0.59,1.6c0,0.41,0.12,0.79,0.36,1.13
	c0.24,0.34,0.65,0.55,1.24,0.62c0.1-0.72,0.18-1.43,0.23-2.14C216.99,376.82,217.1,376.18,217.28,375.6L217.28,375.6z
	 M210.63,399.49c0-0.24-0.01-0.62-0.03-1.13s-0.03-1.07-0.03-1.67c0-0.6-0.01-1.23-0.03-1.88c-0.02-0.65-0.03-1.25-0.03-1.8
	c0-0.41,0-0.78,0-1.11c0-0.33,0.02-0.59,0.05-0.8c0.38,0,0.71,0.01,1,0.03c0.29,0.02,0.59,0.03,0.9,0.05c0.31,0.02,0.64,0.03,1,0.03
	c0.36,0,0.8-0.02,1.31-0.05l-0.05-4.38c-1,0.07-1.96-0.14-2.88-0.62c-0.92-0.48-1.72-1.13-2.41-1.96c-0.69-0.82-1.24-1.75-1.66-2.78
	c-0.41-1.03-0.62-2.06-0.62-3.09c0-1.89,0.38-3.52,1.14-4.89c0.76-1.37,1.76-2.49,3.02-3.35c1.26-0.86,2.69-1.49,4.31-1.9
	c1.62-0.41,3.27-0.62,4.96-0.62c1.65,0,3.32,0.19,5.01,0.57l-3.2,23.84c0.21,0.14,0.38,0.22,0.52,0.26
	c0.14,0.03,0.28,0.05,0.41,0.05c0.14,0,0.29,0,0.46,0c0.17,0,0.36,0.03,0.57,0.1c0,0.45-0.03,0.89-0.1,1.34
	c-0.07,0.45-0.15,0.94-0.26,1.47c-0.1,0.53-0.21,1.15-0.31,1.85c-0.1,0.7-0.19,1.52-0.26,2.45c-0.96,0.17-2.21,0.3-3.76,0.39
	c-1.54,0.09-3.04,0.13-4.48,0.13c-1.17,0-2.18-0.04-3.04-0.13C211.32,399.79,210.81,399.66,210.63,399.49L210.63,399.49z"/>
<path class="st15" d="M235.96,375.6c-0.65,0-1.18,0.24-1.57,0.72c-0.39,0.48-0.59,1.01-0.59,1.6c0,0.41,0.12,0.79,0.36,1.13
	c0.24,0.34,0.65,0.55,1.24,0.62c0.1-0.72,0.18-1.43,0.23-2.14C235.68,376.82,235.79,376.18,235.96,375.6L235.96,375.6z
	 M229.32,399.49c0-0.24-0.01-0.62-0.03-1.13c-0.02-0.51-0.03-1.07-0.03-1.67c0-0.6-0.01-1.23-0.03-1.88
	c-0.02-0.65-0.03-1.25-0.03-1.8c0-0.41,0-0.78,0-1.11c0-0.33,0.02-0.59,0.05-0.8c0.38,0,0.71,0.01,1,0.03
	c0.29,0.02,0.59,0.03,0.9,0.05c0.31,0.02,0.64,0.03,1,0.03s0.8-0.02,1.31-0.05l-0.05-4.38c-1,0.07-1.96-0.14-2.88-0.62
	c-0.92-0.48-1.72-1.13-2.41-1.96c-0.69-0.82-1.24-1.75-1.66-2.78s-0.62-2.06-0.62-3.09c0-1.89,0.38-3.52,1.14-4.89
	c0.76-1.37,1.76-2.49,3.02-3.35c1.26-0.86,2.69-1.49,4.31-1.9c1.62-0.41,3.27-0.62,4.96-0.62c1.65,0,3.32,0.19,5.01,0.57l-3.2,23.84
	c0.21,0.14,0.38,0.22,0.52,0.26c0.14,0.03,0.28,0.05,0.41,0.05c0.14,0,0.29,0,0.46,0s0.36,0.03,0.57,0.1c0,0.45-0.03,0.89-0.1,1.34
	c-0.07,0.45-0.15,0.94-0.26,1.47c-0.1,0.53-0.21,1.15-0.31,1.85c-0.1,0.7-0.19,1.52-0.26,2.45c-0.96,0.17-2.21,0.3-3.76,0.39
	c-1.54,0.09-3.04,0.13-4.48,0.13c-1.17,0-2.18-0.04-3.04-0.13S229.49,399.66,229.32,399.49L229.32,399.49z"/>
<path class="st15" d="M254.45,374.82c-0.45,0.14-0.77,0.36-0.98,0.67c-0.21,0.31-0.31,0.63-0.31,0.98c0,0.41,0.15,0.78,0.46,1.11
	c0.31,0.33,0.76,0.45,1.34,0.39c0.45-0.07,0.79-0.28,1.03-0.64c0.24-0.36,0.36-0.73,0.36-1.11c0-0.45-0.15-0.84-0.46-1.18
	C255.58,374.69,255.1,374.62,254.45,374.82L254.45,374.82z M253.88,389.14c-0.55,0.07-0.96,0.29-1.24,0.67
	c-0.27,0.38-0.41,0.77-0.41,1.18s0.14,0.76,0.41,1.06c0.27,0.29,0.69,0.4,1.24,0.33c0.69-0.07,1.18-0.28,1.47-0.64
	c0.29-0.36,0.44-0.73,0.44-1.11c0-0.45-0.17-0.82-0.51-1.13C254.93,389.19,254.46,389.07,253.88,389.14L253.88,389.14z
	 M253.52,399.49c-1.41,0.17-2.66,0.05-3.76-0.36c-1.1-0.41-2.03-1.01-2.81-1.8c-0.77-0.79-1.36-1.73-1.78-2.83
	c-0.41-1.1-0.62-2.23-0.62-3.4c0-1.44,0.33-2.87,1-4.27c0.67-1.41,1.74-2.61,3.22-3.6c-1.06-1-1.84-2.11-2.34-3.35
	c-0.5-1.24-0.75-2.49-0.75-3.76c0-1.06,0.18-2.11,0.54-3.14c0.36-1.03,0.88-1.96,1.54-2.78c0.67-0.82,1.5-1.52,2.5-2.09
	s2.11-0.94,3.35-1.11c1.44-0.17,2.69-0.04,3.76,0.39c1.06,0.43,1.94,1.05,2.63,1.85c0.69,0.81,1.2,1.76,1.54,2.86
	c0.34,1.1,0.51,2.23,0.51,3.4c0,1.58-0.3,3.08-0.9,4.5c-0.6,1.42-1.48,2.53-2.65,3.32c1,0.93,1.75,2.02,2.27,3.27
	c0.51,1.25,0.77,2.53,0.77,3.84c0,1.06-0.17,2.1-0.51,3.11c-0.34,1.01-0.85,1.93-1.52,2.75c-0.67,0.82-1.5,1.52-2.5,2.09
	C256.02,398.94,254.86,399.31,253.52,399.49L253.52,399.49z"/>
</svg>
